<svg xmlns="http://www.w3.org/2000/svg" viewBox="0 0 307.34 166.65"><defs><style>.cls-1{fill:#414042;fill-rule:evenodd;}</style></defs><title>floron</title><g id="Capa_2"><g id="acanthus"><path class="cls-1" d="M27.36,2.45c-5.09,2-9.79,3.56-13.47,6.94-1.42,1.3-2,3.95-4.49,4.08,1.87-4.53,5.15-5.87,9.8-8.57C21.94,3.3,22.64,1.82,27.36,2.45Z"/><path class="cls-1" d="M37.15,14.28c.93.44,1.19,1.54,2.05,2C38.27,17.49,37,15.54,37.15,14.28Z"/><path class="cls-1" d="M9.4,18c.38.43,1.51.12,1.23,1.22C9.74,19.26,9.33,18.85,9.4,18Z"/><path class="cls-1" d="M55.11,22.45c1.74,1.21,0,5.82.41,7.34C53.94,28.12,54.37,24.6,55.11,22.45Z"/><path class="cls-1" d="M175.51,42.85c1.5,1.8-1.13,1.55,0,0Z"/><path class="cls-1" d="M177.55,45.3h.82v.82h-.82Z"/><path class="cls-1" d="M82.46,58.77c-2.52,1.06-3.85-4.27-5.31-3.26-.36-.87-1.24-1.21-1.22-2.45C78.3,53.19,81,56.41,82.46,58.77Z"/><path class="cls-1" d="M69,55.1c1.55,1.17,3.64,1.8,4.08,4.08A9.35,9.35,0,0,1,69,55.1Z"/><path class="cls-1" d="M55.93,56.73c1.9.26,2.51,2.2,3.67,3.27.52.47,2.24.23,1.63,1.63A9.94,9.94,0,0,1,55.93,56.73Z"/><path class="cls-1" d="M103.27,60c.72.09.93.7.82,1.63h-1.23C102.69,60.77,103.14,60.55,103.27,60Z"/><path class="cls-1" d="M79.6,63.67c-.95,1-1.09-.64-2-.82C77.79,61.41,79.48,62.64,79.6,63.67Z"/><path class="cls-1" d="M69.81,68.16c-2.55,0-4.74-3.66-7.76-4.49.1-.72.7-.93,1.63-.82C65.07,65.27,68.67,65.48,69.81,68.16Z"/><path class="cls-1" d="M110.62,66.93a8,8,0,0,1-5.31-3.67C107.17,62.88,109.67,65.08,110.62,66.93Z"/><path class="cls-1" d="M80.42,64.08c1.82-.06,2,1.49,3.67,1.63C83,66.65,80.51,65.5,80.42,64.08Z"/><path class="cls-1" d="M72.66,66.53c1,0,2.1.07,2,1.22C73.66,67.7,72.6,67.67,72.66,66.53Z"/><path class="cls-1" d="M85.72,66.93c1.07-.11,1.76.15,1.64,1.23C86.57,68,85.6,68,85.72,66.93Z"/><path class="cls-1" d="M111.84,67.34c1.47.16,2.6.67,2.86,2C113.52,68.93,111.94,68.88,111.84,67.34Z"/><path class="cls-1" d="M88.17,67.75c2,1,4.44,1.53,6.53,2.45A18,18,0,0,1,100,73.46c-2.58-.41-4.81-1.17-6.12-2.85C91.27,70.37,89.17,69.6,88.17,67.75Z"/><path class="cls-1" d="M75.93,68.57c.87-.19.78.58.81,1.22-.33-.08-.4-.41-.81-.41Z"/><path class="cls-1" d="M202.86,73.46c-3.51.82-7-1.17-11-1.63-5.3-.59-11.26-.7-17.55-.81,1.61-1.15,4-1.12,6.12-1.23A61.23,61.23,0,0,1,202.86,73.46Z"/><path class="cls-1" d="M107.35,72.65c-.74,1.78-2.65,1-4.08.41V71.83C104.76,70.64,106,72.42,107.35,72.65Z"/><path class="cls-1" d="M142,72.65c2.32.26,3.39,1.78,6.13,1.63C147.26,75.55,142.84,74.12,142,72.65Z"/><path class="cls-1" d="M110.62,73.87c.27,1.63-1.55,1.17-2.86,1.23V73.87C108.64,73,109.15,74.21,110.62,73.87Z"/><path class="cls-1" d="M203.27,73.87c1.79-.43,5.64.61,6.53,2.45C207.69,75.44,204.73,75.4,203.27,73.87Z"/><path class="cls-1" d="M115.92,74.69c.82-.14,1.28.08,1.23.81h-1.23Z"/><path class="cls-1" d="M111.44,75.1h2C113.87,76.74,111,76.74,111.44,75.1Z"/><path class="cls-1" d="M224.49,75.5c.5-1.23,1.56.29,2,.41C226.12,77.06,224.64,76,224.49,75.5Z"/><path class="cls-1" d="M117.15,76.32c-.22,1.4-2,.63-2.86.41C114.3,75.54,116.6,75.76,117.15,76.32Z"/><path class="cls-1" d="M121.64,75.91c-.12,1.24-1.58,1.15-1.63,2.45a9.8,9.8,0,0,0-2.45-.82A5.39,5.39,0,0,1,121.64,75.91Z"/><path class="cls-1" d="M211.43,76.32c2.34.25,4.41.76,5.3,2.45C214.33,78.59,212.24,78.09,211.43,76.32Z"/><path class="cls-1" d="M124.9,77.14c-1,.59-1.14,2.12-3.26,1.63C122.2,77.7,123.38,77.25,124.9,77.14Z"/><path class="cls-1" d="M75.11,81.22c-1.36,2-6.45.63-9.79.81-2,.11-3.57,1.52-4.49,0C64.6,79.76,70.64,81.14,75.11,81.22Z"/><path class="cls-1" d="M82.46,83.26A29.72,29.72,0,0,1,75.52,82C76.73,80.57,81.36,82,82.46,83.26Z"/><path class="cls-1" d="M64.09,83.67c1.92-1.23,4.34.55,6.94,0-.3,2-2.07.82-3.26,1.22-4.35,1.48-12.87,6.43-12.25,11.84-2.85-2.2-.27-6,1.23-7.35a23.69,23.69,0,0,1,9.79-4.49C66.16,83.13,65.25,84.27,64.09,83.67Z"/><path class="cls-1" d="M131.84,91c-19-.15-40.4-1.5-57.95.82,1.11-1.54,3.33-1,4.89-1.22,12.4-1.69,27.61-1.42,41.23-1.23a80.62,80.62,0,0,1,9.38.82C130.11,90.29,131.87,89.52,131.84,91Z"/><path class="cls-1" d="M232.24,89.79c.87-.82,1.82.58,2.86.82-1,1.53,1.47,5.91-2,5.71C233.73,93.32,233.53,91.73,232.24,89.79Z"/><path class="cls-1" d="M251,89.38c.79-.16.59,1.86-.41,1.23v-.82C251,89.86,251,89.63,251,89.38Z"/><path class="cls-1" d="M252.24,89.79c1.06.16,1.23,1.22,2.45,1.22C254.4,92.5,252.32,91,252.24,89.79Z"/><path class="cls-1" d="M139.19,91c-1.06.33-4.28-.21-6.53,0C133.08,89.68,138.77,89.68,139.19,91Z"/><path class="cls-1" d="M139.19,91.42h1.63c.41,1.23-.91.72-1.63.82Z"/><path class="cls-1" d="M243.26,97.54c1.12-.37-.72-1.43.41-2,1.14.23,1.14,1.58,1.63,2.45.85-1.47,3.87.33,3.68,2.45a2.66,2.66,0,0,1,2-.41c.35.6.32,1.58,1.63,1.23,0,2,.24,4.32-2,4.08,0-.65.2-1.56-.41-1.63.09-.59,1.22-.15,1.23-.82-.17-.79-1.87,0-1.23-1.63-1,.23-.91,1.54-1.22,2.45-2.25.34-.53-3.29-1.64-4.09-.71.38-.9,1.28-.81,2.45H244.9c-.69-1.4,0-1.8-.41-3.67-1.55-.18-.59,2.13-1.64,2.45-1.9,0,0-3.82-1.22-4.49-1.17.06-.75,1.7-.82,2.86-1.75,0-1.08-2.45-1.22-4.09-1.84.07-.83,3-2.86,2.86-.66-1.78-.32-4.57-1.22-6.12.12-.55,1-.34,1.63-.41v2.45c.87.19.78-.58.82-1.22,1.39.26,2.38.63,1.63,2,1,0,1.2-.71,2.45-.41C242.8,95,243,96.34,243.26,97.54Z"/><path class="cls-1" d="M259.18,94.28c-1,1.31-1.65-1.44,0,0Z"/><path class="cls-1" d="M199.18,97.14c1.25-.3,1.2.7,2.45.4C202,99.41,198.41,99.18,199.18,97.14Z"/><path class="cls-1" d="M78,98.77c-1.69,1.43-4.33,1.93-6.53,2.86.08-.34.41-.41.41-.82-6.92,1-13.57,1.47-17.55-2.86,2.73-.67,4,1.42,6.12,2.45C65.23,101.22,71.36,97.18,78,98.77Z"/><path class="cls-1" d="M207.75,100.81c-8.43-1.18-17.19-.17-24.48,1.22-3.61.69-7.31,1.18-9.8,2a5.77,5.77,0,0,0-3.26,2.45c-4.81.09-7.13,2.67-10.21,4.49,1.47,1.25,3.16.45,5.31.41-1.62,3.37-6.09,1.17-9.8,1.22,11.24-9.17,26.94-13.87,47.76-13.46C204.12,96.81,207.93,98.49,207.75,100.81Z"/><path class="cls-1" d="M263.26,100.4c.61-1.35,1,.85,2,.41C264.79,102.49,264.11,100.65,263.26,100.4Z"/><path class="cls-1" d="M218,102.44c-.48-1.75,3.33-1.75,2.85,0Z"/><path class="cls-1" d="M69,102c.47-.06.73.09.82.41-.26,1.65-1.62,2.2-2.45,3.27,1.54,3.16,4.84-1,8.16,0-2.19,1.62-5.91,1.71-9.39,2C65.53,104.29,67.83,103.73,69,102Z"/><path class="cls-1" d="M231.43,105.71c-16.52-4.21-40.89-2.86-55.92,2.45,1.13-1.55,3.35-1.91,5.31-2.45,11.25-3.14,26.09-5,40-2.45,1.29-.21,1.8-1.2,3.27-1.23C225.61,104.17,230.89,102.57,231.43,105.71Z"/><path class="cls-1" d="M253.47,102c.85.51,1.59,1.13,2.44,1.64-.75,1.14-.89,2.91-2.44,3.26C253.73,105.1,252.35,103.45,253.47,102Z"/><path class="cls-1" d="M129,104.07a2.32,2.32,0,0,1-2.44,1.23A2.32,2.32,0,0,1,129,104.07Z"/><path class="cls-1" d="M232.65,104.89c1.33-.11,2,.48,2,1.63C233.83,106.16,232.26,106.51,232.65,104.89Z"/><path class="cls-1" d="M222.86,108.56c-.43,2.52-3,.75-4.09.82A96.55,96.55,0,0,0,198,113.05c-4.81,1.45-9.11,4.36-13.88,4.9,3.27-2.85,8.34-3.91,12.25-6.12.71.23,2.39-.49,2.45.41C204.84,109.05,213.71,108.67,222.86,108.56Z"/><path class="cls-1" d="M172.66,112.24c-.07-.89,1.44-.19,2-.41C174.77,112.71,173.25,112,172.66,112.24Z"/><path class="cls-1" d="M175.92,113.05c1.24-1.51,1.38,1.24,0,0Z"/><path class="cls-1" d="M228.16,117.13c-1.13,1.32-3.74,1.16-5.71,1.64C223.39,117.26,225.88,117.3,228.16,117.13Z"/><path class="cls-1" d="M85.72,119.58c-1.55-1.2,1.48-1.61,0,0Z"/><path class="cls-1" d="M183.67,127.75c2.39.54-1.47,1.92,0,0Z"/><path class="cls-1" d="M210.61,132.64c2.26.81,1.23,3.59.82,5.72C209.65,137.19,211.63,134.68,210.61,132.64Z"/><path class="cls-1" d="M206.12,134.28a26.22,26.22,0,0,1,4.49,5.71C207.44,140,205.76,136.49,206.12,134.28Z"/><path class="cls-1" d="M186.53,144.07h.82v1.63h-.82Z"/><path class="cls-1" d="M16.75,0H28.18C35.82,1.47,41.28,5.13,47,8.57c.45,2.54,2.85,3.13,4.08,4.9.51,1.67,1,3.32,2.86,3.67,2.46-1.07,3.19-3.88,6.94-3.67,1.86,2.35,4.77,3.66,4.89,7.75-.06.76-1.38.25-1.63.82-1.18,9.78,1.47,19.77,8.16,24.9-.2,3.13,4.68,3.11,3.27,6.12C68.73,47.39,62,39,62.46,28.57c-1.61.25-.48-2.24-.82-3.27.74-.62-.07-2.79,1.64-2.44a5,5,0,0,1-.41-4.49,35.86,35.86,0,0,0-4.08-2.86c-3.38,1.61-5.06,5.86-5.31,9.39-1.62-3.83-4.26-6.63-6.12-10.21-1.08-.82-2.73-1.07-2.45-3.26,1.54-.78,2.19,2.47,2.45.41-1.37-1.28-2-1.13-3.67-.41-2.51-1.58-5-5.34-8.58-4.49A18.81,18.81,0,0,1,39.2,9c1.17.89,3.56,3.35,3.26,4.08-2.9-1.87-6-5.72-9.39-5.71,2.77,2.54,7.16,3.45,7.76,8.16-3.19-3.08-6.12-6.4-10.21-8.57.3,1.11-1.92-.29-1.63.81,2.84,1,5.2,2.42,6.53,4.9-2.93-1.42-4.6-4.1-8.16-4.9,1.1,2.13,4,2.64,5.71,4.49a16.12,16.12,0,0,1,4.08,7.35,7.4,7.4,0,0,1-2.85-4.08c-3.13-1.49-6-8-9.8-6.12,2.77.5,5.69,3,5.72,4.89-1.64-.45-6.38-6.63-7.35-2.44.87.66,1.33-1.1,2.86,0,8.1,4.82,11,17,10.61,29-1.85-7.12-2.64-15.32-4.9-22-2.2-.12-2.21-4.57-4.49-3.26,2.51,2.46,6.32,7.27,4.49,11.43.7.16,1.05-.61,1.23,0-.16,2.87,1,4.47.81,7.34,0,1-1.59.59-1.63,1.64,1.3.24,1.26-.77,2,0-.67,2,1.75,3.11.41,4.48-2.49-1.9-4.56-6.27-8.16-5.71-1,7,5,10.45,6.12,16.73,3.89,1.42,4.19,6.42,8.16,7.76.06,2.48,5.3,3.66,2.45,5.3,3.79-.39,5.32,3.92,9,4.9V71c3-.32,4.65,1.17,4.49,2.85,2.92-2,7.48,3.31,11,2-4.44-1.68-7.68-4.56-12.25-6.12-3.52-4.23-9.31-6.2-11.83-11.43A2.31,2.31,0,0,1,41.64,58c-3.6-5.37-8.13-9.82-10.2-16.73,2.78-.06,4.94.5,5.31,2.86-1.29,0-2.88-2-3.27-.41a2.73,2.73,0,0,1,1.63,3.27c3.12,2.46,4.18,7,7.76,9,.7,2.28,2.92,3.45,4.49,4.9A132,132,0,0,0,63.68,73.46c1.85.2,2.78,1.31,4.49,1.64,0,1.11-.68.82,0,1.63A125.36,125.36,0,0,1,89.4,82.85c1.84-.07,3.73-.2,3.67,1.63-3.36-.07-6.12-1.88-9-1.22-5.48-3.69-14.18-5.37-22-5.72-3.29-.14-6.75-.14-9.79,1.23.59,4.16,6,3.57,8.57,5.71a10.19,10.19,0,0,1-3.27.82c-3.3,3.58-6.82,7.15-9,11.84-.7,1.52-2.22,3.18-1.22,4.89,7.48-1.58,10.79,2.23,17.55,1.64-.88,2.25-3.59,2.66-4.08,5.3,5.26,4.27,14.75.27,20.4-2,0,.5.13,1,.82.82.55-2.85,4-2.85,6.53-3.68,4.19-3.75,11.18-5.49,17.14-7.34,1.81-.57,4.15-.88,5.31-2.45-2.81.06-4.42,1.06-6.13,1.63-4.71,1.59-9.37,2.76-13.87,4.49s-8.46,4.32-13.06,4.49c1.79-.93,3.18-2.26,6.12-2,1.3-2.1,4.22-2.58,6.12-4.08,11-2.12,22.28-7.61,34.29-6.12a5.77,5.77,0,0,1,2.85-1.23c2.35,1.94,5.52-1.3,7.76,1.23-3,.47-7.26,1.52-9,.81.46.09.63.46.81.82-2,.06-4.49,1.75-6.12.81-.07-1.15,2.67.5,2-1.22-4,.13-6.81,1.35-10.61,1.63a18.84,18.84,0,0,1-8.57,3.27c-.77,0-.28,1.35-1.22,1.22-5,1-7.74,4.24-11.84,6.12-2.15,3-5.16,5.19-7.35,8.17,2.34,1.74,5,1.28,6.94.81-4.64,5.41-7.54,15.25-4.9,24.49,2.55-.76,7.29-3.08,10.21-.81,0-.57,0-1.05.41-1.23,2.13-.91,5-.5,6.53-1.63.57-1.47,1-3.08,2.44-3.68.08,1.56.58,2.69,2,2.86,2.31-.09,5.08-2.18,6.12-4.08,1.89-3.45.73-7.65,2.45-11,0,0,.66-.61.81-.82,2.94-4.1,6-4.91,9.8-8.57,10.7-6.44,24.21-10.07,39.18-12.24h3.26c-.3-.92-2.29-.16-3.26-.41-5.79-.47-8.64.31-13.06,1.23-2.43.5-5,.7-6.94,1.22-6.89,1.86-12.5,4.59-18.37,6.53-1.66,1.74-3.29,3.51-6.12,4.08-4.68,5.37-11,9.91-11,18.78-1.15.61-1.88,1.65-3.67,1.63-.81-.55.13-2.85-1.23-2.86-1.2,6.64-10.62,6.7-16.32,6.53.37-2.68-.39-4.73,0-7.75A40.43,40.43,0,0,1,90.21,120c1.36-3.56,4.87-8,7.76-9.39.74,1.92-1.67,2.23-2.45,3.27-.27.35.25,1.27,0,1.63s-1.31.44-1.63.82c-3.69,4.27-4.52,10.3-4.09,16.73,1.55-.41,2.48.7,3.68.82,6.07.58,9.19-3.69,11.83-7.35.9,1,.54,3.27,2.45,3.27,1.72-4.31,2-7.39,4.49-11,2.37-3.39,4.84-6.6,8.57-7.76,5.44-5.48,14.4-9.52,23.67-11.83a79.08,79.08,0,0,1,20-2c.66-1.61-1.76-.15-1.63-1.23-7.86,1-19.63,2.13-29,4.08-1.9.4-3.9,2.53-5.71.41.59-1.21,1.59.54,2.86,0,11.51-4.11,30.05-6.91,43.26-5.31,6.72.82,15.56-.57,18.36,2.86,1.22-.85,3.71-2.09,4.09.41-2.94,0-5.14.5-7.76-.41.64,0,1.42.06,1.23-.81-8-1.17-16.73-.58-24.9-1.23,1.47,2.15,4.56.79,7.35.82,5.36.06,11.92.44,15.91,1.63-2.3-.27-6.44,1.38-6.53-.41-2.34,2.84-6.11,1.74-9.38,2.45-1.31.28-2.48,1.27-3.68,1.63a137.13,137.13,0,0,0-17.14,6.53c-.86,2.14-2.83,3.16-3.67,5.31,2.76,1.81,4.72.47,8.16,0-4.08,4.45-11,10.1-8.57,18.36C151,129.85,155,132,159.19,131c.34,1.71-.8,1.93-.82,3.27,1-.24,2.13.31,3.27,0s5.78-3.85,6.53-4.49c1.18-1,1.7-2.56,2.85-3.68.5-.48,1.51-.35,2-.81,1.53-1.32,2.22-3.38,3.27-4.49-6.56,3.42-12.72,11.31-23.27,6.94-1.82-6.08,4.53-13.5,8.17-13.88-2.95,3.34-6.89,7.31-6.94,12.24,2.1,2.49,4.47-.32,6.53,2,3.31-1.31,5.46-3.79,9.39-4.49,2.13-3,8-6.19,11.83-4.89-.11,2.47-2.27,2.89-4.08,3.67-2,6.47-7.73,11.32-7.75,18.37.52-1.65,1.95-2.41,3.26-3.27-1.38,7-2.51,15.29,3.27,18.37,1.61-1.72,4-1,5.71-2,2.42-1.41,2.59-4.74,5.31-5.72-1.32-1.36.22-1.75.81-3.26v-3.68c3.87-8.94,11.6-16.51,20.41-18.77-1.46,2.62-3.12,5-4.08,8.16.17.8,1.16-.66.81,1.23-.87.77-2,3.42-2.85,2.85.2-4.14,1.83-6.88,3.26-9.79-4.47,2-6,7.09-6.94,12.65,1.18.05.71,1.74,2,1.63,1.76-.14,1.46-2.35,2.86-2.85.16,4.05,3.24,5.2,5.31,7.34,1.34,0,2-.69,3.67-.41-1.19-2.79,1.05-5.53,1.22-8.16.17-2.38-2.07-5.67,1.23-6.94-.51,1.87-1,3,0,4.49,2-.44,3.18-2,2.45-4.08a22,22,0,0,1,15.92-8.16c13.28-1,22.78,4.23,30.2,8.57,2,1.18,4.59,3,6.12,2.86-1.1-.81-2.8-1-2.86-2.86,2.18.68,3.18,2.53,5.31,3.26-2.09-3-5.82-4.32-8.57-6.12-1.09-.7-1.69-2.43-3.27-2a2.27,2.27,0,0,0-.41-1.63,72.16,72.16,0,0,0-13.46-5.71c-3-1-6.38-2.79-9.8-3.27-1.89-.27-4,.51-6.12,0-.6-.15-1-.76-1.63-.82-2.41-.2-4.76,1-6.94-.4-1.5,1.28-3.86.56-5.72.81a64.87,64.87,0,0,0-25.71,9.8c-1.93,1.27-3.61,3.51-6.12,3.26,3.46-2.16,6.84-6,11.43-8.16A81.85,81.85,0,0,1,220,111.42c10.39-1,19,1.06,27.75,2.86,2.76,2.46,8.58,2.37,11.43,5.71-.5.05-1,.12-.82.82,2.13.59,3.2,2.24,5.72,2.45a2.27,2.27,0,0,0,.41,1.63c5.07,1.55,8.07,5.64,11.42,8.57,1.95,1.7,3.79,3.54,5.72,4.49-4.17-5.36-10.22-8.83-14.7-13.88a3.41,3.41,0,0,1-2.44-.41c0-.81,1.11-.52.81-1.63-1.9.75-5.67-.69-5.3-2h3.67c4.18,3.57,8.3,7.21,12.65,10.61A105.43,105.43,0,0,0,264.89,120c-1.23-.93-3.33-2.47-4.89-2,.72.23,1.69.21,2,.82-5.17,1.12-7.16-4.2-12.66-4.08-5.08-3.34-13.85-3.69-20.4-4.49-1.69-.21-4-.51-4.9-1.64,8.29-.39,15.16,2.8,21.63,2.86-3.52-.43-8.42-2.69-11-3.26-12.82-2.85-33.74-2.06-44.48,1.22-4.2,1.28-9.33,2.68-12.66,2.86,14.64-6.76,39.41-9.65,58.37-4.9.77,0,.28-1.35,1.22-1.23.76.75,1.88,1.12,2.45,2,2.6-1.49,2.5,2.09,5.71,1.22a20.68,20.68,0,0,0,8.17,4.08c1.27.91,1.65,2.7,4.08,2.45.43.79.28,2.17,2,1.63-1.16-2.42-4.26-3.19-6.53-4.49-7.7-4.39-16.2-8.57-25.71-10.61-2.36-.5-4.59-1.88-6.94-2.45-5.81-1.4-12.22-2.25-18.37-3.26-10-1.64-21.74-3.31-32.24-3.27-12.74.05-28.42,1.52-39.59,4.49-2,.53-4.52,2.57-6.53.82,10.58-2.2,22.62-5.89,34.69-6.53,4.18-.23,8.65.12,12.65,0,1.49,0,3.28.12,4.49-.82a16.83,16.83,0,0,1-7.75-.81c-3,1.66-7.78.51-11,0-.5.22.3,1.57-1.63,1.22-1.38-.17,1.08-1.58-.82-1.22-3.66.24-7.41-1.21-9.39,1.22,1.91,0,4.88-1.08,6.53.41A268.23,268.23,0,0,0,118,98.36c-4,1-7.62,3-11.43,3.27.16,1.66-1.39,1.6-2,2.44-1.36.44-1.4-.13-2.86.41-1.34.84-2,2.37-4.08,2.45-2.33,2-3.2,5.51-6.53,6.53,4.73-9.28,14.94-13.08,25.3-16.73,0,1.23-2,.39-2,1.63,8.87-2.29,17.59-4.72,27.75-5.71-.1-1.33,1.5-1,2.05-1.64a7.48,7.48,0,0,1-5.31-1.63c-18.08.26-36-3.8-48.57-9.39a75.71,75.71,0,0,1-7.34-3.26c-.29-.17-.62-1.12-.82-1.23-2.07-1.13-4-1.92-6.12-3.26-1.81-1.15-4.68-1.81-5.31-4.08,3.12,2,6,3.6,9,5.3.89.52,1.88,1.57,2.86,2s2.45.29,3.67.82c1.05.46,1.85,1.65,2.86,2,3.56,1.4,11.19,2.2,12.65,4.49,0-.54.11-.91.82-.82,1.63.22,3.56,1.56,5.71,2a160,160,0,0,0,37.55,3.67,221.61,221.61,0,0,1-31-4.08c-11.14-2.52-22-4.67-30.2-10.21C82.66,73,80.37,73,80,71c3,0,5,2.49,7.75,3.67,2.3,1,5.3,1.79,6.94,2.45,7,2.79,14,4.22,22,5.71,5.28,1,10.9,2.51,16.73,2.86,3.94.23,7.4,1.05,10.21-.41-6.06-.16-11.74-.67-17.55-1.22-4.17-.4-7.72-2.73-10.61-2-12.47-3.72-24.88-7.5-34.29-14.28-1.24.29-1.48-.42-2.45-.41-1.57-2.51-5.92-2.24-6.93-5.3C70.41,62,70,60.87,68.58,60.81c-4.45-4.66-10-8.17-13.06-14.28a35.12,35.12,0,0,1,6.12,6.53c2.71,1.78,5.42,3.55,6.94,6.53,4.76,1.08,7,4.72,11,6.53,6.34,3.32,13.75,5.57,19.59,9.38,5.62.55,10.83,3.43,16.33,4.9,5,1.35,10.39,1.69,15.51,2.45,4.45.66,8.77,2.16,13.06.82-4.06-1-7.8,0-11.43-1.64,2.08-2.23,8.87,1.76,11-.81-5.47-.72-10,0-14.29-2,1.87-1.5,4.17.52,6.53.81,2.69.34,5.82-.24,9,.41,1.14.61-.86,1.83.82,1.63-.19-1.28,1.1-1.07,1.22-2-6.47-.06-11.52-1.54-17.14-2.45-.45,1.37-3.67,3.23-4.9,1.23.85-.79,2.8-.47,3.68-1.23a94.09,94.09,0,0,1-19.19-6.93,18.89,18.89,0,0,1-5.3-3.68c12.43,5.66,26.22,12.14,43.67,11.43-12.32-1.14-23.21-3.49-30.61-9-5.33-3.94-9.34-8.42-11.84-14.28-1.11-2.62-1.42-5.43-2.85-8.16.73-1.17,1.07-2.74,2-3.68-.68,10.67,7.66,21.12,14.69,25.71,1.6,1,1.57.61,3.26,1.23,1,.37,1.62,1.6,2.45,2a31.44,31.44,0,0,0,11,3.26C141,76,144.69,78,149,76.73c-3.91-.31-9.38-1.23-10.2-3.27,3.87.64,9.11,3.74,12.65,2-.59-.22-2.11.48-2-.4s1.52-.39,1.63-1.23c-9-.73-17.3-5.49-20.4-13.47-.25-.7-1.94,0-2-.81.25-1.11-.52-3.24.4-3.68,1.37.38.21.76.41,2,1.32,1.54,3.13,2.59,3.27,5.31,5.88,3.65,9.72,9.33,18.77,9.8-1.84-1.9-4.65-1.42-6.94-2.45-.28-.13-.82-1-1.22-1.23-2.05-1.06-3.06-2.12-4.9-2.85-1.88-3-4.31-5.49-5.3-9.39V53.87c-1.57-.47-2.56-1.52-4.9-1.22-6,7.59,2.34,17,8.16,20.41-1.06-2.68-4.75-5-6.12-7.76-.52-1-2-3.21-.41-4.49,1.48,4.92,4.44,8.35,7.76,11.43-1.48,1.22.65,1.55-.41,2.86C133,74,127.79,72.46,124.9,70.61c-.52-.34-.68-.91-1.22-1.23-1.18-.7-2.92-.78-4.08-1.63-.78-.57-1.87-2.31-2.86-3.27-4.8-4.63-8.86-9.87-9-18A4.16,4.16,0,0,0,109,44.08c-.88-1.3-1.52-2.84-3.27-3.27-3.26.82-3,5.2-4.49,7.76-1.29-5.78-5.66-8.49-9.79-11.43-1,.13-1.54.64-2.86.41-.53,2.32-1.2,4.51-1.63,6.94,1.25.68,1.83,4.39.41,5.3-.42-1.62-1-3.11-3.27-2.85-.31,3.16,2,3.76,2,6.53,2,2.45,4.8,4.18,5.71,7.75,1.12,0,.83-.68,1.64,0,2.44,4.22,8.46,4.87,11.42,8.57,4.07.69,6.5,3,9.8,4.49-3.66.21-7.14-3.16-11-4.08-.25-.61-3.62,3.22-4.08,0,1-1.12,1.57-.34,3.26-.41-1.34-2.17-4.19-2.09-6.12-3.26-2.37-1.45-3.8-4.11-6.53-4.9-3-4.61-7.31-10.09-7.34-16.33,1.53-.31,1.95.5,3.26.41C85.71,39.58,87.89,36,91,33.47c.74,2.38,3.21,3.05,4.08,5.3,3.5.44,4,3.94,6.12,5.72,0-2.34-1.17-2.39,0-4.09C100,40.45,98.83,38.92,98,38c-2.55-2.86-2.22-6.12-3.27-10.62A16,16,0,0,0,84.09,43.26c-1.8-.51-.81-3.81-3.67-3.26-2.86,4.41,1,11.4,2.45,15.51,4.29,3.45,6.65,8.86,12.65,10.61a2.27,2.27,0,0,0,.41,1.63c1.38,0,2.84-.13,3.26.82.07,1-.63,1.27-1.22,1.63-3.58-1.76-7.54-2.36-10.61-4.08-1-.56-1.81-1.9-2.86-2.45-.72-.38-1.37,0-2-.41-2.23-1.5-4.56-4-6.94-6.12-9.24-8.27-19-21.41-17.14-35.1-.35-1.46-2.11,1.05-2.45-.41.82-1.35,1.63-2.72,3.67-2.86-.47,1.7.86,1.59.82,2.86-2.61,3.77-.34,11.39,1.22,15.1a32.35,32.35,0,0,0,4.49,7.76c.33.36.52.83.82,1.22C72.64,53.3,82.58,62.91,89.8,65.3c-8.39-4.61-14.56-18-10.2-30.2,1.34.35,1.93,3,3.27,2,1.39-5.48,11.24-14,14.69-9.39-1.5,6.41,1.4,9.74,5.3,11.84.12.71-1.14,2,0,2.45.34-3.79,7.73-3.57,9-.82-.42,4.46-1.71,7.6-.4,11.43,2.87,8.39,10.23,15.64,17.95,17.55.8.18,1.48,2.56,2.45,1.22-1.27-1.37-4.42-3.55-6.12-6.53-4.36-7.61,1-19.63,9-12.24v3.67c1.62,2.52,2.61,6.07,4.49,7.76.84.75,2.68,1.42,4.08,2.45,3.55,2.6,6.4,5.53,12.24,4.89.85-1,2.07-1.74,2.86-2.85-2.59-1.76-5.08-3.63-6.53-6.53,3.61-2.1,9.1-2.34,13.47-3.68-3.79-1.1-5.67-4.41-8.16-6.94A68.17,68.17,0,0,1,151,44.89c-2.79-5.37-6.87-11.63-6.53-18.77,2.08,6.17,4.14,13.41,7.76,17.55a57.35,57.35,0,0,0,4.49,4.49c.38.35,0,1.26.41,1.63,1.9,2,5,3.76,6.93,5.31a25.27,25.27,0,0,1,2,1.63c2.77,1.2,6,3.28,9.38,4.08,1.24.29,2.91-.78,3.68.82a3.69,3.69,0,0,1-1.64,1.63c-4.74-.47-10.84-1.92-13.87,1.63,2.56.7,6.3.53,7.34,1.64-5.07,1.59-7.87,5.46-12.24,7.75-.7,2.3-2.61,5.54-1.63,8.16,3.69.53,8.7.08,13.46-.41,3.08-1.28,5.64-5.24,9.39-4.49-1.67,2.46-5.5,4.79-4.08,9,4.14-.31,7.13-4.66,11.84-6.93a32.38,32.38,0,0,1,13.46-2.86c2.42,0,12.71,1.9,7.76,3.26,3.87.08,5.79,2.11,7.75,4.09,0,.4.33.48.41.81-.44,4.73-4.81,5.53-8.57,6.94a4,4,0,0,1,1.23-2.45c3.27.07,5.55-1.85,4.89-4.49-2.27-.37-.93,2.88-2.45,3.27-3.73-.83-10.79-.52-11.83-2.86-1.32-.5-.31,1.32-1.63.82-.45-1.05-.29-2.72-2.45-2-1.13.41,1.87.7.41,1.63-3.13-1-6-2-7.76.41,7.09.54,13,2.85,19.18,5.3-5.07-1.07-11.4-1.84-17.14-2.45-1.37-.14-4.42-2-4.9.41,6.77.85,14.53,1.43,20.41,2.45,15.28,2.64,28.14,8.94,40,13.06C235.61,99.61,224.21,94.83,211,91.83c5-2.74,10.19.89,15.92,3.26,12,5,26.37,11.47,33.87,17.55.54.45,1.22.44,1.23,1.64-1.83.45-2.52-2.35-3.68-1.23,1.74.58,2.67,2,4.08,2.86a1.8,1.8,0,0,1,.82-1.63c1.21,1.79,3.26,2.28,4.9,3.67,6.59,5.62,13.08,13.34,18,20,.54.74.81,3.08,2.45,2.45-1-.51-1.32-1.67-1.64-2.86-2.69-2.34-4.55-5.51-6.53-8.57a15.13,15.13,0,0,1-5.71-6.53c-2.65-.76-3.46-3.34-6.12-4.08-.68-2.59-3.91-2.63-4.49-5.31-1.27-.37-2.56-.71-3.27-1.63.05-1,.78-1.28-.41-1.63,0,.64.06,1.41-.81,1.22-1.09-1.08.13-1.94.41-2.85-1.45-.23-1,1.44-2.45,1.22.38-2.52-1.31-.6-2-1.63.07-1.16-.35-2.8.81-2.86,2.95.75,5.56,2.54,5.72,4.9h2c6.11,5.44,11.85,11.27,17.55,17.14-.07,1.52,1.56,2.58,2.45,3.67s1.77,3.09,2.85,2.86c-16.74-24.35-41.84-40.33-69-54.28,4.12.34,7.49,3,11,4.9s7.45,3.68,11,5.71a160,160,0,0,1,22.44,15.51c.87.73,1.65,1,2.45,1.63,11.18,9.06,19.68,20.17,27.35,32.24-.41-2.72-2.85-3.41-2.86-6.53-.54-.41-1.52-.38-1.63-1.22-4.69-8.5-11.61-14.79-17.55-22-1.12-.38-1.74-1.25-2.86-1.63-.36-.72-1-1.19-1.22-2-8.09-4.84-13.86-12-23.27-15.51-3-4.16-9.21-5.21-13.06-8.57-1.28.2-1.44-.74-2.85-.41-1.19-2.08-4.91-1.63-6.13-3.68-8.86-2.15-15.2-6.83-23.26-9.79-7.32-5.28-16.46-11-22.45-17.14-.34-.35-.06-1.28-.4-1.63-1-1.08-2.58-2.1-3.68-3.27-.92-1-3-1.85-2.45-3.67,4.32,4.14,8.83,8.64,13.06,12.24,1,.82,1.48,2,2.45,2.86s2.58,1.2,3.68,2a98.86,98.86,0,0,0,14.69,9.39c12.88,6.61,26.61,10.22,38.36,18a3.33,3.33,0,0,0,2.45.82c1,1.75,2.63,2.81,5.31,2.86,1.11,2.15,3.56,3,5.71,4.08.84.38.35,2.1,1.63,2,.87.46,1.19.16,2.45.82,7.15,7,15.43,13.34,22,21.22a117.54,117.54,0,0,1,14.7,22.85c.57,1.15,1.08,3.58,2,2.86-6.62-16.92-18.37-28.71-29.8-40.81,10.45,8.19,18.79,18.48,26.12,29.79-4.62-11.16-13.76-17.79-20.4-26.94a111.66,111.66,0,0,1,11.83,11.43c1.1,1.22,1.82,3.49,3.68,3.27-5.59-5.75-10.69-12.66-17.15-17.14-1.38-1-3.11-1.3-4.08-2.86-.39-.76,1.22-1.37,0-1.63.05.73-.4.95-1.22.81-1.85-1.28-4-2.26-5.31-4.08,3.34.33,4.3,4.59,7.76,2.45,1.24,2.22,4.9,2.57,4.49,5.31,3.72,2,6.13,5.29,9,8.16,1.63-.46-1-1.78-1.64-2.45-1.07-1.11-1.93-2.38-2.85-2.86-.79-2.88-3.65-3.7-4.49-6.53-1.6.11-1.52-1.47-3.27-1.22-1.25-3.65-5.68-4.12-7.35-7.35-5.41-2.2-10.65-8.12-15.91-11.83-4-4.35-10-9.31-13.06-15.51-1.31-2.64-2.93-6.27-3.27-9.39-.21-2,.83-5-.41-6.53.26-1,1.78-.67,1.23-2.45-1.91-1.81-5.25-4.21-8.57-3.26-.17,2.15-3.68,3.1-2,5.71.69-2.57,2.65-3.88,5.71-4.08a3.49,3.49,0,0,1,1.63,2.86c-.44,1.32-1.41,2.12-1.63,3.67,1.31,2.34.49,5,1.23,7.34.41,1.32,2,2.6,2.85,4.09s1.51,3,2.45,4.49c2.81,4.36,4.91,8,8.57,9.79,3.48,5.23,9.43,8,13.47,12.65,1.63-.4,1.23,1.22,2.86.82,2.28,3.71,7.56,4.41,9.38,8.57-1.29-1.15-3.69-1.21-4.08-3.27-1.9.54-1.36-1.35-3.26-.81-3.41-3.53-8.55-6.79-12.25-9.8-4.75-3.86-7.85-7.57-11.83-12.24-5.26-6.16-10.59-11.48-10.61-21.63,0-1.48,1.58-2.75,0-4.49-3.9-.23-3.32,4-5.31,5.71-2.25-1.47-2.18,1.18-3.67,1.64,0-2.22,1.79-2.57,2.45-4.09-1.8-7.59-8.63-10.15-13.47-14.69-2.35,4.07-.65,9.14.81,13.88-2.6-.39-4.05-1.93-6.12-2.86a23.61,23.61,0,0,0,3.27,6.94,94.24,94.24,0,0,0,9,11,86.34,86.34,0,0,0,8.57,7.75c1.46,1.18,3.74,2.26,3.67,3.68-11.79-4.95-23.66-9.81-32.24-18V55.91c-2.93-1.24-4.7-4.27-6.53-6.93-2.54-3.71-5.59-7.48-6.53-12.25-1.56-.19-1,3-2.45,1.63a71.44,71.44,0,0,0-8.57-14.69,72,72,0,0,0-9.39-3.26c0,.64.06,1.41-.82,1.22.08-1.17,0-2.23-1.22-2-2.63,7-.74,11.47-.41,18-1.64.28-1-1.72-2.45-1.63,3.08,8.62,9.42,14,15.51,19.59a9.35,9.35,0,0,1,5.72,3.67c-11.5-5-20.79-14.31-23.68-26.53,2.22,0,2.21,2.14,3.68,2.86C153,30.19,153.22,21.78,156.33,18c5.29.56,8.54,3.15,13.06,4.49.23,2.22,2.16,2.73,2.86,4.49.7.92-.16,3.42,1.22,3.67,1.59-9.42-7.53-11.47-11.83-16.33a5,5,0,0,1-.82-3.67c-1.53,0-1.16.46-2.45,0-4,3.2-6,8.41-8.16,13.47.68,1.35,1.46,5.86.81,6.12-.69-2.16-3.46-2.24-4.08-4.49-1.13-.23-2.76,0-2.45-1.63,1.42-1.78,3.35,1.51,4.49,0C149.9,17,154.17,9.68,162,8.16c.34,1.43,1.08,2.46,1.23,4.08,3.94,4.9,9.62,8.07,13.88,12.66,1,1,1.76-.31,3.26,0,1.2,1.1,3.32,1.3,4.49,2.44-2.22,14,7,22.71,14.28,29.8-3.27-6-7.39-11.1-6.53-21.22,3.67-.77,4,.66,6.94,1.22.58-5,2.91-8,6.12-9.8,2-1.13,4-3.14,5.72-2.85.19,4.44,2,7.24,3.26,10.61,3.6.75,5.07,3.64,6.94,6.12,5.93-1.77,10.66,1.61,12.25,6.53,0,1.53-1.5,1.5-1.64,2.86-.83,9.54,5.73,14.11,9,20.81,3.51,1.32,4.82,5,7.35,7.35,1.16,1.06,3,1.63,4.49,2.86s2.34,2.9,3.67,4.08c.39.34,1.2.11,1.63.41,1.26.88,1,2.27,2.86,2,1.64,2.68,4.33,4,6.53,5.71a69.34,69.34,0,0,1,9,8.16c8.3,9.14,14.75,17.47,20,28.57,2.45,5.2,4.24,11.65,6.12,16.74-.32,1.81.54,2.45.41,4.08,2.26-.22,2.7,1.37,4.08,2v4.9c-1.56,3.14-4.63,7.56-9.39,8.16-3.62.46-10-.26-11-2-.59-1.58-.62-3.74-1.22-5.31.25-1.52,2-1.5,2-3.26a44.89,44.89,0,0,0-4.08-4.08,57.31,57.31,0,0,0-7.35-10.21c-3.25-3.54-7.88-6.9-11.83-9.79a56.46,56.46,0,0,0-9-5.31c-1.53-.59-3.55-.57-5.31-1.22-1.53-.57-3-1.71-4.49-2-5.57-1.28-12.4-.58-18.36,1.22-1.26.3-.79-1.12-2-.82,1.06,2.71-2.92,3.13-4.08,4.9-.41,2.31-1.1,4.34-1.63,6.53-4.33.94-5.44,5-3.67,9-2.91,1.48-7,1.8-9.8.41-2.27-1.12-2.37-3.54-4.08-4.49-.83.53-.74,2-2.45,1.63-.26-1.78-1.37-2.71-2-4.08-4.8,6.25,1.34,16.44-5.71,20.41-1.52.43-.65-1.53-2-1.23a3.75,3.75,0,0,1-2,2.86c-3.95.64-4.46,4.44-7.76,4.9s-4.49-1.19-6.53-2.86a23.47,23.47,0,0,1-7.34-11c-2-.41-1.56,1.71-3.68,1.23-1.75-6.34.57-12.51,2.45-17.55-2.9.9-6.32,3-9.79,2-.61-1.37,3-1.63.81-2-2-.83-4.57-.46-7.34-.41-1.79-.1-2,2.9-3.68,1.63-.7-6.45,2.65-12.94,5.72-18a12.17,12.17,0,0,1-4.9-3.26c2.84-8,12.89-8.87,19.59-13.06-9.7.24-21.93,3.17-29.39,7.34-1.63.92-3.36,2.34-4.89,3.27-2.46,1.49-5,2.89-6.53,4.49-.49.5-1.16.77-1.64,1.22-5.09,4.84-6.37,11.49-9,18.78-3.12-.32-4.67,2.56-8.16.81-1.7.34-3.17,2.22-5.3,2.86-3.8,1.13-8.6.85-11.84,1.63-1.44.47-1.27,2.54-3.67,2-2.41-4.28-2.91-11.59-1.64-17.55.77-3.58,3.31-6.15,3.68-9-1,.86-5.66.56-7.76,0,2.43-4.64,6.78-7.36,10.21-11-9,2.57-19.76,10.55-30.61,5.72C58.37,109,61,107,60.42,105.3c-1.58.75-4.26,0-5.31-.41-1.65-.73,0-.32-2.45,0-2.78.36-4.57-.17-6.93.41-.62-9.91,4.76-13.37,8.16-18.78.39-.61-.39-2,1.22-1.63,0-1.51-2.53-.45-2.45-2-.29-1.88-2.39-2-2.44-4.08,1.33-2.2,8-1.28,7.75-3.67-5.18.27-8.5-4.83-13.47-6.13-2.18-2.45-4.64-4.6-6.94-6.93A94.59,94.59,0,0,1,31,54.28c-2.26-7-8.42-12.25-7.34-21.22,2.24-1.59,5,1.32,6.53.41-.1-7.45-1.6-17.84-9.8-19.59a19.81,19.81,0,0,1-3.67,5.3c-3.83,1.06-8.19,2.87-9.8,4.9-.57,1.08-.39,2.47,0,4.08,1.32,1.14,4.44,1.7,2.86,4.49C9,32,7.1,32.37,6.14,31.83c-2.5-2.6-5.06-4-5.72-7.75C-2,10.17,6.38,2,16.75,0ZM88.58,104.89c1.3-.35,1.55.36,2,.82.09-.77-.46-.9-.41-1.64C89.49,104.17,88.17,103.66,88.58,104.89Zm91,54.69c.51.69,2.28,2.2,2.86.41-1,.26-2.1.82-2-.82a25.07,25.07,0,0,0,9.39-6.53c1-.06,1.26.64,2,.82-.07-1,.62-1.28,1.22-1.63-1-6.18,1-15.09,3.68-19.19,1.29-2,5.27-3.58,3.67-5.71-1.57,2.92-4.21,4.77-6.53,6.94-2.27,4.81-4.66,9.49-4.9,16.32-2.84,4.1-8.6,5.28-13.06,7.76-4.45-2.79-6.85-9.75-4.49-15.92-1.68-.43-2.52,2.07-3.26,1.22.16-9.22,4.5-14.26,8.57-19.59-3.2.69-4.28,2.88-6.53,5.72-3.63,4.57-7.2,10.89-7.35,18.36,2.5,1.29,2.89-2,4.9-2.44-1,8.43,4.79,13.37,9.79,17.14C178.34,161.59,178.84,160.46,179.59,159.58Zm76.32-40.41c.33.37,2.51,1.81,2.45,0C257.19,119.74,256.29,118.06,255.91,119.17Zm6.53,2.45h.82c.25,0,.48-.06.41-.4-.34-.3-2.64-1.28-1.63-.41C262.35,120.9,262.51,121.15,262.44,121.62ZM25.32,1.22C16.31.67,8.77,5.12,4.5,9.39c-.25,2.47-1.74,3.7-2.85,5.3.44,5.75-.14,12,4.49,14.29-.16-1.34-1.2-1.8-1.64-2.86,1.58-6.94,8.73-6,12.66-10.2,1.17-5.63,6.41-7.2,10.2-10.21,2.54,0,5.61-1.54,9-.81,1.35.29,2.41,1.23,3.67,1.63C36.78,2.92,31,1.58,25.32,1.22ZM44.5,9.39c1-1-1.34-1.06-1.22-.41C43.27,9,44.66,9.23,44.5,9.39Zm7.76,11c.84-3.16-2.74-5.42-4.49-7.35.09.32,0,.8.4.82C50.2,15.5,50.56,18.77,52.26,20.41ZM206.12,65.3c-3-2-6.64-5.57-9-7.75-6.34-5.93-15.76-16.8-14.69-27.76-1.54-1.7-2.93-2.92-6.12-2-.13,2.92-1.14,6.85.82,8.57.88-.87-1.17-5,.81-5.71,3,14.44,12.54,22.28,21.22,31,4,1.46,6,4.85,10.62,5.71C209.17,66,207.37,66.13,206.12,65.3Zm.82-38c-3.68,3.53-7.93,9.72-5.72,15.51-3.12-1-3.18-5-6.93-5.3-1.39,6.29,2.17,12.33,4.89,16.73a58.91,58.91,0,0,0,7.76,9.8c2.69.44,3.42,2.83,6.12,3.26.1-1.59-1.52-1.48-2.45-2-5.4-5.88-10.44-12.14-12.65-21.22a4.88,4.88,0,0,1,4.9,1.63c-1.26-5.53-.42-10.44,2.45-13.47,1.86,1.4,2,3.38,3.67,4.9s4.87,2.07,6.53,3.67c1.3,1.25.87,3.18,2.86,3.68-.3-7.73-8.92-7.14-8.17-15.92C208.87,28.41,208.35,27.43,206.94,27.34ZM31.85,33.47c.11-.56-.25-1.6-.41-.82C31.33,33.21,31.69,34.24,31.85,33.47ZM31,35.1h.82v-.82H31Zm168.15,3.26c-.52,0-.56-.52-1.22-.4C197.33,39,199.35,39.16,199.18,38.36Zm-28.57,22c-5.85-1.06-12,.31-16.73,2,1.46,3.17,6.16,3.1,9,4.9-3.3,1.46-4.56,5-8.16,6.12-1.19,6.57-6.25,9.26-9.8,13.47,1.26.31.5-1.41,2-.81,8.31,3.67,16.43,2.38,24.49-.41-.78,1.45-2.24,1.83-1.22,4.08,2.92-.08,5.31,1.09,7.75.82,5.2-.59,7.5-5,11.84-7.76,5.84-3.67,11.28-3.24,18.77-3.67-6.64-1.43-13.92-1.45-19.18,1.22-2.29,1.17-4.26,3.82-6.53,5.31-2.54,1.66-5.31,2.86-8.57,2.45.32-2.1-.86-2.68-.82-4.49.37-1.4,1.91-1.63,2-3.27-4.4,3.08-9.79,5.17-18,4.49-1.25-.3-.78,1.12-2,.82-2.06-9.42,5.29-15.73,12.25-18.78-2.45-.27-5-.4-5.72-2.45,2.21-3.49,8.11-3.32,12.25-2.85C174,59.74,171.8,60.62,170.61,60.4ZM59.19,75.91a1.3,1.3,0,0,0,2-.41A1.31,1.31,0,0,0,59.19,75.91ZM149,78.77c.53,0,.57.52,1.23.41a1.14,1.14,0,0,0-.82-1.23C149.39,78.36,149.06,78.44,149,78.77ZM176.33,80h.82v-.81h-.82Zm24.49,1.64a2,2,0,0,0,2-.82C201.85,80.75,200.88,80.73,200.82,81.63Zm7.34-.82c-2,.54-.63,1.93,0,0ZM200,83.67c1.25,1.48,8.12,3,11.84,2C207.23,85.93,204,82.71,200,83.67Zm11,.81c.61.65,1.82.46,1.63-.81A1.79,1.79,0,0,0,211,84.48ZM56.34,85.3c1.11-.66-.6-1.37-.82-.41C55.93,84.89,56,85.22,56.34,85.3Zm88.15,4.49c-.55-.13-.78-.58-1.63-.41-.55.13-.78.58-1.63.41-1.3.56,1.6.56,1.63,0,1.25.75,4.2.29,4.9-.82C146.29,88.86,145.79,89.73,144.49,89.79Zm9-.41a2.66,2.66,0,0,0-2-.41C150.8,90.21,153.54,90.05,153.47,89.38Zm8.17.41c-.78.09-.9-.46-1.64-.41C159.35,90.52,161.77,90.51,161.64,89.79ZM183.27,91c1.79-.16,6,1.14,6.12,0a4.54,4.54,0,0,1-4.49-1.63C185.29,90.86,183.07,89.72,183.27,91Zm-19.19-1.22c-2.61-.47-.89,1.25,0,0Zm19.19,2.45c-1.37-1-1.7-2-3.27-1.23-.84,1.28.28.54,1.23.41.55.28-.36,1.24.81,1.63,1.67.09,3.21-.11,4.9,0,2,.14,3.73,1,5.71,1.23s4.11-.31,6.13,0c6.49,1,13.47,2.68,20,2.86C207.71,94.73,196.7,92.27,183.27,92.24ZM220,95.91c-2.72-.83-7.42-1.83-9.8-1.63C213.23,94.79,217.45,96.28,220,95.91Zm33.87,15.92c1.33.78,2.49,3.16,4.49,2-5.87-3.65-12.57-6.47-18.36-10.2-7.07-1.51-13.48-5.84-20.82-5.72C231.74,101.57,243.79,105.87,253.87,111.83ZM174.29,98.77c.59-.23,2.11.48,2-.41C175.81,97.8,174.33,97.73,174.29,98.77Zm-7.76,2c1-.34,3.52.79,3.27-.82C168.56,100.12,166.62,99.54,166.53,100.81ZM271,102c.36-1.31-1.34-.57-1.64-1.22C269.26,101.88,270,102.15,271,102Zm-21.64,4.9c.31-.9-1.5-1.68-1.63-.82C248.36,106.33,248.78,106.72,249.38,106.93Zm6.53,3.67c-1.89-.43-3.45-3.33-5.3-2.44C252.44,108.65,254.18,111.37,255.91,110.6ZM131,109.79a1.13,1.13,0,0,0,1.22-.82C131.61,109,130.83,108.92,131,109.79Zm126.93,2c-.55.06-1.52-1.37-1.64-.41C256.87,111.36,257.55,113.08,258,111.83Zm4.48,4.49c-1.83.45-2.37-2.5-3.67-1.23C260,115.42,261.79,118,262.44,116.32ZM84.09,115.5a2.62,2.62,0,0,1-2-.41C81.83,116.56,84.23,117.52,84.09,115.5ZM118.78,118c1.15.42,2.84-.64,1.63-1.22C120.59,117.85,118.89,117.11,118.78,118Zm146.52,1.22c0-.64,1-.32.82-1.22C265.28,117.59,264.29,119,265.3,119.17Zm.41.82c2.07.65,2.67,2.77,4.9,3.27-.42-2.31-3.11-2.34-3.68-4.49C267.06,119.71,265.75,119.22,265.71,120Zm24.49,4.08a2.9,2.9,0,0,0-1.63-2.45A2.85,2.85,0,0,0,290.2,124.07Zm-17.55.41c-.55.06-1.23-1.66-1.63-.41C271.56,124,272.25,125.73,272.65,124.48Zm19.18,1.23c-.84-.12-.38-1.53-1.22-1.64C290.25,125.15,291.6,126.55,291.83,125.71Zm-16.33,2c.08-.9-.33-1.3-1.22-1.23C274,127.62,275.12,127.31,275.5,127.75Zm18.37,2c0-1.41-1.42-3.45-2-2.86C292.79,127.6,293,129,293.87,129.79Zm-18-2c.55,2,1.93.63,0,0Zm4.49,4.08c-.47-1-1.71-1.29-2.45-2C276.7,128,279.28,133.44,280.4,131.83Zm-1.63.4c-.59-.63-1-1.42-2-1.63C276.73,131.59,278.16,133.21,278.77,132.23Zm16.73.41c0-1-.07-2.1-1.22-2C294.42,131.55,294.7,132.36,295.5,132.64Zm-24.89.82h.81c.25,0,.49-.06.41-.41-.58-.1-.69-.67-1.22-.82Zm10.61,2.45c-.47-.65-1.27-3-2-2C280.25,134.15,280,135.73,281.22,135.91Zm13.47-1.23a1.13,1.13,0,0,0-.82-1.22A1.13,1.13,0,0,0,294.69,134.68ZM276.32,138c-.28-1.61-3.76-4-3.67-3.27A18.8,18.8,0,0,0,276.32,138Zm2.45.41c-.34-2-2.86-3.93-4.08-3.68C276.19,135.77,277.33,137.21,278.77,138.36Zm8.57-3.68c.48,2.51,2,1,0,0Zm8.57,2.45c-.13-.95-.42-1.76-1.22-2C294.49,136.37,295.2,136.76,295.91,137.13Zm-13.06.82c.63,1.16,2-.8.82-1.23C283.79,137.53,283.12,137.53,282.85,138Zm13.88,1.22c.11-.93-.1-1.53-.82-1.63C295.8,138.47,296,139.08,296.73,139.17Zm-6.53,0c1.86,3.22-1.24-2.14,0,0Zm-9.39.82c-.48-.12-1-2.16-1.63-.82C279.57,139.39,280.53,141,280.81,140Zm2.86.41c-.79-.17-.32-1.58-1.63-1.23C281.73,140.21,283.59,141.09,283.67,140.4Zm2,3.67c.56.16,1.15,2.32,1.63,1.23-1.95-.75.58-1.49,0-3.27-2.11.07-1.13-2.95-3.26-2.86C284.28,141,287.92,142.4,285.71,144.07Zm8.16-2.86c-.54,0-.37-.71-.82-.81C292.59,141.23,293.7,142.34,293.87,141.21Zm-9.39,4.09c-.69-1.37-2.18-4.07-3.26-3.68C282.46,142.7,283,144.51,284.48,145.3Zm6.94.81c-.28-2.3-1.64-3.53-2.85-4.9A16.44,16.44,0,0,0,291.42,146.11Zm3.68-1.63a1.14,1.14,0,0,0-.82-1.23A1.12,1.12,0,0,0,295.1,144.48Zm-5.31,2.45c-.61-1-1-2.25-2-2.86C287.85,145.35,289.41,147.28,289.79,146.93Zm-.41,5.71c-1.69-1.58-2.5-6.2-4.49-6.12C286.85,147.83,287.33,152.78,289.38,152.64Zm-5.3-4.49c.27,1.11-.54-2.14,0,0Zm5.71,1.23c-.84-.11-.1-1.81-1.22-1.64C288.21,148.83,289.56,150.22,289.79,149.38Zm3.26-1.23c-1.65-1.43-1,1.31,0,0Zm-6.53,4.08c.06-1,.08-2-.81-2C285.65,151.21,285.63,152.17,286.52,152.23Zm7.76,12.25c1.74.11,2.44-.82,3.67-1.23-1.18-.35-.46-.61-.41-1.63,3.28-1.21,6.38-2.6,7.35-6.12a5.7,5.7,0,0,0-2-2c-3,2.84-7.73,7.42-13.47,4.9-.09.31-.34.47-.81.4-1.52,2.49.77,4.29,2.85,4.49-.17.78-1.16.74-.81,2,1,.17.88-.74,2-.4.22-.6-.48-2.11.4-2,1.76.49,3.14-1.73,3.68,0C296.76,164.24,294.24,163.08,294.28,164.48Zm-.41-7.35h.82v-.82h-.82Zm6.94,4.49c-2.1,1,1.4,1.06,0,0Z"/><path class="cls-1" d="M266.93,128.56c-2.86-.13-6.43-3.09-9-4.9-6.3-2.41-17-6.74-27.76-4.89a31.72,31.72,0,0,0-9,3.26c-1.88,1.1-5.34,3.47-4.49,5.31-.47-.07-.34-.75-.4-1.23-2.9.92-3.23,4.4-5.72,5.72,2.87-8.42,11.14-11.45,19.18-14.7a63.66,63.66,0,0,1,16.33,1.64c-.74-1.29-3.51-1.22-5.71-1.64a71.84,71.84,0,0,0-18.78-1.22c-2.76.25-5.75,1.4-8.57,2-4.31,1-7.14,1.58-10.61,3.67-.6.36-.6,1.16-1.23,1.64-.83.64-3.15,1.35-4.08,2-3.48,2.59-5.95,6.4-8.16,9.79,1.61-7,6.7-10.35,13.47-14.28,7.24-4.21,16.64-6.83,29-6.12a63.26,63.26,0,0,1,15.51,2.44c1.72.57,2.63,2.31,4.89,1.64.25.36.5.73,0,.81-.3.48,5.41-.26,4.9,2.86,1.29-.56,1.37-.09,2.86,0C260.78,125.73,264.7,126.31,266.93,128.56Z"/><path class="cls-1" d="M57.56,38c1.75.56,2.19,2.43,3.27,3.67A7.43,7.43,0,0,1,57.56,38Z"/><path class="cls-1" d="M217.55,57.14c6.46,8.78,14.47,16,22,23.67,3.52.7,4.32,4.12,7.35,5.31-.11.51-.82.41-.82,0-1.36.38-2.7-2.2-3.67-2.86-.62-.41-1.77-.29-2.45-.82-1.6-1.23-3-3-4.9-4.49-2.37-1.9-5.37-5-7.75-7.34-3-3.06-6.16-5.87-8.58-9.8C218.2,59.88,216.83,58.4,217.55,57.14Z"/><path class="cls-1" d="M103.68,74.69c8,2.17,18.57,5.86,28.57,6.12-1.38,3-4.93.5-7.35,0-3.68-.75-7.89-1-11.42-2-1.84-.54-5.69-2.37-8.17-3.27C104.69,75.28,103.53,76.23,103.68,74.69Z"/><path class="cls-1" d="M208.16,100.81c0-1,1.75-.43,1.23-2,1.41.36,2.68.86,3.26,2,.79-1.19,3.7-1.08,3.68.82A49,49,0,0,0,208.16,100.81Z"/><path class="cls-1" d="M221.22,118.36c-1.89,2.32-5.61,2.82-8.16,4.49C214,121.19,217.74,118.83,221.22,118.36Z"/><path class="cls-1" d="M232.65,91c-.24,1.53-.49,3-2,3.27-.33-1.42.61-1.57.41-2.86,0-1-1.52-1-2-.41,2.24.59.33,2.24-.41,3.27-2.06-.66.31-3.93-.82-4.9-.92,1.77-2.46,4.28-5.3,2.86.23-1,1.54-.91,2.45-1.23-1.41-.85.1-2.09-.82-3.26-1.21,1.1-1.4,3.22-3.27,3.67-1-1,.19-4.26-.81-5.3-1.18,1.54-1.09,4.35-4.49,3.67,1.47-1.52,1.87-4.11,2.86-6.12,1.65-.16,2.84.15,2.85,1.63.33-.35,1.12-.24,1.23-.82,1.28.29.53,1.09.41,2,1.09.29.78-.84,1.22-1.22,1.36.11,2.65,1.64,1.63,2.86,1.07.11,1.76-.15,1.64-1.23,1.37.49,3.42.75,2.44,2.45a1.12,1.12,0,0,0,1.23-.82C232,88.94,230.77,91.53,232.65,91Z"/></g></g></svg>