<svg xmlns="http://www.w3.org/2000/svg" viewBox="0 0 213.51 215.12"><defs><style>.cls-1{fill:#58595b;fill-rule:evenodd;}</style></defs><title>floron04</title><g id="Capa_2"><g id="acanthus"><path class="cls-1" d="M107.86,0h2.85c-1.72.52-3,1.43-3.1,3.62-.79.18-.76-.45-1.55-.26C106.71,2.29,107,.85,107.86,0Z"/><path class="cls-1" d="M113.81,0h.77c1.11,1.91,4.82,1.2,5.17,3.88-1,.84-1.31-1.27-2.07-1.56-1.38.1-1.87-.71-2.84-1C113.17,1,111.63,2.61,111,1,112.4,1.13,113.45,1.42,113.81,0Z"/><path class="cls-1" d="M105.54,2.58c-.89.21-1.09-.28-1.55-.51a9.45,9.45,0,0,0-2.84,8.26c.22,2.1,1.73,5-1,5.94.14-3.69-2.94-9.68-7.75-9-1,2.29-3.24,4.48-3.1,7.49,0,1.1,1.21,1.68.51,2.84a7.57,7.57,0,0,0-4.13-3.87c.24-1.4,1.77-.44,2.07.26,1.25-.73,1-2.94,1.55-4.39,1.67-.66,1.62-3,3.1-3.88,4.29.45,5.86,3.62,8.26,5.94A15.38,15.38,0,0,1,102.7.77C104,1,105.26,1.31,105.54,2.58Z"/><path class="cls-1" d="M113.29,4.39c1.26-.14.62,1.62.77,2.58C112.8,7.12,113.45,5.35,113.29,4.39Z"/><path class="cls-1" d="M115.1,4.39c1.19.09.13,1.67.26,2.33C114.72,6.49,114.66,4.91,115.1,4.39Z"/><path class="cls-1" d="M125.69,4.39c.32,2.05,1.09,5.18-.26,6.72-.24-1.56.5-5-1.29-5.69-1,0-.56,1.34-1.55,1.3-.18-1,.44-1.11.26-2.07C124,4.8,124.45,4.19,125.69,4.39Z"/><path class="cls-1" d="M119.23,5.17v.51C118,5.94,118.75,4.31,119.23,5.17Z"/><path class="cls-1" d="M109.93,5.17c.77.43.75,1.66.78,2.84A2.17,2.17,0,0,1,109.93,5.17Z"/><path class="cls-1" d="M112.26,5.42c.93-.24.36,1,.51,1.55C111.84,7.22,112.41,6,112.26,5.42Z"/><path class="cls-1" d="M119,5.94c.35.08.22.65.26,1C118.63,6.9,118.64,6.28,119,5.94Z"/><path class="cls-1" d="M108.64,6.2c.68.55.69,2.17.52,2.84A4.57,4.57,0,0,1,108.64,6.2Z"/><path class="cls-1" d="M107.61,7c.86.14.58,2.33.25,2.85C106.91,9.59,107.41,7.63,107.61,7Z"/><path class="cls-1" d="M93.92,7.75c.11.23.22.46.51.52C93.26,11,91.22,12.81,90.56,16c-.54-.48-.42-2.17-.26-2.85s.71-.54,1-1.29c.12-.27-.15-.78,0-1s.8-.43,1-.78C93,9.21,92.87,7.63,93.92,7.75Z"/><path class="cls-1" d="M106.57,8.52c.21.05.26.26.52.26,0,.21-.26.26-.26.52-.21-.05-.26-.26-.52-.26C106.36,8.83,106.57,8.78,106.57,8.52Z"/><path class="cls-1" d="M110.45,8.78c.67-.07,1.11.1,1,.78-.46,0-.54.31-1,.26Z"/><path class="cls-1" d="M106.83,10.07c1.2.18.84,3,.78,3.62C107.1,12.82,106.46,11,106.83,10.07Z"/><path class="cls-1" d="M109.41,10.07c1-.23.47,1.37.26,1.55C109.3,11.28,109,10.48,109.41,10.07Z"/><path class="cls-1" d="M137.05,10.07c.93.73,1.07,3.45.26,4.4a4.84,4.84,0,0,1,0-2.59c-.44-.84-1.45-.35-2.32-.26C135,10.44,136.5,10.73,137.05,10.07Z"/><path class="cls-1" d="M86.68,15c1.26,1.13.19,4,1,5.94a7.64,7.64,0,0,1-1.55-3.36A3.68,3.68,0,0,1,86.68,15Z"/><path class="cls-1" d="M122.33,16A124.48,124.48,0,0,1,119,30.48c-.18.66.18,1.83-.77,2.07a131.11,131.11,0,0,1,3.35-14.73C121.74,17.24,121.37,16.08,122.33,16Z"/><path class="cls-1" d="M133.69,17.05c.9-.18.93.9.52,1.29C133.32,18.52,133.29,17.43,133.69,17.05Z"/><path class="cls-1" d="M96.5,18.34c1.12.11-.27,1.5,0,0Z"/><path class="cls-1" d="M105.8,18.34h.77c.87,4.64,1.71,10,1.29,14.46-1-1.42-.39-3.52-.51-5.16-.23-2.94-1.22-5.78-1.29-8.53A1.17,1.17,0,0,1,105.8,18.34Z"/><path class="cls-1" d="M124.91,18.34c1.12.11-.27,1.5,0,0Z"/><path class="cls-1" d="M135.24,18.34c1,.56-.39,1.63-.77,2.32-.74,1.37-1.67,2.29-1.81,4.4-2.11,2.62-3.44,6-4.65,9.55-.71-.87.47-2.64,1-4.13A58,58,0,0,1,135.24,18.34Z"/><path class="cls-1" d="M133.18,18.6c.3,0,.46.06.51.26-1.7,3.38-3.4,6.81-4.9,10.59-.44,1.11-.72,2.61-1.81,3.35C128.21,27.24,131,23.24,133.18,18.6Z"/><path class="cls-1" d="M130.85,19.37v.52C129.59,20.15,130.38,18.52,130.85,19.37Z"/><path class="cls-1" d="M136,19.11c1.25.28-.08,1.39-.26,1.81a43.22,43.22,0,0,1-3.1,6.2c-.77-.17.05-1.35.26-1.81C133.74,23.51,135.38,21.14,136,19.11Z"/><path class="cls-1" d="M137.57,19.37c1,1.33-1.36,3.37-2.07,4.65C135.05,22.36,137.12,21,137.57,19.37Z"/><path class="cls-1" d="M129.82,20.66c.91.48-.36,1.88-.77,2.85s-.53,2.61-1.55,2.84A37.19,37.19,0,0,1,129.82,20.66Z"/><path class="cls-1" d="M73.25,23.51a9.9,9.9,0,0,1,2.07,4.65C74.38,27,73.08,24.93,73.25,23.51Z"/><path class="cls-1" d="M148.16,25.57c-.38.69-2.8.22-4.13.52-2.87.63-5.09,3-7.24,4.13.47-1.74,3.26-3.54,5.43-4.39C143.45,25.35,146.62,24,148.16,25.57Z"/><path class="cls-1" d="M154.88,24.8c-.13,1.26-2.88.78-3.1.26C152.4,24.56,153.85,24.89,154.88,24.8Z"/><path class="cls-1" d="M70.67,25.06c.68-.08.66.54.77,1C70.76,26.17,70.6,25.73,70.67,25.06Z"/><path class="cls-1" d="M70.93,26.09c-.18,1.72,1.38,1.72,1.29,3.36C71.49,28.86,69.33,26.54,70.93,26.09Z"/><path class="cls-1" d="M154.88,26.86c-1.1,0-1.81-.43-3.1-.25C151.84,25.74,155.15,25.71,154.88,26.86Z"/><path class="cls-1" d="M148.16,26.35c.92-.4.16.87.78.77.11,3.35-.3,6.8-1.81,7.75A19.17,19.17,0,0,0,148.16,26.35Z"/><path class="cls-1" d="M127,26.61c.82-.37.65,1.54.26,1.55C126.14,28.25,127,27,127,26.61Z"/><path class="cls-1" d="M64.73,28.41c1.47,1.72,1.94,4.43,3.36,6.2-.26.79-.69-.29-1-.26C66.45,32.2,65,30.93,64.73,28.41Z"/><path class="cls-1" d="M153.33,28.67c0,.78-1.47.83-1.81.52C151.55,28.45,152.6,28.72,153.33,28.67Z"/><path class="cls-1" d="M152.81,30c.08.68-.36.85-1,.78C151.7,30.06,152.13,29.89,152.81,30Z"/><path class="cls-1" d="M64.47,31c1.09.11,1.08,1.33,1.29,2.32A4.12,4.12,0,0,1,64.47,31Z"/><path class="cls-1" d="M74.29,31c1.21-.22.83,2.07.51,2.58.56,1.94,1.34,3.65,1.81,5.68C74.52,37.69,73.9,33.56,74.29,31Z"/><path class="cls-1" d="M63.69,31.25c.46.07.59.45.52,1C63.76,32.23,63.62,31.84,63.69,31.25Z"/><path class="cls-1" d="M61.11,31.77A1.68,1.68,0,0,1,62.4,34.1C61.94,33.36,61,33.08,61.11,31.77Z"/><path class="cls-1" d="M90.56,32a4,4,0,0,1,.51,2.07c.27-.17.27-.6.78-.52.54.75.81,1.77,1.29,2.58-1.12,1.5.91,2.61,1,4.39-2.26-2.12-3-5.73-5.16-8C89,31.89,89.87,32,90.56,32Zm1.81,3.62c-.45,0-.52-1.68-1-.78C92,34.68,91.77,36.64,92.37,35.65Z"/><path class="cls-1" d="M54.65,32.55h.78A33.85,33.85,0,0,0,54.91,40C53.38,38.89,54.52,34.51,54.65,32.55Z"/><path class="cls-1" d="M117.94,32.8c.55-.12.49.37.52.78-.21,0-.26-.26-.52-.26Z"/><path class="cls-1" d="M107.35,33.58c.93-.25.36,1,.51,1.55C106.93,35.37,107.5,34.11,107.35,33.58Z"/><path class="cls-1" d="M151,33.58c-.43,1.72-2.76,1.55-3.87,2.58-.13-1.25,1.25-1,1.81-1.55C149.63,34.28,149.85,33.46,151,33.58Z"/><path class="cls-1" d="M150.48,35.13c-.46,1.34-.91,2.7-2.32,3.1C149,37.31,149,35.49,150.48,35.13Z"/><path class="cls-1" d="M166,35.13a3.64,3.64,0,0,1,1.29,2.32C166.32,37.26,165.4,36,166,35.13Z"/><path class="cls-1" d="M107.35,35.9c1.18.18-.21,1.57,0,0Z"/><path class="cls-1" d="M164.43,35.9c.9.14.68,1.39,1,2.07C164.94,37.5,164,36.55,164.43,35.9Z"/><path class="cls-1" d="M23.14,40.81c-.61,0-.76.45-1.55.26C21.22,39.9,23.34,39.6,23.14,40.81Z"/><path class="cls-1" d="M146.09,40c.42-.08.45.24.78.26-.05.2-.26.25-.26.51h-.52Z"/><path class="cls-1" d="M40.45,41.07c2.84,1,3.35,4.83,4.9,7.49a143.22,143.22,0,0,0,9.82,13.69,105.09,105.09,0,0,0,15,15.24c-1.73.1-2.86-1.74-4.13-2.84a19.92,19.92,0,0,0-4.13-3.1A134.28,134.28,0,0,1,40.45,41.07Z"/><path class="cls-1" d="M61.89,41.07c.61.14.15,1.22-.26.52C61.68,41.38,61.89,41.33,61.89,41.07Z"/><path class="cls-1" d="M34,41.85c.13.65.44,1-.52,1C33.34,42.22,33,41.88,34,41.85Z"/><path class="cls-1" d="M39.67,43.14c.42-.08.45.24.78.26.43.82.81,1.75,1.29,2.58,1.42,2.44,3.61,4.65,3.87,7.23-2.22-2.77-3.57-6.41-5.94-9Z"/><path class="cls-1" d="M80.23,44.17a2.63,2.63,0,0,1,1.55,2.58C81.1,46.14,79.71,45.15,80.23,44.17Z"/><path class="cls-1" d="M167.79,44.43h.78c0,1.17-.64,1.78-.78,2.84C167,46.56,168.14,45.56,167.79,44.43Z"/><path class="cls-1" d="M148.16,45c.33,2.14-2.25,3.59-3.62,4.9C145.43,47.9,146.91,46.54,148.16,45Z"/><path class="cls-1" d="M143.51,45.72A1.85,1.85,0,0,1,142,47.53c-.35.68-.44,1.62-1.81,1.29A5.55,5.55,0,0,1,143.51,45.72Z"/><path class="cls-1" d="M184.06,45.72c-.05,1.29.6,2.69-.51,3.36a4.22,4.22,0,0,0-.26-2.58c-.86.08-1.15.74-2.33.51C181.28,46,182.71,46.25,184.06,45.72Z"/><path class="cls-1" d="M73.51,46.24A8.31,8.31,0,0,1,75.58,48c-.49.46-1.71.19-2.59.26C73,47.48,73.58,47.17,73.51,46.24Z"/><path class="cls-1" d="M21.59,47h.52c.12.55-.37.49-.78.52C21.38,47.32,21.59,47.27,21.59,47Z"/><path class="cls-1" d="M22.37,47.27h1c.52.34.35,1.37,1,1.55A1.45,1.45,0,0,1,22.37,47.27Z"/><path class="cls-1" d="M167.27,47.79a2.25,2.25,0,0,0,0-.26C168.52,47.31,166.05,49.19,167.27,47.79Z"/><path class="cls-1" d="M21.85,50.11c1.3.16,1.8,1.12,2.84,1.55C23.71,52.2,22.13,51.13,21.85,50.11Z"/><path class="cls-1" d="M166.5,50.11c.64.11,0,1-.52.78C166.07,50.55,166.44,50.48,166.5,50.11Z"/><path class="cls-1" d="M26,50.37v.77c-.54.11-.68-.17-1-.25C25,50.43,25.39,50.3,26,50.37Z"/><path class="cls-1" d="M39.93,50.63a43.66,43.66,0,0,1,6.72,8c-1.1-.07-2.37-1.91-3.36-3.1S40.55,52.54,39.93,50.63Z"/><path class="cls-1" d="M21.07,51.4a6,6,0,0,1,3.36,2.07A4.84,4.84,0,0,1,21.07,51.4Z"/><path class="cls-1" d="M171.92,51.66c.26,0,.2.32.26.52-.94,3-3.72,4.2-4.39,7.49-2.68,2-4.21,5.07-6.46,7.49s-5.18,4.13-7,7c-3.2,1.55-5.92,4.92-9.3,5.43C156.31,72.55,164.62,62.61,171.92,51.66Z"/><path class="cls-1" d="M134.73,51.92c.42-.07.44.24.77.26-1.6,4-5.07,6.12-6.71,10.07-.44-1.71,1.18-3.15,2.06-4.39A17.62,17.62,0,0,1,134,54C134,53.07,134.69,52.83,134.73,51.92Z"/><path class="cls-1" d="M21.07,53h.78c.37.52,1,.67,1.55,1s.81.93,1.29,1.29,1.67,0,1.29,1C24.27,55.27,22.39,54.39,21.07,53Z"/><path class="cls-1" d="M20.56,54a16.8,16.8,0,0,1,3.36,2.32c1,.73,2.68,1.16,3.1,2.58C24.45,58,23.22,55.8,20.56,55Z"/><path class="cls-1" d="M193.1,54A11.4,11.4,0,0,1,197,56.31c-.46,0-.55-.32-1-.26-.49,1.3,1.28,1,.51,1.81-.71-.15-.9-.83-1.29-1.29C194.48,55.75,193.45,55.1,193.1,54Z"/><path class="cls-1" d="M16.17,56.31c-.08-.41,1.39-.36.77.26C17,56.47,16.16,56.29,16.17,56.31Z"/><path class="cls-1" d="M42.51,56.05c.56.74,1.49,1.1,1.55,2.33C43.06,58.17,41.78,57.17,42.51,56.05Z"/><path class="cls-1" d="M29.34,62c-1.46.08-2.83-1.17-4.13-2.06s-2.43-2.06-3.88-2.59a1.24,1.24,0,0,1-.26-.77c.61-.22,1.93.73,2.33,1.55A21.24,21.24,0,0,1,29.34,62Z"/><path class="cls-1" d="M153.33,56.31c1,.2-.38,2.1-.78,2.58s.67,1,0,1c-2.24,2.32-4,5.17-5.94,7.75-.86-1.6,1.4-2.64,2.33-3.88C150.6,61.57,151.81,58.52,153.33,56.31Z"/><path class="cls-1" d="M197.24,57.09c.49-.81,1.12.4,1.81.25-.6,1,1.3,2.68.25,4.14C198.63,60.3,198.85,57.93,197.24,57.09Z"/><path class="cls-1" d="M72.48,57.34h.77c2.13,5,5.18,9.12,7.75,13.69.28.62,1.19-.55,1.55.26-.36.85-1.39,1-2.58,1-.1-.44.2-.49.51-.52A124.3,124.3,0,0,1,72.48,57.34Z"/><path class="cls-1" d="M22.37,58.89c2.87,1.69,5.19,3.93,8.26,5.43-3.28.17-5.65-2.79-8-4.39A1.47,1.47,0,0,1,22.37,58.89Z"/><path class="cls-1" d="M45.87,62c-1-.49-2.3-.79-2.58-2.06C44.2,59.63,45.36,61.05,45.87,62Z"/><path class="cls-1" d="M107.35,62.51h.77c.11.54-.17.68-.26,1A1.13,1.13,0,0,1,107.35,62.51Z"/><path class="cls-1" d="M192.07,62.51a34.42,34.42,0,0,1-5.68,3.87c-.9.58-1.73,1.7-2.84,1.3C186.26,65.83,188.84,63.84,192.07,62.51Z"/><path class="cls-1" d="M15.13,63c-.73,1.24-2.57,1.38-3.61,2.32.16,1.39,1.41,1.69,1.55,3.1-.73-.21-.67.36-1.29.26A6.5,6.5,0,0,0,10,65.87C9.71,63.09,13.64,63.21,15.13,63Z"/><path class="cls-1" d="M194.14,63.54c-.33,1-1.54,1.29-2.33,1.81-1.56,1-3.19,2.13-4.9,3.36-1.25.89-1.9,1.75-3.62,2.32,2.56-2.94,6.19-4.62,9.56-6.71C193.35,64,193.24,63,194.14,63.54Z"/><path class="cls-1" d="M108.38,64.32c.89-.53,3.2-.29,4.13,0C111.81,65.45,109.46,64.46,108.38,64.32Z"/><path class="cls-1" d="M143.25,64.06c.95.57-.12,1.94-.51,2.84-.83,1.89-1.85,4.24-4.14,4.65A19.25,19.25,0,0,0,143.25,64.06Z"/><path class="cls-1" d="M109.16,65.09c.73-.21.67.37,1.29.26C110.49,65.77,108.76,65.87,109.16,65.09Z"/><path class="cls-1" d="M194.65,65.35c.29.71-.31.56-.51.78a3.73,3.73,0,0,1-1.55,1c-1,.48-1.65,1.46-2.58,2.07a8.85,8.85,0,0,1-3.1,1.29A29.34,29.34,0,0,1,194.65,65.35Z"/><path class="cls-1" d="M57.75,85.24c.23.91-.67.27-.77,0C46.11,77.86,34.8,70.91,19.78,67.68a1.27,1.27,0,0,1-.26-.78c.21-.05.26-.26.52-.26,1.08.56,2.64.63,3.36,1.55,3,.13,5.65,1.38,8.26,2.33A89.88,89.88,0,0,1,49,79,61.28,61.28,0,0,1,57.75,85.24Z"/><path class="cls-1" d="M195.17,67.93c-.76,1.57-2.55,2.1-4.39,2.59C191.64,69.22,194.08,68.14,195.17,67.93Z"/><path class="cls-1" d="M145.58,67.93c.64,0,.07.88,0,1C144.93,68.93,145.5,68.09,145.58,67.93Z"/><path class="cls-1" d="M13.84,68.71c1.57.59,2.48.57,3.88,1.55-.12,1.17-1.78,0-2.33,0-1,.15-2.06.77-2.58,0C12.86,69.45,13.47,69.2,13.84,68.71Z"/><path class="cls-1" d="M21.07,70c4.45-.14,8.69,2.17,12.66,3.36-2.8.28-5.65-1.57-8.52-2.33C23.75,70.65,22.27,70.92,21.07,70Z"/><path class="cls-1" d="M202.4,70c0,1.49-1.35,1.58-2.06,2.33C199.2,71.55,201.71,70.6,202.4,70Z"/><path class="cls-1" d="M91.59,71.55c.44,1.3,1.31,3.07.26,4.39,1.29,1.89,2.13,4.1,3.36,5.94.7,1.07,1.81,1.8,2.06,3.1,1.12.54,1.59,1.86,2.59,2.59s2.65.69,3.1,2.06c1.83-2.12,4.84-3.08,6.45-5.42,1.36,2.43,4.75,2.83,6,5.42,5.11-4.44,10.57-8.54,12.65-16,3.82-1.94,7.73,3.82,4.65,6.45a9.52,9.52,0,0,0-3.1.52c-3.7,3.79-7.15,7.83-9.3,13.17,1.48,1.28,3.33,2.19,4.39,3.88-2.28-.07-2.38-1.89-3.87-2.33-3.37-1-4.9,3-8.27,2.59-.65-2.38,1.68-3.7,1.3-5.94-.26-1.48-1.62-2-2.59-3.1-.81-.92-1-2.2-2.06-2.33s-2.63,1.18-3.62,1.81c-1.21.77-2.25,1.71-3.36,2.33-.88,3,1.52,3.88,1,7.23-2.24.31-2.92-2.58-4.64-2.84s-1.94.91-3.88,1.29a4,4,0,0,1,3.62-2.07c-3.12-5.06-5.44-10.92-8.79-15.76C84.55,78,85.57,69.24,91.59,71.55Zm-4.65,3.1c.1,1.56,1.54,1.76,2.84,2.58,2.35,4,4.79,8.25,7,12.14,1.51,2.7,2.19,5.74,4.91,6.72-.6-1.79-1.73-4.27-.26-5.94-5.12-3.32-8-8.86-10.85-14.47,0-1.24,1.11-1.3.77-2.84C89.1,71.62,86.8,72.53,86.94,74.65Zm41.33.52c-.13.81.47.91.26,1.81-3.77,5.09-7.82,9.91-12.92,13.69.49,3.06-2,3.16-2.06,5.68,2.24-.17,3.17-1.65,5.16-2.07,2.1-6.34,6.24-10.63,10.34-15a33.49,33.49,0,0,0,3.35-.78C134.14,76,130.57,73.67,128.27,75.17ZM114.58,93c1.34-3.43-2-5.72-3.87-5.94C112.59,88.47,114.84,90.19,114.58,93Z"/><path class="cls-1" d="M35.28,75.94c-4.46-1.22-8.83-2.53-13.17-3.87.3-.59,3.36.07,4.91.51s2.93,1.1,4.39,1.55S34.55,74.83,35.28,75.94Z"/><path class="cls-1" d="M110.19,73.1c-.36.82-1.06.35-1.55.26C108.64,72.65,109.86,72.75,110.19,73.1Z"/><path class="cls-1" d="M159.27,73.36c.54.64-.48,1.92-1.81,1.55C157.61,73.94,158.9,74.11,159.27,73.36Z"/><path class="cls-1" d="M41.48,80.33c-5.13-1.43-10.76-3.85-16.79-5.16-.44.09-.49-.2-.52-.52.23-.16.47-.31.52,0,5.11.64,9.5,2.61,13.69,4.13C39.4,79.16,41,79.12,41.48,80.33Z"/><path class="cls-1" d="M108.64,75.43h1c.26.77-.57.45-1,.51Z"/><path class="cls-1" d="M36.83,76.2c-1.26,1-1.5-1,0,0Z"/><path class="cls-1" d="M165.47,76.2H166c.12.55-.37.49-.77.52C165.26,76.51,165.47,76.46,165.47,76.2Z"/><path class="cls-1" d="M192.33,77v.51C191.07,77.75,191.85,76.12,192.33,77Z"/><path class="cls-1" d="M61.89,79c-.39.41-1.48.38-1.3-.52C61,78.12,62.07,78.15,61.89,79Z"/><path class="cls-1" d="M62.14,79c1.07-.21.79.94,1.81.78.22.73-.36.67-.26,1.29C63,80.63,61.29,80.22,62.14,79Z"/><path class="cls-1" d="M185.61,79.82c-.5,1.65-3.57.73-4.9,1.55-.19-1.28,1.78-1.43,2.84-1.55C184.28,79.73,185.09,80.17,185.61,79.82Z"/><path class="cls-1" d="M24.43,80.59c.81-.12.93.65.52,1C24.49,81.56,24.36,81.18,24.43,80.59Z"/><path class="cls-1" d="M150.23,92.73c.28-.75,1.21-.7,1.8-1,1.45-.82,3.08-2,4.91-2.84,2.35-1.1,4.88-1.94,7-3.36,5.33-1.73,10.3-3.81,16.27-4.91-.35,1.7-2.53,1.55-3.62,1.81a81,81,0,0,0-25.31,10.85c0,.25-.32.2-.52.26C150.65,93.17,150.29,93.1,150.23,92.73Z"/><path class="cls-1" d="M200.6,80.85c-.27,1.72-.77,3.2-2.07,3.87.06-1.32.86-1.89,1.29-2.84.13-.81-1.28-.09-1-1C199.22,80.39,199.65,81.08,200.6,80.85Z"/><path class="cls-1" d="M68.34,85.24A1.72,1.72,0,0,1,68.6,84a1.25,1.25,0,0,1,1.29.52C69.92,85.26,69.11,85.24,68.34,85.24Z"/><path class="cls-1" d="M69.64,85.24c1.15-.37,1.72,1,2.32,1.55s2,1,1.55,1.81C72,87.7,70.19,87.09,69.64,85.24Z"/><path class="cls-1" d="M68.09,86.79c1.08,0,1.3.93,2.06,1.29.55-.08-.37-.8-.51-1,.76-.41,1.78,1.13,2.32,1.81C70.06,88.82,68.85,88.45,68.09,86.79Z"/><path class="cls-1" d="M180.45,89.63c.53.15.55.4.26.78C177,92,169.74,92,164.43,93c-4.63.9-8.62,2.18-12.14,3.1,1.59-2,4.66-2,7.24-2.58a93.7,93.7,0,0,1,9.29-1.81C172.74,91.18,177.1,90.7,180.45,89.63Z"/><path class="cls-1" d="M197,90.41c-.33,1.13-2.7.22-3.88.51C193.63,90.15,196.11,90,197,90.41Z"/><path class="cls-1" d="M84.36,94.8c.42,0,.52,1.69-.26,1.29C83.89,95.36,84.46,95.42,84.36,94.8Z"/><path class="cls-1" d="M194.65,99.45c-.6-.25-1.63-.09-1.55-1C193.62,98,194.42,98.82,194.65,99.45Z"/><path class="cls-1" d="M158.23,100.22a28,28,0,0,0-4.65.78V99.71C154.6,100.44,157.88,97.81,158.23,100.22Z"/><path class="cls-1" d="M174,101.51a51.37,51.37,0,0,0-15.5-1.29c.75-1.74,3.26-.86,5.17-.77C167.55,99.63,172.65,99,174,101.51Z"/><path class="cls-1" d="M193.62,100.22a4.23,4.23,0,0,1,3.1,1.29C196.45,102.29,193.9,101.14,193.62,100.22Z"/><path class="cls-1" d="M196.72,104.1c-1.16-.39-2.42-.68-2.84-1.81C195.05,101.74,196.31,103.06,196.72,104.1Z"/><path class="cls-1" d="M191.3,104.61c1.08,0,1.1,1,1.8,1.3C192.37,106.63,191.14,105.64,191.3,104.61Z"/><path class="cls-1" d="M159,105.65c-.47,1.85-.23,4.41-1,5.94-1,.11-.09-1.15,0-2.07C158.1,108.11,157.65,105.81,159,105.65Z"/><path class="cls-1" d="M109.41,106.42c.3,0,.46.06.52.26.52.55-.37,1.15-.52,1.81h-2.06c0-.93-1.18-.72-1-1.81,1-.05,1,.88,1.81,1S109.08,107,109.41,106.42Z"/><path class="cls-1" d="M144,107.2c-1.48.69-4.45.67-7.49.51s-6.16-.68-8.79-.77c2.59-1.15,5.61-.12,8.53,0C138.78,107,141.41,106.58,144,107.2Z"/><path class="cls-1" d="M99.86,107.2c.52-.09.81,0,.77.51h-.77Z"/><path class="cls-1" d="M165.72,108.49c1.05.24.46,2.93-.25,3.1C165.29,110.29,165.71,109.59,165.72,108.49Z"/><path class="cls-1" d="M169.86,109.78c.73,0,.49,1.1-.26,1C169.49,110.27,169.78,110.13,169.86,109.78Z"/><path class="cls-1" d="M175.8,109.78h.52v.52h-.52Z"/><path class="cls-1" d="M178.64,110.3c.92.07.28,1.54.26,1.8C177.74,112.12,179.06,111.15,178.64,110.3Z"/><path class="cls-1" d="M179.93,110.3c.44-.1.49.2.52.51-.22,0-.25.1-.26.26C179.89,111,180,110.6,179.93,110.3Z"/><path class="cls-1" d="M176.06,110.81c1-.09.53,2.06-.26,1.81C175.8,111.94,175.7,111.15,176.06,110.81Z"/><path class="cls-1" d="M177.09,110.81c.92-.12,1.14,1.77,0,1.55Z"/><path class="cls-1" d="M179.93,111.33c.21,0,.26.26.52.26,0,.21-.26.26-.26.51-.21,0-.26-.25-.52-.25C179.72,111.64,179.93,111.59,179.93,111.33Z"/><path class="cls-1" d="M61.37,112.62c0,2.38-3.18,3.47-5.68,4.13a70.35,70.35,0,0,1-13.18,1.81c-1.95.1-5.23.52-6.45-.77,8.71-.36,20-.25,24.79-5.43C61.15,112.32,61.31,112.42,61.37,112.62Z"/><path class="cls-1" d="M185.36,113.14c.54.61-.58,1.14-.78,1.81.61.77,2.07.68,2.33,1.8-2.13-1.14-2.69,1.12-4.4.52-.1-1.74,1.57-1.71,1.81-3.1-1.45-1.72-6-.16-8.52,0,.95-1.29,4-1.9,6.2-1.81A19.4,19.4,0,0,1,185.36,113.14Z"/><path class="cls-1" d="M156.17,112.62c.68-.08.66.54.77,1C156.08,113.91,156.1,113.3,156.17,112.62Z"/><path class="cls-1" d="M33.21,113.4H34c-.28.24-.08.95-.78.77Z"/><path class="cls-1" d="M208.86,113.65c.34,1-.85.53-.51,1.55-5.9,2.38-6.9,9.64-14.47,10.34,6.35-1.74,8.36-7.83,13.69-10.59C207.89,114.56,208.43,113.07,208.86,113.65Z"/><path class="cls-1" d="M22.37,115.72c-1.23-.06-1.8-.79-2.85-1C20,113.74,22.09,114.84,22.37,115.72Z"/><path class="cls-1" d="M189.23,114.43c.74-.05,1.41,0,1.29.77C190,115.71,188.94,115.47,189.23,114.43Z"/><path class="cls-1" d="M18,115h.78v.77C18.19,115.77,17.93,115.51,18,115Z"/><path class="cls-1" d="M19.27,115.2h.51v.52h-.51Z"/><path class="cls-1" d="M188.71,115.2c.28.07.18.52.52.52-.22.53-1.8.27-2.07,0C187.12,115,188.76,115.94,188.71,115.2Z"/><path class="cls-1" d="M20,115.46h.52V116H20Z"/><path class="cls-1" d="M16.94,117h.52v.52h-.52Z"/><path class="cls-1" d="M191,117c-.14,1-1.1,1.14-2.07,1.29C188.87,117.08,190.15,117.24,191,117Z"/><path class="cls-1" d="M187.94,117.53c-.78,1-.87-.79,0,0Z"/><path class="cls-1" d="M179.67,117.79h.52v.51h-.52Z"/><path class="cls-1" d="M14.62,118.05h1.55c-.05.72-.45,1.1-1.3,1A1.44,1.44,0,0,1,14.62,118.05Z"/><path class="cls-1" d="M19.78,119.6c-1.33-.22-2.77-.33-3.36-1.3C17.19,118.16,19.35,118.58,19.78,119.6Z"/><path class="cls-1" d="M192.33,118.05c-.36,1-1.32,1.43-2.58,1.55C190,118.5,191.21,118.3,192.33,118.05Z"/><path class="cls-1" d="M188.2,118.56c.66-.89.62,1.33,0,0Z"/><path class="cls-1" d="M193.88,119.08c-.23,1.07-1.29,1.29-2.58,1.29C191.51,119.29,193,119.44,193.88,119.08Z"/><path class="cls-1" d="M15.91,119.34c1.21.07,2.46.12,2.84,1C17.49,120.34,16.18,120.36,15.91,119.34Z"/><path class="cls-1" d="M13.07,119.6c2.16,1.19,2.89,3.82,5.42,4.64-2.32.34-3.56-2.63-5.42-3.61C13.09,119.92,12.64,120.11,13.07,119.6Z"/><path class="cls-1" d="M15.65,120.63a2.64,2.64,0,0,1,2.07.52C17.67,122.19,15.61,121.33,15.65,120.63Z"/><path class="cls-1" d="M179.93,122.18c.36-.59,1.8-.1,2.58-.26C182.65,123.23,180.23,122.73,179.93,122.18Z"/><path class="cls-1" d="M150,125.54c-.81,1,.54,1.42-.78,1.55a63.17,63.17,0,0,0,13.69,5.68c5.08,1.58,10.29,2.63,15.5,3.87,2.82.68,5.48,1.86,8.27,2.33,1.09.18,2.46,0,3.87.26.58.11,1.62,0,1.81.77a72.67,72.67,0,0,1-13.69-2.06c-10.85-2.55-21.56-5.34-30-10.08-.74,0,.31,1.69-.78,1.29-.34-.64-.2-3.07,1-2.06C148.4,126.47,149.25,125.68,150,125.54Z"/><path class="cls-1" d="M146.61,127.6h.52v.52h-.52Z"/><path class="cls-1" d="M36.31,128.38c-.16,1.05-2.19,1.29-2.84,1C34,128.66,35.29,128.65,36.31,128.38Z"/><path class="cls-1" d="M18.75,128.89c0,.92-1.16.74-1.81,1,.94,1,2.74,1.22,4.65,1.29-1.25.88-5,.1-5.94-1C16.2,129.27,17.28,128.89,18.75,128.89Z"/><path class="cls-1" d="M143.51,128.89c1,0-.17,1.76.26,2.85C142.53,131.45,143.23,129.8,143.51,128.89Z"/><path class="cls-1" d="M149.71,129.15c1-.15,1.6.7,1,1.29C150,130.4,149.64,130,149.71,129.15Z"/><path class="cls-1" d="M146.87,133c-1-.07-.5-2.61-.26-3.1C147.72,130.34,146.47,131.73,146.87,133Z"/><path class="cls-1" d="M147.64,131.22h.78c.2,1-.32,1.23-.26,2.07C146.77,133.26,147.8,132.16,147.64,131.22Z"/><path class="cls-1" d="M69.38,135.09c.89-.18.92.91.51,1.3C69.38,136.18,69,135.48,69.38,135.09Z"/><path class="cls-1" d="M170.12,155.5c-2.36-1.16-4.21-3.1-6.2-4.65-5.79-4.5-11.08-10.08-18.34-13.43-.44.09-.49-.2-.52-.52a1.44,1.44,0,0,1,1-.26c7.61,4,13.56,9.77,20.15,15,.22.16.3.61.52.77C167.63,153,169.76,153.91,170.12,155.5Z"/><path class="cls-1" d="M194.4,139c.15.55-1.55.94-1.3,0C193.75,138.94,193.9,138.48,194.4,139Z"/><path class="cls-1" d="M174.25,140.78c5,.71,9.23,2.53,13.95,3.87,3.61,1,7.3,1.49,10.59,3.1-.39.78-1.87,0-2.84-.26-3.15-.77-6.23-2-9.3-2.84-3.29-.94-6.64-1.86-9.56-2.84C176.09,141.47,174.86,141.73,174.25,140.78Z"/><path class="cls-1" d="M75.83,141.81h.52c.07.42-.24.44-.26.77h-.51C75.5,142.17,75.82,142.14,75.83,141.81Z"/><path class="cls-1" d="M79.45,142.33c1.23.22,0,1.91-.26,2.32C78.65,144.26,79.33,142.91,79.45,142.33Z"/><path class="cls-1" d="M138.86,143.1c.95.26.44,2,.78,2.84C138.34,145.7,139.23,144.51,138.86,143.1Z"/><path class="cls-1" d="M194.91,143.1c2.05,1,5.41.62,6.46,2.58-.22,1-1.33,0-1.55-.51C198.11,144.55,195.88,144.45,194.91,143.1Z"/><path class="cls-1" d="M141.19,143.36c.55-.12.49.37.51.77-.21,0-.26-.25-.51-.25Z"/><path class="cls-1" d="M142.74,143.36h.77v.77C143,144.18,142.69,143.92,142.74,143.36Z"/><path class="cls-1" d="M137.83,143.62c.75,0,.17,1.12.51,2.06C137.61,145.33,137.62,144.24,137.83,143.62Z"/><path class="cls-1" d="M136.54,144.13c.48.16.93,2.45.51,3.62C136.33,147.18,136.13,145,136.54,144.13Z"/><path class="cls-1" d="M83.07,144.65c1,.08.73,3-.26,2.84A9.64,9.64,0,0,1,83.07,144.65Z"/><path class="cls-1" d="M84.36,144.91c.76.4.29,3.39-.52,3.87C83.61,148,84.12,146,84.36,144.91Z"/><path class="cls-1" d="M134.21,144.91H135c-.17,1,.33,2.75-.26,3.36C133.61,148.09,134.49,145.92,134.21,144.91Z"/><path class="cls-1" d="M135.24,144.91c.56-.12.5.37.52.77-.21-.05-.26-.26-.52-.25Z"/><path class="cls-1" d="M141.44,144.91c.91-.23.45.84.26,1,3.28,3.7,4.77,9.19,7.24,13.69a5.63,5.63,0,0,1-2.59-2.58c-1-3.73-3-8.12-5.68-10.59C140.46,145.48,141.43,145.67,141.44,144.91Z"/><path class="cls-1" d="M194.91,149.56c-4.42-1.27-9-3.12-13.17-3.88.86-.67,2.5-.25,3.62,0a60.79,60.79,0,0,1,6.71,2.33C193.06,148.36,194.64,148.45,194.91,149.56Z"/><path class="cls-1" d="M132.92,145.43c.42-.08.44.24.77.25-.45.87.18,1.33,0,2.59C132.4,148,133.21,146.91,132.92,145.43Z"/><path class="cls-1" d="M85.91,145.68c-.24,1.23-.18,2.75-.52,3.88C84.51,149,84.81,145.88,85.91,145.68Z"/><path class="cls-1" d="M131.89,145.68c1,.07.5,2.61.25,3.1C131.55,148.26,132.05,146.64,131.89,145.68Z"/><path class="cls-1" d="M130.6,145.94c.75.61.89,3.16.25,3.62A7.35,7.35,0,0,1,130.6,145.94Z"/><path class="cls-1" d="M86.43,146.46c1.53.38-.13,2.08.25,3.62C85.25,150,86.38,147.43,86.43,146.46Z"/><path class="cls-1" d="M129.3,146.46c.3,0,.46.06.52.26-.4,1.72.9,3.62-.52,4.13Z"/><path class="cls-1" d="M29.08,148.27c.09-.6.17-1.21,1-1v1Z"/><path class="cls-1" d="M87.46,147.49c1,.17.38,2.86-.26,3.1C87,149.29,87.64,148.79,87.46,147.49Z"/><path class="cls-1" d="M128,147.49c1,.55.42,3.8.52,4.39C127.54,151.34,128.06,148.14,128,147.49Z"/><path class="cls-1" d="M29.08,148.27c0,.3-.06.46-.26.51-3.15,1.41-6.38,2.75-9.3,4.39.17-1.95,1.59-1.65,3.62-2.58C24.69,149.88,27.15,148.08,29.08,148.27Z"/><path class="cls-1" d="M88.49,148c.84.18,1,3.79-.26,3.62A13.67,13.67,0,0,1,88.49,148Z"/><path class="cls-1" d="M89.52,148.78c.42-.07.45.25.78.26.1,1.23-.46,1.78-.26,3.1C88.54,151.82,89.9,150.23,89.52,148.78Z"/><path class="cls-1" d="M126.72,148.78c1,.78.58,2.87.78,4.39C126.45,152.5,126.83,150.4,126.72,148.78Z"/><path class="cls-1" d="M186.91,148.78a37.57,37.57,0,0,1,8.78,2.33c-.78.69-2.46-.18-3.88-.52a29.61,29.61,0,0,1-4.13-1C187.12,149.61,186.86,149.35,186.91,148.78Z"/><path class="cls-1" d="M28.56,149.56c.13,1.16-2.44,1.86-3.87,2.32C25.71,150.83,27.51,150.57,28.56,149.56Z"/><path class="cls-1" d="M90.82,149.56c.92.19.8,3.46-.26,3.36A15.39,15.39,0,0,1,90.82,149.56Z"/><path class="cls-1" d="M125.69,149.56c.66.54,1.11,3.63,0,3.61C125.92,151.8,125.31,150.26,125.69,149.56Z"/><path class="cls-1" d="M41,150.08c.51.17.69.68.78,1.29-.79.18-.94-.27-1.55-.26C40,150.28,40.86,150.57,41,150.08Z"/><path class="cls-1" d="M91.85,150.08c1.27.54.27,1.78.52,3.35C90.79,153.29,92.32,151.47,91.85,150.08Z"/><path class="cls-1" d="M102.18,150.08c1.42.11.74,3.47.52,4.39C101.64,153.89,102.43,151.47,102.18,150.08Z"/><path class="cls-1" d="M124.65,150.33c.73.42.81,2.49.52,3.1A9.84,9.84,0,0,1,124.65,150.33Z"/><path class="cls-1" d="M105.8,150.59c1-.21.33,1.22.51,1.81C105.58,152.36,105.84,151.32,105.8,150.59Z"/><path class="cls-1" d="M93.14,150.85c1.16.29,0,2.34,0,3.1C92.24,153.7,93.18,151.85,93.14,150.85Z"/><path class="cls-1" d="M123.62,151.11c1,.13.72,1.52.78,2.58C123.49,153.48,123.7,152.15,123.62,151.11Z"/><path class="cls-1" d="M98.05,151.37c.45-.27.61,4.29-.26,4.65A18.22,18.22,0,0,1,98.05,151.37Z"/><path class="cls-1" d="M99.08,151.37c.92.56.84,4.39-.26,4.65C98.63,154.18,99.14,153.06,99.08,151.37Z"/><path class="cls-1" d="M196,151.63c.11-.51,1.81-.47,1.29.51C196.6,152.18,196.44,151.74,196,151.63Z"/><path class="cls-1" d="M39.67,151.63c-.15,1.4-.81,1.72-1.81,2.58a102.66,102.66,0,0,1-10.33,7.49c-.1-1.13,1.21-1.26,1.81-1.81,2.43-2.21,5.3-5,8.52-6.72-.32-.83.84-.19.52-1-.49-.22.28-.15.26-.51Z"/><path class="cls-1" d="M190.26,151.63c1.33.62,4.34,0,5.43,1.54C193.83,152.71,191.08,153.13,190.26,151.63Z"/><path class="cls-1" d="M24.43,151.88A11.43,11.43,0,0,1,20,154.47,7.4,7.4,0,0,1,24.43,151.88Z"/><path class="cls-1" d="M31.92,152.66c.79-1,.87.78,0,0Z"/><path class="cls-1" d="M198.53,152.4c1.17.12.63,1.95,1,2.84-1.18.51-1.59,2-2.58,2.84a15.49,15.49,0,0,1-3.1,1.55c-.9.5-1.56,1.59-2.58,1.29.7-1.73,3-1.88,4.39-2.84a17,17,0,0,0,2.84-2.84Z"/><path class="cls-1" d="M108.38,152.66c1.24.27.7,2.33.52,3.36C108.19,155.43,108.41,153.92,108.38,152.66Z"/><path class="cls-1" d="M109.67,153.17c.42-.07.45.25.78.26-.44,1.8-.52,4-1,5.69C108.38,157.82,109.89,155.3,109.67,153.17Z"/><path class="cls-1" d="M197,153.17c.21.05.26.26.52.26-.05.21-.26.26-.26.52-.21,0-.26-.26-.52-.26C196.77,153.48,197,153.43,197,153.17Z"/><path class="cls-1" d="M30.11,153.43c-.62,1.15-2.21,1.57-3.35,2.33s-2,2-3.1,1.81A17.16,17.16,0,0,1,30.11,153.43Z"/><path class="cls-1" d="M33.21,153.43c-2,2.12-5.12,3.65-7.49,5.43-1.06.8-1.89,2.21-3.35,1.81.64-1.66,3.06-2.51,4.65-3.62C29,155.65,30.65,154.27,33.21,153.43Z"/><path class="cls-1" d="M116.91,153.43c1.21-.22.59,2.3-.26,2.33C116.7,155,116.47,153.86,116.91,153.43Z"/><path class="cls-1" d="M111.22,153.69c.3,0,.46.06.52.26-.37,2.39-1.31,4.2-1.55,6.72C109.27,159.05,111,155.81,111.22,153.69Z"/><path class="cls-1" d="M190,153.69c.46.19,0,.47,0,.78C189.55,154.28,190,154,190,153.69Z"/><path class="cls-1" d="M50.26,154c.23.11.46.23.52.52-1.68,1.72-3.7,3-5.43,4.65s-3,3.76-5.16,4.9A6.3,6.3,0,0,1,43,161.18C44.45,157.78,48.05,156.56,50.26,154Z"/><path class="cls-1" d="M191,154c2.21.37,5,.2,5.94,1.81C195.64,155.5,192,155.47,191,154Z"/><path class="cls-1" d="M15.13,154.47c.6,1.85-2.06,4.22-1,6.2.59,1.14,2.3,1.13,3.62,1.29-.37,1.66-2.87.11-4.14.26A8.49,8.49,0,0,1,15.13,154.47Z"/><path class="cls-1" d="M103.47,155.24c.54.15.55.4.26.78h-.52C103.14,155.6,103.46,155.57,103.47,155.24Z"/><path class="cls-1" d="M50.78,156.27c-.44,2.33-3.52,3.24-5.43,4.91-1.35,1.2-2,2.92-3.61,3.62-.53.76-1,2.65-2.33,1.81C43,162.93,46.06,158.79,50.78,156.27Z"/><path class="cls-1" d="M113,156.27h.52v1H113Z"/><path class="cls-1" d="M171.15,158.86c-.06.37-.77.09-.78.51,1.92,3.51,4.95,5.91,6.72,9.56-1.05.15-1.48-1.29-2.07-2.07-1.71-2.24-4-5-5.94-7.23v-.77A3,3,0,0,1,171.15,158.86Z"/><path class="cls-1" d="M49.49,159.12a.7.7,0,0,1,.51.77c-1.56.73-2.56,2.42-3.87,3.62s-2.58,2.55-4.13,2.58C44.27,163.54,47.07,161.52,49.49,159.12Z"/><path class="cls-1" d="M50.52,160.67c-.36,1.1-1.25,1.67-1.55,2.84-2.36.91-3.08,3.46-5.42,4.39,1.76-2.8,4.23-4.9,6.2-7.49C50.16,160.33,50.19,160.65,50.52,160.67Z"/><path class="cls-1" d="M40.71,160.92c.33.6-.6,1.7-1.55,1.81C39.11,161.56,39.83,161.17,40.71,160.92Z"/><path class="cls-1" d="M173.73,162h.78c2,3.12,4.48,5.85,6.71,8.78-2.48-.58-3.37-3.17-4.65-4.91C175.59,164.49,174.29,163.53,173.73,162Z"/><path class="cls-1" d="M158.75,163.25h.52v.52h-.52Z"/><path class="cls-1" d="M191.3,164c.21,0,.25.26.51.26-.05.21-.26.26-.25.52-.21-.05-.26-.26-.52-.26C191.09,164.33,191.3,164.28,191.3,164Z"/><path class="cls-1" d="M39.16,164.54c.54-.11.68.18,1,.26A.54.54,0,1,1,39.16,164.54Z"/><path class="cls-1" d="M26.76,165.06c-.21,1-1.27,1.15-1.81,1.8-.54.83-1.24,2.62-2.58,1.81C23.36,167.17,25,164.94,26.76,165.06Z"/><path class="cls-1" d="M54.14,165.31v1H52.85v-.78A1.72,1.72,0,0,1,54.14,165.31Z"/><path class="cls-1" d="M171.15,166.61c1.34,1.59,3.47,2.38,4.39,4.39,1.28.13,2.57,1.29,4.13,1.55,1.3.22,2.93-.61,3.88.51-.06.77-2.17.46-3.36.26a16.22,16.22,0,0,1-8-4.13C171.64,168.58,170.92,167.41,171.15,166.61Z"/><path class="cls-1" d="M56.46,167.38c.9.14.25,1.55-.77,1.29C55.36,167.65,56.44,168.05,56.46,167.38Z"/><path class="cls-1" d="M60.85,168.41c.21.9-.28,1.1-.51,1.55C59.36,169.75,59.94,168.26,60.85,168.41Z"/><path class="cls-1" d="M54.91,169.19c1,.78-.78.87,0,0Z"/><path class="cls-1" d="M169.34,169.71c1.87.62,3.54,1.45,4.39,3.1C172.28,172.76,170.38,171,169.34,169.71Z"/><path class="cls-1" d="M53.88,170.22c1.28,1.5-2.82,3.09-1.81,5.17.91-.21.66-1.58,1.81-1.55.1,1.65-1,2.11-1.81,2.84C48.44,175.14,53,172,53.88,170.22Z"/><path class="cls-1" d="M137.31,170.74c.42-.07.45.24.78.26-.05.21-.26.26-.26.51h-.52Z"/><path class="cls-1" d="M123.36,175.65c.55-.12.49.37.52.77-.21,0-.26-.26-.52-.26Z"/><path class="cls-1" d="M137.83,175.91c0-.1.54-.46.77-.26C139.11,176.09,137.46,176.89,137.83,175.91Z"/><path class="cls-1" d="M65,175.91a1.29,1.29,0,0,1-1.3,1.55A1.56,1.56,0,0,1,65,175.91Z"/><path class="cls-1" d="M173,176.16c.17.52,1.54-.16,1.29.78C173.59,176.91,172.92,176.89,173,176.16Z"/><path class="cls-1" d="M138.6,176.68c2,.62,2.46,3.81,3.62,4.39-.09,1.05-.68,0-1.29.52a3.39,3.39,0,0,1-1-2.33C139.25,178.69,138.09,177.59,138.6,176.68Z"/><path class="cls-1" d="M127,177.71h.77v1C127.07,178.82,126.91,178.39,127,177.71Z"/><path class="cls-1" d="M159.53,178.23a1.42,1.42,0,0,1,.51,2.07C159.35,180.12,159.31,178.52,159.53,178.23Z"/><path class="cls-1" d="M124.14,178.75h.77c.17,1.55.8,2.65.78,4.39C124.38,182.46,124.81,180.06,124.14,178.75Z"/><path class="cls-1" d="M121.55,179c.7.37.84,1.72,1,2.58s.74,2.07.26,2.84C121.81,183.23,121.86,180.94,121.55,179Z"/><path class="cls-1" d="M126.2,179.52H127c-.25,2.84,1.35,3.82,1.55,6.2C126.87,184.69,126.13,181.44,126.2,179.52Z"/><path class="cls-1" d="M128.27,180.56a2.22,2.22,0,0,1,1.29,2.58C128.49,182.92,128.63,181.48,128.27,180.56Z"/><path class="cls-1" d="M61.63,182.1c-1.67,2.73-2.92,5.87-5.43,7.75.25-1,1-1.58,1-2.84C59.57,186.25,59.27,182.84,61.63,182.1Z"/><path class="cls-1" d="M125.69,183.4c.3-.05.46,0,.51.25.22,2.31,2.34,4,1.55,6.46C127,187.93,125.7,186.32,125.69,183.4Z"/><path class="cls-1" d="M165.47,183.65c.42,0,.52,1.69-.26,1.3C165,184.22,165.57,184.28,165.47,183.65Z"/><path class="cls-1" d="M124.14,184.17h.77c.1,2.32,1.58,3.25,1.81,5.43C125.21,188.44,124.73,186.25,124.14,184.17Z"/><path class="cls-1" d="M122.85,184.69h.77c.3,2.29,1.66,3.5,2.07,5.68C124.07,189.15,123.38,187,122.85,184.69Z"/><path class="cls-1" d="M165,185.2c.13,1.86-.88,4.81-3.1,5.17C163.36,189.13,164,187,165,185.2Z"/><path class="cls-1" d="M112.77,186.5c1.18,2.47,0,6.37-.26,8.52C111.88,192.49,112.5,189,112.77,186.5Z"/><path class="cls-1" d="M128.27,186.5c.44-.1.49.2.52.51-.22,0-.25.1-.26.26C128.23,187.23,128.31,186.8,128.27,186.5Z"/><path class="cls-1" d="M109.93,188.05h.78c-1,3.37,1.4,9.3-1,11.62C110,195.55,109.7,192.09,109.93,188.05Z"/><path class="cls-1" d="M127.24,189.85v1C126.39,190.94,126.22,189.68,127.24,189.85Z"/><path class="cls-1" d="M56.46,190.63a1.92,1.92,0,0,1,1.29,1.55C56.52,192.48,55.94,191.28,56.46,190.63Z"/><path class="cls-1" d="M126,190.89c.35.08.21.64.25,1C125.61,191.85,125.61,191.23,126,190.89Z"/><path class="cls-1" d="M83.07,191.92c.48,2-1.1,4.07-1.55,5.94C80.36,196.17,82.46,193.54,83.07,191.92Z"/><path class="cls-1" d="M139.89,192.18c.21,0,.26.26.52.26,0,.21-.26.25-.26.51-.21,0-.26-.26-.51-.25C139.69,192.49,139.89,192.44,139.89,192.18Z"/><path class="cls-1" d="M118.46,195.28c.59.07.59.69.25,1C118.11,196.24,118.12,195.62,118.46,195.28Z"/><path class="cls-1" d="M116.65,197.6c.3,0,.46.06.51.26-.23,2.13,1.67,3.89,1.81,6.46-1-.54-1.76-2.81-2.32-4.39A3.34,3.34,0,0,1,116.65,197.6Z"/><path class="cls-1" d="M89,200.44V201C87.75,201.22,88.53,199.59,89,200.44Z"/><path class="cls-1" d="M97,200.19c.93.13,0,2.51-1,2.32C95.8,201.21,96.94,201.22,97,200.19Z"/><path class="cls-1" d="M125.69,200.44c.3,0,.46.06.51.26.93.48,1.8,1,2.85,1.55.88.45,2.55.43,2.58,1.81C129.58,202.92,126.52,202.8,125.69,200.44Z"/><path class="cls-1" d="M132.4,200.7c.08.68-.09,1.11-.77,1C132,201.55,131.57,200.47,132.4,200.7Z"/><path class="cls-1" d="M93.66,201v1a1.67,1.67,0,0,1-1.29.26C92.51,201.54,92.64,200.8,93.66,201Z"/><path class="cls-1" d="M88.23,202.77a5.42,5.42,0,0,0,4.91.26C92.47,204.74,88.5,205.22,88.23,202.77Z"/><path class="cls-1" d="M118.71,204.58h.78c0,1.84.21,1.84.26,3.61-.84-.53-2.81.06-3.62-.51-.1-1,1.24-.48,1.29-1.29.57.29.86.86,1.55,1C119.12,206.24,118.51,205.81,118.71,204.58Z"/><path class="cls-1" d="M97.79,205.35c1.12.11-.27,1.5,0,0Z"/><path class="cls-1" d="M102.18,205.35c1.16-.2.86,1.62.26,1.81C101.36,207.12,101.63,205.72,102.18,205.35Z"/><path class="cls-1" d="M113.29,209.49c-1.1,1.69-4.87,3-7.23,1.8A59.22,59.22,0,0,0,113.29,209.49Z"/><path class="cls-1" d="M120.52,0a23.8,23.8,0,0,0,2.33,2.58c1.39.36,1.08-1,2.32-.77,2.33,1.46,3.34,4.24,3.62,7.75,2.66-1,6.2-1,8-2.84,2.57.47,3.76,3.62,3.36,6.2a10.28,10.28,0,0,1,3.36.51c.44,2.13-1.51,5.11.52,5.68.22.83-.85.36-.78,1,1.51.56,3.08-1,4.14-1.81,2.37,0,3.94-.67,5.94-.78,3.47-.17,6.08,1.57,9.29,2.07,2,.31,4.09-.31,5.95.78a18.56,18.56,0,0,1,2.32,7.75c1.89,1.64,2.16,4.9,4.13,6.45.64,3.2-1.1,7.07-2.84,8.79.06,1.1-.86,1.05-.26,2.06,2.5-2.07,4.53-4.6,8.27-5.42v2.32c2.87,1.2,6.05,0,6.72,3.1.32,1.52-.56,3.21-.26,5.17a11.86,11.86,0,0,1,5.42-2.33c1,.81,2.47,2.29,1.55,4.14-1.05-.85-1.55-2.24-2.58-3.1-1.77.56-2.68,2-4.39,2.58C181.19,59,174,64.19,166.5,69.23c-1.67,1.11-3.11,3-5.42,3.1,1.26-1.38,3.13-2,4.64-3.36,1.15-1,3.43-2.21,4.91-3.36s2.84-1.8,4.14-2.84c3-2.42,5.21-5.47,8.26-7.75.38-2,2.59-3.05,2.07-5.17h.77c-.88-1.12-.72-3.45-.26-4.65-1.36-1-4.19-.6-6.19-1.55V41.59c-4.77,1.18-6.34,5.54-10.08,7.75-.16-.78.27-3.18,1.29-3.62-.43-2.41-.2-5.48-1.29-7.23-2.83.87-7.22.18-8.52,2.58-.94-.23-.16-.76-.26-1.55-3.25.71-4.41,3.51-6.2,5.68-.07,2-.57,3.57-1.81,4.39-.48-.37,0-1.69-.52-2.06-.36,0-.73,0-.77-.26-2.27,2.22-5.24,5.1-5.94,9-.35,2,.3,4.18-1.29,5.68-.3,0-.46.06-.52.26-4.19.39-7.07-.85-7.23-3.61-.18-3,3.29-4.78,5.94-5.69,0,1.2,1.12,1.29,1,2.59a1.71,1.71,0,0,0-2.58.51,1.92,1.92,0,0,1,1.55.78c.72-.33-.81-.54-.52-1.29,1-.28.74.64,1.55.51,0,.73-.47,1.08-.51,1.81-1.19.07-1.07-1.17-2.33-1,0,1.16,1.89.52,1.81,1.81-.38.14-1.34-.31-1.29.25-.57,0-.56-.65-.52-1.29-.76.1-.22,1.5-1.55,1A5.19,5.19,0,0,1,140.41,55a4.15,4.15,0,0,0-2.58,3.62,5.45,5.45,0,0,0,3.36.77c1.08-.16,1.48-.91,2.32-1,0,2.76-3.91,2.18-5.17,1,0,2.31,5.48,1.77,5.95-.52a11.33,11.33,0,0,1,1.55-5.68c-1.92.5-.91,3.92-2.59,4.65.38-2.19.36-2.22.78-4.65-.31-.27-1.85.83-1.81-.77a6.35,6.35,0,0,1,2.07-.52c1.89-2.3,6.2-4.43,4.9-8.27,6-4.72,9.45-11.9,15.24-16.79-2.48,4.92-6,8.84-8.78,13.44-.57.14-.37-.5-.77-.52,0,2.61-1.32,3.85-2.59,5.17a1.7,1.7,0,0,1,.26-1.3c-1,.38-1.4,1.36-1.81,2.33.54.44,1.41-.81,1.81.52,2.65-3.6,4.62-8.82,10.59-8.27.22-.73-.36-.67-.26-1.29.73,0,.75.63.78,1.29,2.4.34,3.53-.61,5.42-.78-.16-1.21-1.17-1.58-1.29-2.84,2.13.55,1.35,4,3.36,4.65.44-3.28-.86-5.84-2.58-8.52-.44-.68-1.16-1.15-1.55-1.81-.64-1.09-.89-2.9-1.55-3.62s-2-.59-3.62-1.29c-.36-.15-.47-.68-.77-.77a24,24,0,0,0-10.85-.78c.29.31.73.47.51,1.29a13.83,13.83,0,0,1,6.2-.25,12.12,12.12,0,0,1-5.42.25c-.21,1.49-.65,2.52,0,3.62a7.36,7.36,0,0,1,2.84.26c-.22.95-2.19.45-2.84.26-.86.61-.08,1.54-.26,3.1.36.41,1.27.27,1.55.77.35-.25.33-.87.77-1,.12,2.56.54,6-.77,8-1.13,1.74-3.43,3.15-3.87,4.9-.61,0-.77-.44-1.55-.25-.54,1,.37.67.25,1.8-1.76-.29-2.47.46-3.87.52.28-1.44,2.38-1.06,2.84-2.32-.8-.88-1.44.6-2.58.25,3.86-2.67,8.75-5.41,8.26-11.62-1.2,0-1.06,1.35-2.58,1a34.8,34.8,0,0,0-.52-9.3c-3.76-1.57-7.8.49-10.07,2.07,1-1.9,2.75-3.53,2.84-7a8.71,8.71,0,0,0-.26-1.3c-.25-1.64.35-2.76-1-3.61-1.4,0-1.43,1.33-1.81,2.32-1.2-.55-.05-2.2.26-2.84.11-2.69-.82-4.35-2.33-5.42-.61.33-1.4.49-1.55,1.29-2.08.26-3.81.25-5.16,1-1.19.69-1.39,2-2.58,2.59.54,2.2,0,3.73-2.07,4.39a1.23,1.23,0,0,1,.77-1.55c-1.64-1.91.75-4.44,1-6.72.32-2.6-.61-3.56-1.55-5.94-1.08.64-2.77.68-4.14,1,.19-.79-.26-.94-.25-1.55-.74-1.42-2.81-1.5-3.88-2.58Zm32,18.34c-.22.92-2,.4-2.84.52-2.57.37-4.25,2.15-6.46,2.84-.4,0-.2-.66-.77-.52.08.61.41,1,.26,1.81,4.31.06,7.93-1.83,11.1-2.07a18.39,18.39,0,0,1,4.91.26c.5.1.79.62,1.29.78,1.94.61,4.07.4,6.2,1.29.12.93.66,1.25.26,2.06,1.29.92,1.85,2.76,2.58,4.4a52,52,0,0,1,2.33,4.9c.82,2.55.38,5.52,1,7.49,1.07-2.52.68-5.45,1-8.26a3.08,3.08,0,0,1-1.8-2.84c-1.73-1.37-2.29-3.92-3.1-6.2.3,0,.73,0,.77-.26h-1c.2-1.32-.36-1.88-.26-3.1C163.26,20,157.43,19.66,152.55,18.34Zm10.59,5.42h.52v-.51h-.52ZM150.48,44.43c1.77-1,2.32-3.19,3.88-4.39A10.29,10.29,0,0,0,150.48,44.43Zm2.59-1.29c.08-.46,1.36-1,.51-1.55C153.84,42.39,152.21,42.59,153.07,43.14Zm-7,9.55c.06-.48,1-1.34.52-1.55C146.65,51.73,145.37,52.28,146.09,52.69ZM140.67,55a.71.71,0,0,0,.77-.52A.71.71,0,0,0,140.67,55Z"/><path class="cls-1" d="M213.51,113.14c-1,.38-1.1,1.66-1.81,2.32-2.44.83-3.35,3.2-5.68,4.14.54,1.57-1.1,3.19-2.32,3.87.56,0,.11.92.25,1.29-1.84,2.29-3.67,4.59-7,5.43a6.92,6.92,0,0,1,5.68,4.39c.93.73,1.84.19,2.07,1.29-.91,2.19-3.92,2.28-5.43,3.87,2.38-1.09,2.74,1.67,3.36,3.1.53,1.23,1,1.14,1,1.81,0,1.71-1.52,3.85-3.1,3.62.84.88,1.54,1.21,1.8,2.58.11.57-.47,1.37-.51,2.07-.09,1.45.69,3,.26,4.13-2.49,1.56-3.82,4.28-7,5.17,2.24,6.29-5.59,5.69-9.3,4.39,2,2.4-.22,4-.51,5.94-.23,1.43.67,2.2,0,3.61-1.65-.4-3.44,0-5.17-.25-1.91-.33-3.39-1.5-4.91-2.07-.16.62.33,1.87-.26,2.07-1.22.1-1.86-.38-2.84-.52,1.17,5.7-2,9.29-4.13,12.14a49.7,49.7,0,0,0-4.13,6.72,39.21,39.21,0,0,1-2.59,4.39c-8-1.12-18.41.16-23.5-3.88.19,1.83-.57,2.71-1,3.88-.81-.28-1.09-1.08-2.06-.52.79,3-1.16,9-3.88,9.3-.66.06-1.18-.73-2.06-1s-1.66-.09-2.07-.26c-2-.87-3.1-3.19-5.17-3.62.79,2.68,1.7,6.78-.25,8.78-2.38.31-3.21-.93-5.17-1a2.55,2.55,0,0,1-.77,1.55c-2.46,2-6.34,4.82-10.34,2.32-.5-1.3-1.55-2.06-2.32-3.09,0-.66,0-1.33-.78-1.3-1.3.73-2.38,3.15-4.65,2.84s-4.33-4.14-3.61-7.49A11.11,11.11,0,0,1,90,207.42a13,13,0,0,1-4.65-2.58c-.34,0-.23.45-.51.51.48-.64-.36-1-.52-2.06-.22-1.43.5-3.53-.52-4.4-.74,1.67-2.66,2.16-4.13,3.1a29.94,29.94,0,0,1-.52-6.2c-2.18.92-3.21,3-6.71,2.59-.78.25-1,1-1.81,1.29-1.35.17-2.53-.25-3.62.26-.81.12-.68-.7-1.29-.78a1,1,0,0,1-1,1c-.68.07-.21-1-1-.78,0,.32-.07.61-.51.52-.92.14-.64-.92-1.55-.78,0,1.06-1.06,0-1.55,0-3.08,0-6.4-.79-8-2.84,0,.3-.41.28-.77.26a57.8,57.8,0,0,1-3.88-8c-.13-.38.12-.9,0-1.29-.21-.71-.73-1.05-.77-1.55s-.43-1.57.51-2.07c1.21.86,1,3.19,2.07,4.14.4,3,1.6,5.12,2.32,7.75,1.19.62,3.57.05,3.62,1.8,8.83-.43,19.75,1.79,24.8-4.13-2.38-.05-4.59,1.15-6.72.52-4.33,2.22-9.63,1.17-15.5,1a4.23,4.23,0,0,0-2.06-.77H53.1c-.87-4.51-4.12-8.67-2.84-13.69-.4-.38-1.2-.35-1.55-.78-1.2-4.6,1.24-7.69,2.33-10.85-3.32,1.23-3.57,5.29-4.39,9.82-.31,1.69.56,3.5-.26,4.65-.64,0-.8-.41-1.29-.52A72.24,72.24,0,0,1,47.16,172c-3.36,2.07-4.8,6-10.85,5.43-.53-.49-.29-1.35-.51-1.55-1.84,1.48-4.89,1-7.49,1a5.92,5.92,0,0,1-1-3.62c.3-3.17,3.36-4.74,3.62-6.71-1.11,1.56-2.78,2.55-3.87,4.13a18.4,18.4,0,0,1-6.72.52,8.37,8.37,0,0,1-1-3.88c-.42-.42-1.08.23-2.07,0-2-.82-3.37-2.31-4.91-3.61-1.46-3.49-1.38-8.81,1.55-10.6a17.74,17.74,0,0,1-5.16-1.29c-.62-1.94.44-2.82.51-4.65,2-2.11,5.36-2.91,7.75-4.65-4.16,1.1-6-1.73-8.78-2.84.06-.71.82-.73,1-1.29-.29-4.25,2.66-5.26,5.94-5.94-.31-1.49-2.57-1-2.58-2.84,1-2,4.4-1.46,6.2-2.58a12.39,12.39,0,0,1-7.49-2.85C8.5,121.83,8,118.32,5.32,116c-.79-.67-2-1-2.59-1.55a15.31,15.31,0,0,1-2.58-3.88c-.12-.69-.57-3,1-3.09a10,10,0,0,1-.25,2.84c2.38,2.18,4.42,4.7,7.23,6.45.09,1.8,2.19,1.6,2.07,3.62,1.82.32,2.23,2.31,3.35,3.36a13.45,13.45,0,0,0,5.94,2.84c-.95-.95-2.48-1.14-3.61-1.81a7.8,7.8,0,0,1-2.84-2.58c2.31.61,3.23,2.62,5.68,3.1,0-.31,0-.74.26-.78,1.69.46,3.11,1.19,5.42,1,0,.75,1.54-.16.26,0-2.58-.86-5.76-1.13-7.23-3.1,1.17-1.07,1.73-2.75,3.36-3.36-.71-.84-2.62-.49-3.1-1.55.71-.52,1.42.68,2.58.52.08-1.44-2.8-.49-1.81-2.07a9.68,9.68,0,0,1,2.33,1A5.06,5.06,0,0,0,23.14,115c-1.27-.46-2.68-.77-3.1-2.07,2.25-.24,2.7,2.31,4.39,1.81.35-.9-2-.38-1-1,.66-.62,1.26.26,1.81.52.64-1.34,3.29-.66,4.65-1.29-1.48-.42-2.14-1.65-2.33-3.36.62-.73.95-.25,2.07-.26,1.2-.31,2.5-1,3.87-1.29,1.62-.39,3.68-.09,4.39-1-7.69.49-18.48.1-26.08.52,3-1.27,5.69-1.17,8.78-1.3,2.68-.11,6.15-.5,8.78-.77,1.43-.15,4.87.4,3.62-2.33-1.54,1.65-4.72-.1-5.69.26.7-1.13-.41-1.3-.25-2.58.77-1.29,1.79-2.34,2.58-3.62-5.29-.22-9.49-1.53-12.66-3.87-1.17,2.4-4.12,4.26-4.39,6.71-.33,0-.36-.33-.77-.25-1.36,3.81-4.9,5.43-6.72,8.78,1.08.21.82,1.76,1.55,2.32,1.38,3.2,6.25,4.94,5.94,8.53-1-1.45-2.46-3-3.87-4.65-2.09-2.38-4.67-4-4.65-7.75A23.41,23.41,0,0,0,12,94.8c1.6-1.77,4.1-2.62,6.46-3.62-1-.14-2-1.44-3.1-1.29s-2,1.91-2.84,2.84c-1,1.16-2.31,2-2.84,2.84-.33.49-.21,1.31-.52,1.81-.68,1.12-2,2-2.84,3.1-1.67,2.15-3.47,5.12-5.42,6.46.72-4.12,4.5-6.14,6.45-9,.43-.63.55-1.36,1-2.07C9,95,9.68,93.74,10.74,93.76a5.08,5.08,0,0,1,4.13-4.13c0-.85-.43-1.28-.25-2.32,1.87-2.43,4-4.64,8.78-4.14-1.17-1.66-3.06-1.49-4.65-2.32-2.69-1.39-4.13-4-6.2-6.2-1-1-2.4-1.65-2.84-3.1C10.25,70.72,11,69,12,69.48c.05.82-.68.87-.51,1.81,3.46,3.77,6.74,7.72,12.65,9,.07,1.48.94,2.17.78,3.88-3.31.9-8.64-.21-8.78,3.87a7.73,7.73,0,0,0,4.65,2.84c1.17.18,2.83-1,3.61.52-1.87.68-4.79-.5-6.2,1a27.73,27.73,0,0,0,10.08,3.1c1.77.17,3.49-.21,5.16.52-1.5,1.85-4,2.67-4.91,5.17.18.6.86.69,1,1.29,2.33.85,4.41-1.55,4.91-1.55.1,0,.3.85.51.77s.23-1.83.78-.77c-.62,1.1-1.73,1.72-2.07,3.1,2.55,1.11,6.11-.37,9.3-.78,1.55-2.82,5.85-3,8.78-1.29.33,2.09,1.38,3.44,1,6.2-1.36,2.78-7.3,4-9,.77-1.85.36-2.66-.88-4.14-1C36,107.6,33,110.38,28.82,110c.43,2.32,3.35,2.16,4.14,4.13-4,.73-8.73.74-10.85,3.36.81.48,2.4.18,3.1.77a18.82,18.82,0,0,0-6.2,3.88c1.48,2,4.67,2.22,7.23,3.1,1.29-.15,4-1.16,4.91,0-.46,1.29-2,.75-3.1,1.29-.61.29-1,1.07-1.81,1.29-3.93,1.08-9.16-.91-11.88,1.81.57,1.76,2.84,1.81,4.13,2.84-2.94.59-6,1.08-7.49,3.1,1.71-.36,3.47-2,5.17-1.55-1.85,1.34-4.49,1.89-5.69,3.88.86,1.91,3.64,3.68,6.2,3.87,1.4.11,3.31-1.36,4.14.26-4.12,2.34-10,2.89-10.59,8.78,1.51.29,2.63,1,4.39,1,.45-.55.63-2.14,2.06-1.29-.31,1.79-2.75,2.75-3.61,4.65-2.87,6.29,2.2,10.67,8,10.85.34-.28,1.17-1.39,1.81-.52-.53,1.37-2.05,1.74-1.81,3.88,1.67,1.3,4.52.07,5.95-.52a8.86,8.86,0,0,1,3.87-3.62c.49-.65,1.58-2.78,2.58-1.29.08,1.11-1.21.85-1.29,1.81-.07,4.15-3.06,5.38-3.1,9.56a26.68,26.68,0,0,1,7.49-1c.28-1.11.61-2.15,1.81-2.33.19,1.58-1.94,2.18-1.29,3.36a40.89,40.89,0,0,0,5.17-.52c.83-1.78,3.06-2.52,4.39-3.61.2-.17.22-.78.51-1,1.83-1.6,3.67-3.66,6.46-3.36.1.79-.94.44-1,1-.6,3.73-4.6,6.14-2.84,10.59.87-1,2.35-1,3.61-1.55a19.46,19.46,0,0,0,3.36-1.81c.38-2,1.06-3.76,3.1-4.13-.72,2.64-3.11,3.6-3.1,7,5.66-.88,7.65-5.43,10.85-8.78.54-1.7.66-3.81,2.32-4.39a13.85,13.85,0,0,0-1,7c2.19-1.26,2.46-4.43,4.13-6.2.3.33.42,2.14,1,1.29-.21-1.13-.92-3.45,0-4.13a21.7,21.7,0,0,0,1.29,4.13c3.65-3.32,2.92-11,5.94-15,2.08-.09,3.32.64,3.87,2.07A15.39,15.39,0,0,1,89,155.76c.4,7.46-6.57,9.79-12.4,11.88.24,1.22,1.47,1.46,1.55,2.84-1.87,1.83-2.93,4.47-3.87,7.23a3,3,0,0,1,2.32.52c-1.47,2.84-3.57,5-3.62,9.3,2.73-.29,2.4-3.63,4.91-4.13.24,1.71-1.83,2.22-2.32,3.87s-.29,3.83-.26,5.68c.69-1.37,2.87-1.25,3.87-2.32.34,0,.24.45.52.52.88-1.28,1.67-2.63,3.36-3.1-1.35,3.45-3.7,7.24-2.59,11.62,2.41.08,2.7-1.95,4.65-2.33-.31,1.16.48,2.72,0,4.65a5.45,5.45,0,0,0,7,3.1c2.89-2.61,1.64-9.37,5.68-10.84-.34,1.37.25,3.66-.26,5.42-2.48,1.22-3,4.42-2.84,8.27.48.72,1.61.8,1.55,2.06,1.94-.64,2.64-2.53,4.65-3.1,2.6,1.1,3.57,3.84,5.42,5.68,6.39,1.84,8-5.94,13.69-2.58,1.93-2.91.26-6.59,0-10.07-.33-.56-1.46-2.07-.51-2.33,2.48,1.14,3.46,3.77,5.16,5.69,2.5.23,3.66,2.85,5.95,2.58,2.76-.33,3.25-4,2.84-7.49-.21-.66-1.36-1.16-.78-1.81,1.44-.23,1.76.66,2.58,1,.12-.83.87-1,1.3-1.55-.23-2.35-.29-4.87-1-6.71a11.43,11.43,0,0,0,3.62.26c.65.12-.72-1.29.52-1,.58-.07,1,.06,1,.52.11.71-1,.24-1,.77.59.44,2,.09,2.32.78.84-3-.36-6.63-.52-8.53.62.34,1.71.19,1.55,1.3,1.25.39,2.77.51,3.1,1.8-.47.5-.47.21-.25,1-1,.18-1.11-.44-2.07-.26.32,1,2,.83,2.58.26.19.62.73,1.56.26,2.06-.71-.37-2.51-1.65-3.1-.51,1.4.58,3.47.49,3.88,2.06-1.5.15-3.11-2.14-4.14-.77,1.16.91,3.54.6,4.14,2.07-1.6-.13-2.55-.9-4.14-1,.13,1.25,3.07.78,2.33,2.07-1.43.13-2.27-1.69-3.62-.78,3.83,2.7,10.7,2.33,15.5,3.36,3.55-5.06,6.27-10.95,9.3-16.53-.15,1.79-1.08,3.31-1.81,4.91-2.18,4.8-4.24,9.38-7.75,12.65a44.42,44.42,0,0,0-8-1,15.28,15.28,0,0,1-6.71-1.81c-2.3-1.22-4.18-3.35-5.69-1,.83,1.54,2.26,1.83,4.14,2.58.94.38,2.15,1.13,2.84,1.29,2.68.64,6.62.11,10.07.26,1.85.09,3.83,1,5.17.78.77-.14,1.27-1.26,2.07-.78,1.1-2,2-4.24,3.09-6.2.44-.75,1.3-1.25,1.81-2.06.64-1,.84-2.54,1.55-3.62.25-.38,1.09-.66,1.29-1s0-.95.26-1.55c.79-1.9,2.25-4.19,1.29-6.72a4.42,4.42,0,0,0-2.58-.51c1.4,3.16-.35,7.06-1.81,9,.13-2.69,2.89-5.3,1.29-8,.37,1.16-1.47,1.43-.77,2.07.14-.62.78.28.26.51-.83-.21-.54-.22-1,.26-.51-.18.17-1.54-.77-1.29-.76.53,1.17,1.9.26,2.58-.76-.28-.28-1.79-1-2.06-.51,1.59,1.26,2.9,0,3.61-.86-.68-.54-2.55-.77-3.87-1.59.1.08,1.91-.78,2.58-.62-.58-.25-2.16-1-2.58-.66.33.24,1.26-.26,1.29-.66,0-.51-.87-.51-1.55-1-.2-.18,1.37-1.29,1-4-.92-6.16-3.74-7.5-7-.61-1.5-.68-3.38-2.06-4.39.1,1.71,1.88,3.1,1.29,4.65-.95-.77-.92-2.53-1.29-3.88-1.32-.18.44,1.11-.52,1.29-.5-.1-.2-1-1-.77,0,.79,1,1.87.26,2.58-.31-1.36-1.19-.85-1.55-1.81,1-1.85,1.1-4.39,2.06-5.68,3.34,4.33,3.62,11.71,9.56,13.43.15-.46-.76-1.07,0-1.29,1.72.75,5.49,1.57,6.72.52-.21-1.33-.49-2,.51-3.1-.26-2.72-4-4.58-2.58-7.24,5,1.82,5.18,9.49,10.85,9.82.89-1-.69-1.9,0-2.58,2.53,1.2,5.43,3,9.3,2.06.23-3.43,1.71-5.87.26-8.52-.87-1.58-3.77-2.48-2.33-4.65,1.81.26,2.35,1.78,4.13,2.07.89,2.67,3.94,2.78,7,2.06a6.26,6.26,0,0,0,.77-3.61,23.22,23.22,0,0,0,7.49-6.2c-.29-2.63-.41-5.44-1.8-7a12.54,12.54,0,0,0,3.35-3.1c-2-1.49-2.59-5.61-6.45-4.39-.52-1-3.26.16-3.36-1.29a39,39,0,0,0,8.78-2.84c-.08-.6-.55-1.11.26-1.29.49-.06.57.29,1,.26-1.53-1.31-2.37-3.32-3.87-4.65-1.26-.38-3.44.16-4.14-.78a2.3,2.3,0,0,0,.78-2.84c-5.26-1.7-10.78,1.63-15.5-.77.11,1.48-3.17.69-3.1-.26,1.68,0,3.83-1,4.91,0,1.89-2.33,6.85-1.59,8.27-4.39a11.61,11.61,0,0,1-3.36-3.62c-.32-.47-1.16-1-.78-1.55,2.14.62,2,3.46,4.14,4.13,1-.64,1.22-.37,2.32,0,1.56-.45,4.37-2,4.91-1.29-1-.41-.54.67-1,.78-1.19.44-3.15.11-3.1,1.8,4.52.38,5.77-2.5,8.27-4.13a11.45,11.45,0,0,1-9.56,6.2c-.48,1.17,1,.35.78,1.29-1.85-.13-3.3.15-4.13,1,2.9-.51,7-.87,9.81,0,.19-.79-.44-.76-.26-1.55,4.61-3.66,8.06-8.48,13.18-11.63-.88-.55.35-.44.51-.77.41-.82.29-2.26.78-2.84-.19-.76-.79-1.11-1.29-1.55-2.09-4.64-3.9-9.54-6.2-14-1.79-.65-2.35-4.61-4.91-2.84.79.94,1.73,1.48,2.58,2.58a19.36,19.36,0,0,1,2.07,3.62c1,2.07,2,3.94,2.84,5.68.4.85.77,2.16,1.29,3.36,1.23,2.82,1.75,3.72.26,5.68h-1a22.42,22.42,0,0,1-6.72,5.42,45.83,45.83,0,0,1,7.49-6.45c1-2.31-.16-3.56-1.29-5.69-1.27-2.4-2.25-4.82-3.36-7-1-2-2.7-5.89-4.91-5.94-.89,0-2,1.15-2.84,1.29-1.71.28-3.07-.62-5.16-.78-.94-.06-2.27-.59-3.1.78,1.13,1.37,3.08,1.77,4.13,3.36a6.73,6.73,0,0,1,.77,5.42c.31,1,2.58,1.1,1.81,2.33-1.16-.39-1.54-1.56-2.84-1.81-2.26.75-3.92,2.07-7,2.58,0-1.41-1.2-.15-1.81-.26,1.33,0,1.61,1.15,1.81,2.33.1.62-1.18-.15-.78.77a107.42,107.42,0,0,1,17.57,1.29c.76.14,2.63-.47,2.32,1-7.61,0-17.57,0-23.5,0,.16-.93,1.72-.37,3.1-.52,2.65-.29,6.6-.13,8.26-.77-4-.53-7.22.48-10.85.25.41-1.23,3.34.07,4.14-.77-3.75-.91-6.7,1-10.34-.52.18,1.15,0,1.34.26,2.59-1.22.75.65,2.68-1,3.1a13.69,13.69,0,0,1,.26-3.36c0-1.07.27-2.51-.52-3.1-.6,1.12-.09,3.35-.26,4.91.08.68-1,.2-.77,1,.56.16.82-.73.77.26-.42,1.21-3.33,1.31-4.65.77a5.47,5.47,0,0,0,1.55-3.61c-1.78-.24-2.6.49-4.13.51.42-.92-.09-2.19.52-3.36.94.42-.54,2.87.51,2.59,1.09.14-.12-2,1-1.81.72.26-.08,1.1,0,1.55,1.22-.54,3,.59,2.84-1.55-2.66-.19-4.1-1.59-6.46-2.07-.1,1.62.27,3.72-.78,4.39-.27-1.88.8-3.59.26-4.9-.68-.67-.2.41-1,.26a4.38,4.38,0,0,0-6.2-1.81c-.07,2.06-1.07,6.36,1.55,7,.47-2.59.52-4.42,1-7.23,1.29,1.89-1.22,6.66-.25,8.26,1.37-.2.63-2.07.77-3.1.22-1.62.56-3.37.78-4.64,1.22,2.31-1.3,5.69.25,7,.9-1.17-.07-4.21,1.29-4.91.36,1.71-1.3,4,0,4.91.75-1.32-.1-4.24,1.3-4.91.14,1.7-1.1,3.37-.26,4.91.61-.31,1.59-1.13,2.32-.52-1.93,1.11-4.16,2.8-6.45,2.33-3.5-.73-4.09-6.19-2.85-9.82,3.24-2.22,6.84.77,9.3,2.07,2,1.07,3.88,2.06,5.94,1.81-.12-1.6-1-2.41-1.55-3.62,1.06.27,1.23-.07,2.59,0,.28,1.36,2,1.29,2.06,2.84,1.79,1.27,5.18.71,7.24.78-.72-.11,0-.82.51-.52.66-2.59-2.33-2.78-2.06-4.13,4.49,2,8.24-.92,12.14-2.33-.37-4.37-3.93-5.55-6.72-7.49-.07,3.69,4.19,3,4.39,6.46-1.07,0-1.28-1-1.55-1.81-2.79-.84-5.5-4.72-2.32-7.23,3.71-.5,9.93,3.17,12.4-.52-.48-1.76-2-2.49-3.1-3.61,4.55-.13,6.6-3.75,7-7.24-1.64-1.2-2.85-2.83-4.65-3.87a11.35,11.35,0,0,1-5.42.52c4.33-1.87,10.52-1.88,11.36-7.24a15.46,15.46,0,0,0-3.36-1.55,12.42,12.42,0,0,0,1.55-6.71c-1-.48-.5-.76-.51-2.07-.62-.52-1.33-2-.78-2.84-.86-.08-1-.87-1.29-1.55-2.23-.36-3.72-1.44-5.68-2.07a6.85,6.85,0,0,1,5.68,1.81c4.65.12,3,8.49,3.1,12.92,1.31-.2,2,.25,2.33,1,1.51,4.05-1.19,8-5.43,7,.93,1.75,2.75,2.59,4.91,3.1-1.53,2.22-1.26,5.44-2.84,7.49-.83,1.08-2.29,1-2.84,2.33.48.06.57-.29,1-.26A13.34,13.34,0,0,0,204.21,92c3.94,5.36,5.59,13,9.3,18.59ZM22.37,81.62c.37-.14,1.33.31,1.29-.25A.83.83,0,0,0,22.37,81.62ZM186.65,93.51c.54.74,1.95-.63,1.29-1C188,93.26,186.64,92.72,186.65,93.51ZM12,97.9c.74-1.68,2.12-2.71,3.1-4.14C13.75,94.63,11.84,96.33,12,97.9Zm32.81,5.94c.4-1.31,3.83-.9,4.65-.26C48.91,102.09,44.49,102.54,44.84,103.84Zm5.42,4.39a4.08,4.08,0,0,0-.26-4.65C50.77,105.18,50.12,107,50.26,108.23Zm-1.81,0c.52.43.33,0,1,0,0-2,.08-3.87-1.29-4.39C49,105,49.64,107.23,48.45,108.23Zm-1.29-.52c1.37-.59-.14-3.91-.77-3.35A3.53,3.53,0,0,1,47.16,107.71Zm-2.84-1.8c0-.18-.09-1.51-.26-.78C43.84,106.11,44.2,106.42,44.32,105.91Zm1.55-.26c.23-.54-.67-1.16-.77-.52C45.47,105.19,45.53,105.56,45.87,105.65ZM33,106.16c1.72-.34,4.2.08,5.42-.77C36.49,105.57,34.25,105.39,33,106.16Zm8.78.26c-.61-.51-1.73-.51-2.58-.77C39.15,106.61,41.53,106.53,41.74,106.42Zm129.93,8c-.6-1,.52-2.12-.52-2.58v2.84c3.38,0,2-6.42,1.29-8.27C171.89,109.37,172.31,112.31,171.67,114.43ZM47.42,108.75c-2.26.1-3.64-2-5.42-1.55C43.68,107.67,45.55,109.32,47.42,108.75Zm148.27,1.8c-.38.15-1.34-.3-1.29.26C194.77,110.67,195.73,111.11,195.69,110.55Zm7,12.4c1.18.06,1.28-1,1.55-1.8A2.9,2.9,0,0,0,202.66,123Zm-12.14.52c0,1.39,1.26.5,1.29-.26C191.19,123.11,191.25,123.68,190.52,123.47Zm2.07.26a2.16,2.16,0,0,0,2.58-.52C194.11,123.18,193.06,123.17,192.59,123.73Zm9.56,1.81c0-.59,1.55-1,.77-1.55C202.84,124.53,201.19,124.81,202.15,125.54Zm-1.81-.52c.45-.24,1.38,0,1.29-.78C200.89,124.19,200.22,124.21,200.34,125Zm-12.66.77c.81.49,1.95-.53,2.33-1.29C189.22,124.93,188.21,125.12,187.68,125.79Zm-166.35,0c-.15-.14-1.22-.6-1.29,0C20.68,125.46,21.11,126.55,21.33,125.79Zm176.17,2.33c.73-.21.67.36,1.29.26.38-1.26,3-1.66,2.58-2.84C200.43,126.75,198.76,127.23,197.5,128.12Zm-12.66-1c-1-.91-.61.83,0,0Zm13.43,13.69h.52c.4-.64-.88-.76-.78-.26C198.17,140.53,198.32,140.56,198.27,140.78ZM81.26,154c1.24-.74,2.29.75,3.1.26C83.75,153.28,82,152.85,81.26,154ZM81,155.24c.58-.2,1.4-.15,1.55-.77C81.91,154.6,81,154.46,81,155.24Zm-3.1,10.59A24.94,24.94,0,0,1,81.52,164c1-.48,1.07-.86,1.55-1.29.93-.85,2-1.2,2.58-1.81,1.57-1.51,1.91-4,.26-5.16a4.31,4.31,0,0,0-6.46,4.39c.24-4,5-6.16,7.23-2.33-.41,3.21-3.29,3.94-5.42,5.43a2.19,2.19,0,0,1-1.55-.26c-.4,1.09,1.43-.06,1,1A5.11,5.11,0,0,0,77.9,165.83Zm9.82-9.3c-.35-1.28-1.22-.4,0,0Zm-7.49,4.65c.94.17,1-.56,1.8-.51.52.17-.16,1.53.78,1.29.15-.93-.3-1.25-.52-1.81-1-.26-1.66,1.07-2.06.52,1-1.26,1.77-2.71,3.35-3.36,1.18.49.9,1.13.78,2.58-.46.06-1.29-.26-1,.52s.68-.38,1,.26c1.14-1.2.87-3.72-1-3.88C82,157.8,79.76,159.21,80.23,161.18Zm-.52,1.29c1-.31,1.89.69,2.07-.25C81,162.25,80,161.46,79.71,162.47Zm-1.81,2.59c.75-1.5-.64-.68,0,0ZM74,168.93c-.07-.45.72-1.29,0-1.55C74.31,168,73.24,168.61,74,168.93Zm-1.81,1c.17-.86.8-1.26,1-2.06C72.52,168,71.81,169.54,72.22,170Zm-43.91,2.33c.89-.49,1.8-2.33,1.55-3.1C29.34,170.22,28.82,171.25,28.31,172.29Zm46.49-2.84c-1.48.41-.59,1.29,0,0Zm-1,3.36c.34-1.09-1,0-.26,0,.16,0,.31,0,.26.25-4.87,5.29-8.6,11.72-13.69,16.79-.1.93-.42,1.65-1.29,1.81.52-2.64,2.62-4.76,3.87-6.71.52-.81.83-1.58,1.29-2.33,1.81-2.91,4.3-5.41,5.17-8.52-1,1.38-2.08,4.11-3.36,4.39.78-2.06,3.25-3.81,3.1-5.94-1.12,1.72-1.75,3.93-3.62,4.91.51-2.08,2.94-3.61,2.59-5.69-.77.45-.91,2.87-1.81,2.33.09-.69.64-.91.77-1.55-1.89,1.71-2.88,4.16-4.9,5.68a13.8,13.8,0,0,1-5.69,2.07c-.06-1.06.26-2.49-.51-2.84.31,1.27-.68.46-.78.51a12.21,12.21,0,0,0-3.87,3.1c.53.92,2.06,4.13.51,4.65.82,2.3,3.05,4.22,2.33,7.23,1.92-.63,3.55.69,5.42,1,3.93.73,8.33-.62,13.18-.52,1-.68.58-2.69,1-3.87-1,.12-1.61-.11-1.81-.78.33-2.11.24-3.15.52-5.42a47.47,47.47,0,0,0,3.1-4.14c-1.73.38-2.13,3.34-3.62,3.1.46-1.69,2.88-2.8,2.59-4.39-1.63,1.05-1.86,3.49-3.62,4.39.54-2.21,2.2-3.3,3.1-5.16-1.88.82-2.41,4.27-4.13,4.39,1.27-2.43,4.16-4.62,4.65-7-1.37,1.81-3,3.57-4.14,5.17-.41.6-.27,1.76-1.29,1.81-.83-.93.44-1,.78-1.55,1-1.56,2.07-3.26,3.35-4.91s3.06-3.1,3.1-4.91c-.38,1-.4.05-.77-.26C74.69,170.8,75,172.58,73.77,172.81Zm-3.1.77c0-1,2.27-1.69,1-2.32C71.4,171.92,70,172.82,70.67,173.58Zm.52.26c1.27-.34.4-1.22,0,0Zm-.78,1.55c0-.31.46-.59,0-.78C70.37,174.92,70,175.2,70.41,175.39Zm-1.81,1.55h.52v-.52H68.6Zm-1.29,2.58c.31-.81,1.12-1.12,1.29-2.06C67.67,177.48,67.11,179.22,67.31,179.52Zm104.1,1a.72.72,0,0,0-.52-.78A.73.73,0,0,0,171.41,180.56ZM51.3,183.91c0-.64,0-1.25-.52-1.29C50.74,183.26,50.73,183.88,51.3,183.91Zm94,1.29a5.62,5.62,0,0,0-2.58-1A1.91,1.91,0,0,0,145.32,185.2ZM97.53,211.29c1.21-.34,2.25-.85,2.59-2.06A3.66,3.66,0,0,0,97.53,211.29ZM111,212.84c-.93.42-2.16.72-2.58,1.29a10.82,10.82,0,0,0,2.58-.51c1.07-.45,2.41-1.44,2.33-2.07C112.88,212.33,111.76,212.49,111,212.84Z"/><path class="cls-1" d="M71.44,26.35c1.36.45,1.2,2.42,2.59,2.84.3-.91-1.32-2.12-1.55-3.36,1.35.46,1.88,1.73,2.06,3.36.9.21,1-.39,1.81-.26-.29-1.6-.22-3.57-.52-5.17,1.4-.23,2.9-.37,4.4-.51-1.17-1.94-4.49-1.72-5.43-3.88-4.39-1.12-8.38-2.63-12.91-3.61-2.87.62-2.3,2.48-3.36,5.94-.61,2-1.72,3.09-1.29,5.94a19.44,19.44,0,0,0-.78,2.58c1,.1.4-1.49,1.55-1.29-.34.95-.23,2.35-1.81,2.07.65.91,1.48.16,2.33-.26.12.81-.79.58-.52,1.55.68.08.67-.54.78-1,.85.15.37,1,.25,1.55.23.77.39-.59,1-.25-.61,1.53.29,1.15,1,2.06.52.65,0,1.69,1,1.55a23.41,23.41,0,0,1-.25,4.65c-1.57-3.25-3-6.62-5.94-8.52-1.29-.24-1.79.12-2.59-.78-.58,2.84-2.72,8.13,1,9,0,.83.58,1.14.51,2.07-3.33-.46-3.69-3.88-6.46-4.91A9.87,9.87,0,0,0,42,32.8c-.34,1.87,1.83,2.39,1.29,3.62-3.53-.62-7-2.18-10.85-1-.19,2.69,1,4,1.55,5.94-2.1,1.46-2.05-1.3-3.1-2.07-1.45-1-2.49-.73-4.39-.51v2.58c.06.67.44-.36,1,0-.6,1.46-2.42,1.71-4.65,1.55-.68,1.64-2.6,2-4.13,2.84-.05,3.22-1.27,5.28-1.29,8.52-1.51-2.49.9-5.66,0-8.78,1.65-1.19,3.62-2.06,5.16-3.36,1.3-.08,3.06.3,3.62-.51-.38-.66-1.35-.72-2.07-1,.44-.42.21-1.51.26-2.32,1.64-1.42,5.64-1.37,7,.26.35-.88-1.05-2.22-1-3.62,3.61-1.79,6.77-.73,10.85,0A15.18,15.18,0,0,1,40.71,31c3.95.52,5.36,3.58,8.26,5.16.87-2,.26-4.08.52-5.94.18-1.3,1.06-2.48,1.55-3.87.19-.56.05-1.31.26-1.81.13-.32.65-.46.77-.78.2-.52,0-1.21.26-1.8.43-1.23,1.35-2.43,1.81-3.62.22-.58,0-1.22.26-1.81.36-1,1.47-1.38,1.29-3.1a6.76,6.76,0,0,0,2.84-2.32c4.32.46,9.35,2.38,13.69,3.1a20.88,20.88,0,0,1,7,2.32c.85.46,1.94.68,2.33,1.55-.34.71-1.56-.14-1.81-.26C78,17,75.75,15.33,73.25,15c-1-.14-2.22.19-3.36,0-.57-.09-.77-.6-1.29-.77-.78-.27-2-.2-3.1-.52-1.25-.37-3.63-1.66-5.42-1.55-3.86.25-4.15,4.62-5.68,8.52-2,5.15-5.15,9-4.14,16,1.43-.74,1.21-1.66,1.55-3.62.73-4.17,3.56-7.59,4.39-11.62,2.65-2.85,1.77-7.52,6.72-7,.75.08,1.3.75,2.07,1,.61.22,1.39.05,2.06.26,4.3,1.29,9.39,3,12.66,4.39-.48,2.16,3.35,2.05,2.58,4.91,1.17.81,1.9,2.06,3.62,2.32.5-.9-.79-1.87-1.29-2.58-.12-2.38-1.17-3.83-1.29-6.2h1c-.44-.88.13-1.51.52-2.58.19-.54,0-1.62.77-1.55a21.35,21.35,0,0,0,1.81,13.94c-4.57,1-5.66-6-10.59-3.87a15.23,15.23,0,0,0,.77,5.68,8.59,8.59,0,0,0-4.9,0c.77,1.62.27,3.19.51,4.65.75,4.55,4.56,5.87,6.72,9-1.14.21-2.15-1.76-3.88-1.81-.7.91.06,3.58.78,4.91,1,1.8,3.09,3.13,4.39,4.13.35,1.57,2.67,2.21,3.1,3.88.73,2.8-1.12,4.58-2.33,6.46-3.06.71-5-2.5-5.68-5.69-.8-3.95.68-9.37-2.58-10.84-.91.64-1.23,1.87-1.55,3.09-.88-.23-.53-1.7-1-2.32A1.17,1.17,0,0,0,72,46c-1.67-4.53-3.5-8.9-6.72-11.88H63.69c-.69.25-.32,1.57-1.29,1.55a4.92,4.92,0,0,0-.26-4.91c1.18.2,1.17,1.59,1.55,2.58,1-.2,1.24.32,2.07.26a19.39,19.39,0,0,1,6.46,11.11c1.27-.45,0-2.63-.26-3.36-.72-1.69-1.7-3.48-2.58-5.43-1.56-3.42-3.14-6.91-4.65-10.33-.53-1.2-1.44-2.24-1.55-3.61,1.83.83,2.23,3.57,3.1,5.42,1,2.12,2.43,4,3.1,6.2a1.91,1.91,0,0,0,.77.52,4.76,4.76,0,0,0,1.29,3.1c-.11.23-.22.46-.51.51.73,2.19,2.25,3.6,2.58,6.2,1.37,0,.25-1,.26-1.81.59-.08.29.75.77.78-.56-3.14-3.13-6.51-4.13-10.08,2,2.61,3.16,6,4.65,9.05.18-.52,1.54.16,1.29-.78-.42-.87-.82.81-1.29,0-.58-2.52-2.26-3.94-2.58-6.72-1.27-.88-1.84-2.46-2.33-4.13,1.19.62,1.21,2.41,2.07,3.36,1.24-1.85-2.55-3.55-2.33-5.68,1.17.38,1.19,1.91,1.81,2.84.74-.21.41-1.49,1.55-1.29A12.44,12.44,0,0,1,71.44,26.35Zm-16,2.06c1.07.54,1-1.4.52-1.55C56.22,27.83,55.3,27.6,55.43,28.41Zm-1,.52c-.28,1.5,1.12.11,0,0Zm1,1.81H56v-.52h-.52Zm-.52-.26c-.23-.2-.74.16-.77.26C53.77,31.71,55.42,30.92,54.91,30.48Zm23,21.44c.44-.49,1.48-.7,1.81,0-.55.88,1.18,2.49,0,3.36-1.1-.08.17-1.09-.52-1.29-.8.56-.49,2.59.26,3.1,0-.9-.26-1.09,1.29-1.3.34-1.13-.86-2.22.26-2.58.39.9,2.22,2.53,1,3.36-.37-.4-.34-1.21-.77-1.55.46,2.7-1.09,2.19-1.55,2.84,1.3,1.11,1.61-1,2.58-1,0,.26.21.3.26.51C81.84,58,82,59.53,81,59.93c1.6.37,2.08-2.31,2.07-3.36,0-2.82-2.76-5-4.39-5.94C79,51.48,76.93,51.26,77.9,51.92Zm-.77.52c.5,3.29,1,8,3.87,8-2.39-1-2.68-4-3.36-6.71.1-.57,2.31-1.28,1-1.55C78.27,52.49,77.67,53,77.13,52.44Z"/><path class="cls-1" d="M152.55,120.37c6.36,3.85,17.94,3,26.61,1.81-1,1.17-2.89.84-4.39,1-7.19.91-16.57,1.82-22.48-1.81-1.21,1.7.07,4.5-1.81,5.69a8.56,8.56,0,0,1,.52-2.59c-2.13.8-3.4,2.45-5.42,3.36,10.14,7.25,21.54,13.24,32.29,19.89,1.22.42,1.63,1.63,3.35,1.55.75,1.33,2.53,1.66,3.88,2.33s3.07,1.2,3.61,2.58c-.84-.1-1.67-.23-1.8-1-14.19-5.44-25.87-13.39-41.85-17-.55.12-.49-.37-.52-.78-1.06.21.14,1.07-.51,1.55-.63.11-.56-.47-1.29-.26-.26.78.57.46,1,.52,0,1.59-1.8,1.47-1.81,3.1.26.43,1.1.28,1.55.52a48.09,48.09,0,0,1,8.52,9.3A50.88,50.88,0,0,1,158,160.15c.32.75,1,1.71.77,2.58-1,.86-1.17-.93-1.29-1.81-4-7.64-8.22-15-15.24-19.63-1,.11.25,1.23-.52,1.81-.64-.39-.32-1.74-.77-2.32-.53.16-.08,1.3-1,1,.59.79.63,2.13.78,3.36-1.13-.17-.54-2-1-2.84-1.89.8-4.83,2.94-6.72,2.06-.54,1.18-2.1,1.35-3.87,1.29-.65.44-.35,1.82-1.55,1-.86,2-3,2.73-4.4,4.13.23,1.27-.25,2.44-.25,3.62,0,7.69,3,13.95,4.39,20.4-1.25,0-1.11-1.58-1.55-2.58-2.14-4.79-3-12.68-4.39-18.86-1,0-.74-.29-1.55,0-1,6.06-1.77,12.48-.78,19.63.55,4,2,10.67,3.62,14.21,1.49,3.21,3.92,5.77,4.65,9-1.38-.89-2-2.69-2.84-4.13a42.3,42.3,0,0,1-4.4-9.82c-.25-.9-.54-1.91-.77-2.84a50.75,50.75,0,0,1-1.29-8.52,65.75,65.75,0,0,1,.26-17.31c-.42-1,1.11-.09,1-.77-.56-.38-2,.53-3.36.25.79.76.06,1.79.26,3.36-1.09,0-.26-2-.52-2.84-1.6.38-.09,3.87-1.29,4.65-1.18-.47.49-3.5-.51-4.65a53.5,53.5,0,0,0-3.62,10.85c-.25,1.17-.12,2.76-.26,3.87-.4,3.13-.86,6.16-1,9.56-.31,6.06-1.17,11.81-.78,18.86.14,2.4,1.22,5,0,7.23-1.48-.64-.48-2.21-.51-3.36-.1-3.42-.51-7.48-.52-10.59,0-4.21.41-8.3.26-12.14-.38-9.73-1.79-19.39-3.1-29.19-.7.26-.26,1.9-.26,3.1s.28,2.32-.26,2.84c-.6-1.29-.09-3.7-.26-5.42a5.5,5.5,0,0,0-2.06.78c1.1,9.8-1.89,19.55-4.39,27.63-.55,1.77-1.57,3.46-2.07,5.17A26,26,0,0,1,93.66,187a50.18,50.18,0,0,1-2.59,5.69c-1.23-.56.08-1.81.26-2.33,1.44-4.15,2.78-8.07,4.39-12.66,1.93-5.49,4.17-10.74,4.65-17.82.21-3,.09-6.31,0-9a9.61,9.61,0,0,1-2.84.26c-.91,1,.68,4.47-1,4.65-.29-1.74.74-3.3.26-4.39-1,1.88-.57,4.07-1,5.94-1.09,4.43-3.56,8.15-4.9,12.14-.64.61.38.48.25,1.29-.87-.2-2.15,1.69-1.55,2.84A4.63,4.63,0,0,0,87.46,178c-2.13.11-1.77,2.71-3.62,3.1a3.7,3.7,0,0,1,1.81-2.84c2.47-5,5-10.11,7.23-16C94.25,158.62,96,155,95,150.59c-.53.94-.11,2.82-.78,3.62-.55-1,0-2.61,0-3.36-4.75-2.31-8.06-6.06-13.17-8,0,1,1.51.39,1.55,1.29a16.4,16.4,0,0,1-.77,3.36c-1.67-.51.35-1.84.25-3.1-1,1.17-2.64,2.15-3.87,3.36s-1.79,3.29-3.36,3.36c1.68-2.88,4-5.08,6.2-7.49a2.89,2.89,0,0,0-1.81-2.07c-.58.79-.52,2.24-1,3.1-1.39-.54,1-2.91.26-3.62-.9-.35-1,2-1.29,3.1-1.17-.8.14-2.95.51-3.87-2.12,0-3.6,2.25-5.16,3.62a28.32,28.32,0,0,0-4.65,4.39c-2.75,3.36-5.9,6.33-7.75,10.59-2.5.68-2.59,3.78-4.91,4.65,0-.83,1-1.81,1.81-2.84s1.35-1.9,2.06-2.85c2.77-3.69,5.6-7.47,8.79-11.1a38.5,38.5,0,0,1,3.87-3.62c.45-.39.65-1,1-1.29,1.11-.92,3.24-1.2,3.09-3.1-.42-.57-1.15.72-1.29,1.29-1.25-.24,1.3-2.31-.25-2.84-.86.26.22,2.65-1.3,2.84-.62-.82.67-1.43.78-2.32a31.42,31.42,0,0,0-10.33,5.16c-3.83,2.73-7.69,5.53-11.37,8.53-2.68,2.18-5.39,4.29-8,6.71-.82.77-1.35,2.09-2.58,2.33,0-1.26,1.34-1.87,2.07-2.59,7.41-7.27,16.27-14.6,26.34-19.63.51-1.13,1.44-1.83,1.55-3.35,1.08,0-.09,1.63,0,2.32a6,6,0,0,1,1.55-.52,4.42,4.42,0,0,0-.51-2.58c-3.76.29-6.47,2.32-10.34,3.36a33.08,33.08,0,0,0-3.35,1.29c-3.18,1.27-6.24,3.18-9.56,4.65-6.5,2.88-13,5.85-19.12,9.3-3.14,1.77-6.39,3-9.29,4.65-1.4.77-2.36,2.12-4.14,2.06,1.55-3.67,6.46-5.8,10.34-7.74,1.14-.58,2.15-1.74,3.35-1.3-4.7,2-8.22,5.21-12.65,7.49,1.9.05,3.54-1.22,5.16-2.06a105.36,105.36,0,0,0,9.56-5.94c4.55-3,10.26-5.2,15-8.27a103.72,103.72,0,0,0,16.27-12.66c.68-.68-.41-.2-.25-1,.94.23,1.39-.14,2.06-1.29-.51.38-1.73.87-1-.26-11.23,5.36-23.54,11.61-35.65,14.47.83-1.42,2.89-1.6,4.91-1.81,9.81-4.83,21.46-7.81,29.45-14.47-.47-1.43-.62-3.17-1.29-4.39-6.08,4.86-16.73,6.52-25.06,8.27,7.93-3.27,18.43-4,24.54-9-.09-7.14,1-11.85.52-19.12-5.2-3.42-14.79-3.74-22.73-4.13-.41,0-1.16.48-1.3-.26.85-1,2.53-.5,3.62-.52a56.23,56.23,0,0,1,20.41,3.62c-.13-1.34.27-3.2-.26-4.13-4.72-3.22-11.35-4.43-17.31-6.72-2.58-1-7.42-2.89-10.85-3.36-.6-.08-1.22.14-1.81,0-2.22-.51-4.17-1.89-6.45-2.06.65-.88,2.09-.2,3.1,0a64.28,64.28,0,0,1,11.1,3.1c8.56,2,16.05,5.13,23.51,8.26.57-1.92,2.15-2.84,3.36-4.13-.42-2.61-3.17-3.81-4.91-5.68-3.85-4.14-8.23-8.07-12.14-12.14-1-.1-1.65-1-2.33-1.55-4-3.17-8.66-6.28-12.14-10.33a38.85,38.85,0,0,1-9-7.5c1.15-.86,2,.49,2.84,1a69.35,69.35,0,0,1,5.69,4.65c1.53,1.25,3.45,1.83,4.39,3.61.73-.21.67.37,1.29.26,2.73,3.13,7.12,4.59,9.82,7.75.6.08,1,.41,1.8.26.12.49.56.65.52,1.29,3.46,1.55,6.56,3.63,10.07,5.43a31,31,0,0,0,6.46,2.84c.64.16,1.63-.47,2.07.51,1.11,0,.87-1.37,2.32-1,.79-2.22,2.42-3.61,3.88-5.17-1.74-1.93-3.57-3.61-5.17-5.68A74.91,74.91,0,0,1,67.57,62c-2.64-4.26-5.95-8.49-7.49-13.69,1.39.4,1.31,1.89,1.81,2.84.6,1.15,1.42,2.23,2.06,3.36a90.45,90.45,0,0,0,6.46,10.59,59.6,59.6,0,0,0,6.72,8c1.23.29,1.09-.8,2.32-.52-.08,1.63-1.86,1.73-2.84,2.85-.26.29-.39.93-.78,1.55-1,1.63-2.52,4.07-1.8,7,.19.77,1,1.1.77,2.07,4.35,3,10.93,3.88,14.47,7.74.43,1,.2,2.73.25,4.14-2.52,2.28-4.75.28-6.71-1.55-.34-.32-.66-.7-1-1a18.54,18.54,0,0,1-3.88-4.13c-3.75-1.1-6.87-1.55-10.59-.51a7.75,7.75,0,0,0-3.1,3.61c-2,4.2-.62,11-1.29,17.57-.27,2.66-1.28,8.12,1.29,10.07.11.88-.77.78-1,1.29.3.9,2.26.15,1.81,1.81,2.84.2,3.49,1.88,6.2,1.81,2.32-.07,5.68-2.17,7.23-3.62.61-.57,1.08-1.7,1.81-2.32,2-1.76,4.66-2.37,7.49-2.84,0,1-1.26,1.78-1.29,3.1-1.7,1.83-4.72,2.33-6.2,4.39-2.87.66-4.5,2.56-6.2,4.39.44,1.28-.44,1.93-.26,3.61.23,1.24,1.79,1.14,1.55,2.85,2.08,1,3.47,3.11,5.42,4.39.66.43,1.45.35,2.07.77.94.64,1.41,1.63,2.58,2.33h1.29c3.67,3.93,12.9,7.09,17,1.55-.13-.66-.44-1,.52-1-1.07-4.77-2.66-11.12-.52-15.75,1.21,0,2,.83,3.1.25,1,3.19,1.76,5.61,1,8.79-.15.67-.82,1.16-1,1.8a26.77,26.77,0,0,0-.77,4.4c.09,2.5,2.81,7,5.42,7.49,1.88.36,6-.42,8-1.29s4.49-3.66,6.71-4.91c.47-.26,1.09-.23,1.55-.52.67-.4,1.33-1.18,2.07-1.55,1.56-.78,3.51-.67,5.17-1.29,3.56-1.33,6.63-5.13,6.2-8.52a8.7,8.7,0,0,0-3.62-5.17c-.48-.28-1.53-.24-2.33-.52-1.8-.63-3.89-1.64-6.45-2.32,0-1.53-2.14-1-1.81-2.84-.35-.43-1.46-.09-1.81-.52v-1.81c-1.81.14.15,2.55-.77,3.36-1.11,0,0-2.22-.78-2.58-.91.78.55,2.37-.26,3.1-1.25.13.08-2.32-.77-2.59-1.21.34.23,2.07-.26,3.36-1-.33-.37-2.38-1-3.1-.77.79.63,2.67-.26,3.62-1.07-.49.06-2.09-.78-3.1-.77,1.39.51,3.25-.51,4.39,1.89,3.53,3.88,7,5.68,10.59.79.5,1.86.72,2.58,1.29a6.08,6.08,0,0,1-1.55,4.39c-3.06,1-6.45-1.71-4.39-4.13a100.91,100.91,0,0,0-7.75-12.66c-.5.44-.08,1.82-.77,2.07-.89-.63.5-2-.26-2.58-1.64.22-.26,1.93-1,3.1-1.3-.21.56-2.07-.78-2.33-.59.36-.1,1.8-.26,2.58-1.26.15-.61-1.62-.77-2.58-1.49.34-.59,1.47-.78,3.1-1.36.24-.38-1.86-1-2.32-.72.31-.48,1.58-.52,2.58-1,.17-.74-1-.77-1.81a14.72,14.72,0,0,0-1.81.78c-1.55-1.78-4.14-1.14-5.17-3.62-1.49.39-1.21,2-1.8,3.1-.44.77-1.24,1.5-1.81,2.32-1.48,2.13-2.9,4.84-4.65,7,.17,1.46-.47,2.12-.52,3.36-2.11,1.75-5.35.26-6.71-1a13.67,13.67,0,0,0,.77-2.58c6-3.15,7.89-10.36,11.37-16-2.17-1.29-4.53-2.37-6.2-4.14.21-2.16-.62-3.76-.78-6.2-2-1.68-5.52-1.13-9.3-1.29-2.66-.11-5.42-.56-7.49-.26-1.36.2-3.85.72-5.16-.77,0-1.34-.16-2.92.25-3.88,1.57-1.44,5.16-.6,6.46.52,6.32.38,11.23.84,16.53,0,.15-3.47.61-8,3.1-8.27-1,2.18-2.47,4.78-1.55,7,1.1,2.6,4.62.94,6.46,2.84-.33.88-1,1.36-1.29,2.32-1.56.6-4.42-.11-5.94.52-1.6,1.71.12,3.79-.26,6.46,2.18.83,3.45,2.58,5.68,3.36,2.37-.33,2.57-3.65,5.43-2.07.83,1.87-1.73,2.57-2.07,3.88a5,5,0,0,0,1,4.13c2.21-.06,3.33,1,4.91,1.55a20.2,20.2,0,0,0,6.46-3.36,12.17,12.17,0,0,1-.78-5.17c2.53-.43,4.47,1.89,5.69,3.62,2.24-1.29,5.33-1.73,7.23-3.36-4.86-2.45-9.4-5.23-14-8-.62.33-1,1-2.07.78-.26,1.26-.76,3.24-1,5.42-.35,2.87.26,6.32-1.29,7.75a111.2,111.2,0,0,0,0-12.91c-1.42-1.72-6,.73-8,1.81-2.22,1.16-4.12,3-5.94,2.84,2.17-1.82,5-2.78,7.23-4.39,1.13-.8,1.89-2.13,3.36-2.33.08,1-1.19.7-1.29,1.55.37.43,1.42-.63,2.07-.77-.86-.83-.06-1.79-.26-3.36-.09-.34-.46-.41-.52-.78-2.19-1.77-4.53-3.45-7-5.16-.69-.49-1.85-.83-2.07-1.81,1.18-.57,2.3.9,3.1,1.55,3.66.44,6.62,3.55,10.33,2.32.57-4.58.29-9.14.52-13.43,0-.6,0-1.67.77-2.06.33,2.14,0,6,.26,9.55.19,2.38.85,6.44,2.33,7.24,3.18-1.47,6.81-2.49,9.55-4.4,1.14-.32,1-1.9,2.85-1.55.14,1.56-1.72,1.81-2.59,2.33a81.89,81.89,0,0,0-8.26,5.94,17.9,17.9,0,0,1-1,3.1c.87,1.46,2.91,1.74,4.14,2.84-.33-1.82-3-1.35-3.1-3.36,4.34,2.46,7,6.6,11.88,8.53-.61-1.87.53-3.39.26-5.69-.88-1.27-2.29-2-4.65-1.8-.59-.53.07-2.32-.52-2.84-.64.22.08,1.79-.52,2.06-2.16-.69-.46-3.29.78-3.61,1.47-.06,2.12.45,3.36,0,.48-.3.55-1,1-1.3.17-2.49-1.38-7.12,1.55-7.49.19,1.14-.84,1.06-1,1.81.38,1.88.55,5.46-.26,7,.28.66,2.14-.25,1.81,1a4.83,4.83,0,0,1-2.07-.26c-.08,1.46.46,2.3.26,3.87C130,108,139,109.39,144,109.26c.92-.06.94.78,1.81.78a2.19,2.19,0,0,1,1.55-.26c.2-1.06-.4-1.33-.26-2.32a5,5,0,0,0-3.88-1.3c1.77-2.34,5.17-.15,5.43,2.07s-1.25,3-3.1,3.87c-2.48-2.48-4.94-1.89-9.3-1.8-3.48.06-6.34-.2-9,.77.63,2.56-.06,5.25,0,8,.4.92-.88.15-.78.77,1,.91,1.38-1,2.59-.77,6.24,1.59,8.79,6.87,16,7.49,4.82-1.59,6.86-9.58,4.91-14.72.9-5.48,2.15-13.12-.52-17a5,5,0,0,0-3.1-2.07c-2-.28-4.29,1.15-7,2.07-.95.32-2.08.11-2.84.77-.49.43-.76.36-1.81.78-2.69,1.07-3.58,3.31-6.72,1.81-2.35-6.42,5.72-5.94,10.33-8,2.46-1.11,3.5-2.69,5.17-3.36,0-1.26,0-2.57,1-2.84A18.07,18.07,0,0,0,142,79c-1.47-1.69-5-3.44-7.23-5.16-.69-.54-1.74-1-2.33-1.55-2.72-2.54-4.44-5.49-6.45-7.24-2.29-2-6.91-4.22-9.56-2.84a11.5,11.5,0,0,0-1.81,1.55c-2.64,2.65-2.68,7.86-3.36,12.66-.27,1.94-.65,3.48-1,5.68-1.1.06-1.39-.67-2.58-.52-1.53-2.24-2.24-7.4-.78-10.33a22.17,22.17,0,0,0-2.58-8.52c-5.48-1.72-9.37,1.55-13.43,2.84-2.47,1.85-4.71,5.27-8.27,5.17,4.18-2,6.29-6.12,11.11-7.5a17.08,17.08,0,0,0-.52-6.19c-.13-.5-.59-.8-.77-1.3-.84-2.3-.36-5.27-2.07-6.71a57.42,57.42,0,0,0-9-17.57C80,29.8,78.5,28.34,77.64,26.35,81.48,30,84.86,35,87.72,40.3a52,52,0,0,1,3.61,8.26C92.82,53,94.7,56.7,95,62.51a11.64,11.64,0,0,1,7-1.29c1-13.76-2.4-28.38-5.16-41.33,1.88,3.57,2.35,8.12,3.36,12.66A125.1,125.1,0,0,1,103,52.69c.15,3,.37,6.23-.26,8.53.72.91,2.78.49,3.87,1,3-7.16,4.51-17.73,5.43-26.86.66-6.59.07-13.85,1-19.89.23-1.45.51-3.08,1.55-4.13.16,2.58-1.28,3.94-.26,5.42-1.17.65-.91,3.63-.26,4.65-.84.62-.67,2.59-.51,4.39.41,4.76-.52,10.59-.52,16,0,4.78,1.26,10.07,1.55,14.2.15,2.14-.19,4.08,1.55,5.17a3,3,0,0,0,1-1.55c.38-1.36.46-2.91.78-4.39a114.34,114.34,0,0,1,2.84-12.4c1.68-5.11,3.74-9.77,5.68-14.47.22,2.9-2.17,5.41-2.32,8.79a5.66,5.66,0,0,0-1.29,1.8c-2.38,6.08-3.2,13.92-4.65,21.19.68,1.21,3.17.61,3.87,1.8a26.94,26.94,0,0,0,1.81-5.42c3-4.83,4.83-10.36,8.26-14.72,1.18-1.5,2.85-3,4.14-4.4s2.59-3.44,4.65-3.87c-7.2,7.87-14.07,16.06-17.57,27.64,0,.21.26.26.26.51.11.93,1.17.91,1.81,1.3,2.7,2.63,5,5.63,7.75,8.26a4.92,4.92,0,0,0,2.58-2.84c2.4-.52,2-3.88,3.88-4.91-.66,4.08-3.58,5.9-5.69,8.53,1.91.57,3.73,4.31,6.2,4.39,1.64.05,4.36-2.76,5.94-4.39A80.39,80.39,0,0,0,159,54c.85-.1.52-1.38,1.55-1.3.18-.84.12-1.94,1-2.06.36.78-.12.92,0,2.06-.49.11-.47.74-1.29.52a18.62,18.62,0,0,1-4.13,6.46c-3.45,7.31-8.77,12.76-14.73,17.56,1.45,1.67,4.13,3.42,3.88,5.94a20.47,20.47,0,0,0,8.52-3.1c2.61-.39,4.83-1.78,7-2.84s4.52-2,6.2-3.61a123.34,123.34,0,0,0,12.91-6.46c3.14-1.73,6.2-3.59,9.3-5.43,1.84-1.08,3.51-3,5.94-3.09a20.1,20.1,0,0,1-4.39,3.09c-1.51,1-2.91,1.89-4.39,2.85-2.91,1.87-6.16,3.44-8.52,5.94-10.61,6.1-20.39,13-28.68,21.44.29.31.74.46.52,1.29,2.09.14,1,3.52,3.1,3.61a5.84,5.84,0,0,0,.52,3.88c0,.56-.22.82-.78.77,0,.49.86.18.78.78a38.63,38.63,0,0,0-1,11.88C152.53,116.26,153.76,118.29,152.55,120.37ZM113,63.54c-1.45-.1-3.31.21-3.87-.77,1.39.26,3.28-.27,4.65.51,0-1.06,1.43-.8,1.29-2.06-2.88-6-1.13-15-3.1-21.7a78.75,78.75,0,0,1-1.29,10.33c.31,0,.61.08.51.52-.28,3.34.1,7.29-1,10.33-.18-2.67.44-4.56.26-7.23-.14-.38.3-1.34-.26-1.29.08,3.45-1.5,6.57-1.55,9,1.68-.35,1.84.06,3.1.51.12-5.46,0-11.82.52-17.56.69,5.94.28,11.59.51,17,1.08-.28,1.24-.17,1.29,1-2.34,0-5.1-.62-7-.26-1.52,3,1.45,6.92.77,10.59a13.45,13.45,0,0,0,.26-4.39c-.22-1.85-1.77-3.63-.77-4.65,0,1.3,2.28,1.55.77,2.84,1-.21,3-.61,3.62.26C112,65.48,112.89,64.86,113,63.54Zm-4.65,9.3c-.16.81.56,2.25-.77,2.33,0-.43.14-2.34-.26-1.55-.37,2.82.44,6.12,2.32,7.49.06-1.08-3-3.82-1.55-5.43-.47,2.13,1.4.32,1.81,1.55h-1.55a1.23,1.23,0,0,0,1.29,1.29c.94-1.92.73-3.87.78-7-.46-.15-1.08.76-1.29,0-.06-1.17,1.56.59,1.55-.77-.23-.61-1.45.59-1.3-.78.77-.37,1.58.91,1.55-.26-.14-.62-1.67.12-1.55-.77.34-.36,1.13-.26,1.81-.26-.22-1.24-1.72,0-1.81-1,.65-.69,2,.63,2.07-.78a6.42,6.42,0,0,1-2.58-.26C109.52,68.56,108.74,71,108.38,72.84ZM148.16,85c-.95.35-3.19.48-2.32,1.81a10.43,10.43,0,0,0,3.35-2.07,49.9,49.9,0,0,1,5.17-2.84c3.13-1.63,6.52-3.07,9.3-4.39-3.29,2.92-8.48,3.92-11.37,7.23-.61,0-.76-.44-1.55-.25-.4.91.88.15.78.77-2.22,1.57-4.58,3-7,4.39-.52-.15-1.93.08-1,.52.15-.62.54.62.78.77a5.1,5.1,0,0,1,4.39.78c0-.77.67-.88.77-1.55,5.48-4.77,11-9.53,17.31-13.43.7-.54-.92-1,.26-1.29.73-.22.67.36,1.29.25.36-.33.11-1.26.77-1.29a27.08,27.08,0,0,0,4.14-2.32c1.29-.8,2.84-1.41,3.87-2.59-9.41,5-18.53,10.23-28.41,14.73-.08-.46,1.21-.8.51-1C148.52,83.85,147.13,84,148.16,85ZM48.45,71.29c.54.23,1.16-.67.52-.77C48.91,70.89,48.55,71,48.45,71.29Zm4.14,1.81c-.37-.06-.44-.43-.78-.52C51.59,73.12,52.48,73.74,52.59,73.1Zm4.91,2.58c.88,1,2.56,1.22,3.09,2.59-.25,0-.3.21-.51.25-1.12-.6-2.35-2.47-3.62-2.06C59,78.24,61,80.56,64,81.88c-.27-1,1.35-1.48,1.55-.51-.7.41-1.62.61-1.55,1.8,1.26,0,.91-1.5,2.07-1.55.29.06.4.29.52.52,0,1.06-1.21.86-1.3,1.81a1.7,1.7,0,0,0,1.3.26c0-.69-.15-1.52.51-1.55a1,1,0,0,1,1,1c-.2.76-1.4.5-1.3,1.55.95-.21,2.75.31,2.59,1.55-.8-.15-.68-1.21-1.55-1.29s.65,1-.26,1c-.9-.31-1.7-2.08-2.58-1.55a25.33,25.33,0,0,1,4.39,4.39c2.31.1,5.14-.31,6.71.52-.91-3.39-4.54-4.07-4.39-8.52C65.63,80.73,60.88,76.82,57.5,75.68ZM55.69,77c-.35-1.28-1.22-.41,0,0Zm6.45,5.42c-.23-1.06-1.57-1-2.06-1.81C60.33,81.55,61.39,82.76,62.14,82.4Zm1.55,2.07c.2-.58-.95-1.07-1-.52C63,84.08,63.31,84.33,63.69,84.47Zm1.3-.26c-.46-.23-.8-.87-1,0C64.54,83.85,64.92,84.87,65,84.21Zm81.62.77c0-.3.41-.28.78-.26a.71.71,0,0,0-.52-.77C147.21,84.6,145.67,84.58,146.61,85Zm-1.81,2.84c1.57,1,3.63-1.36,4.91-2.32C148,86.08,146.41,87.93,144.8,87.82Zm-77,1.3c-.26-1-1.35-2.43-2.07-2.07C66.82,87.37,66.6,89,67.83,89.12Zm71.29,2.32c1.7-.37,3.81-1.7,3.62-3.1C142.06,89.9,139.94,90,139.12,91.44ZM80.23,89.89c.61.41.87.85,1.29,1,2.32,1-.17-.93-1-1.29-.53.16-1.79-.42-1.55.52C79.56,90.25,79.5,89.68,80.23,89.89ZM86.17,94c-1.34-2.27-4.73-2.5-7.49-3.35.12.9,1.33.73,1.55,1.54C82.41,90.64,84.09,93.79,86.17,94Zm55.27-3.1c-.2,1.57,1.19.18,0,0Zm2.07.78c.19-.57-.95-1.07-1-.52C143,91.19,142.81,91.89,143.51,91.7Zm-3.87.77h.51V92h-.51ZM83.07,95.83c.67.36,1.19.88,1.81,1.29-.24-1.18.64-1.25.51-2.32-1.68-.56-2.9-2.65-4.65-2.33,0,.83.57,1.16.78,1.81.36-.16,0-1,.51-1,.29,0,.41.28.52.51.07.76-.58.8-.52,1.55,1.26.23.4-1.67,1.55-1.55A2.9,2.9,0,0,1,83.07,95.83Zm2.32,1.81c.67.27.75-1.74,1-.26.64,0,.8-.48,1.29,0-.44-.94-1.53-1.23-2.33-1.81C85.62,96.56,85,97.22,85.39,97.64Zm55.54-4.91c0,.16,0,.31.26.26,0-.43.71-.14.77-.52-.35-.08-.49-.36-1-.26Zm-5.17,1.81c-.89-.05-3.31-.76-2.58.52C134.34,94.71,135.68,96.06,135.76,94.54Zm-5.42.26c1.63-.87,3.73-1.26,5.16-2.33-2.56.37-4.15,1.7-6.45,2.33.35.78-.13.92,0,2.06,1.34-.34,2.65.83,2.84-.51-.92-.12-2.49.42-2.33-.78,1.27-.12,3.29,1.1,4.39,0C133.13,94.81,131.65,95.46,130.34,94.8Zm8.52-1.55c-.05-.38-.62-.24-1-.26C137.28,93.94,139.14,94.15,138.86,93.25Zm-1.55,1c-.07-.72-1.95-1-2.32-.52C135.4,94.3,136.28,94.36,137.31,94.28ZM88.75,96.86c-.7-.93-1.14-2.12-2.32-2.58C86.77,95.41,88,97,88.75,96.86Zm20.92,6c.42-.52.13-2.53-.51-2.85C109.42,100.82,108.58,102.77,109.67,102.81ZM105,104.36c-1.67-.4-3.35-2.16-4.9-1.81C101.73,102.86,104.25,106.32,105,104.36Zm2.33-.26c.22-.1-1.2,1.08-1.55,1.55-.83,1.11,0,2.22-.26,3.61,1.64,2,5.35,1.19,6.46-.77C111.13,106.46,110.61,102.58,107.35,104.1Zm5.68,1c.87.48,2.14-.52,2.58-1.29A5.26,5.26,0,0,0,113,105.13Zm-22.21,1c-4.86,0-12.32.9-16.53-.25-1-.27-1.36-1.06-2.33-1a2.81,2.81,0,0,0-2.84,2.07,1.14,1.14,0,0,1,.52,1,3.66,3.66,0,0,0,3.61-.51c5.86.8,12,.23,17.57.77v1a10.7,10.7,0,0,1,5.68-1c-.58-1.92-3.15-1.84-4.39-3.1C91.38,105.18,91.79,106.36,90.82,106.16ZM124.4,110c.31-.64.63-3.12-.26-3.36C124.3,107.72,123.8,109.43,124.4,110Zm-.78-.78c-.21-.81.11-2.17-.77-2.32C123,107.85,122.42,109.43,123.62,109.26Zm-1.55,0V107.2C121,107.18,121.15,108.91,122.07,109.26ZM89.52,109c-.34-.08-.49-.36-1-.25C88.08,109.47,89.61,109.46,89.52,109Zm18.6,4.91a6.29,6.29,0,0,0,.52-2.06c-.49.05-.57-.29-1-.26C107.41,112.65,108.08,116.27,108.12,113.91ZM151,112.36h.52v-.51H151Zm-50.88,7c-.33,0-.36-.33-.78-.26C98.94,119.71,100.22,119.84,100.12,119.34Zm16,6.45c2.56,4.22,4.84,8.83,7.23,12.92-.77,1.23.35,2.49.78,3.36H126c.45-1.1,1.42-1.67,1.29-3.36a4,4,0,0,1-1.81,0c-2.39-5.44-6.59-9.08-7.49-16-1.14-.36,0,1.55-.78,1.55-.51-.43-.33,0-1,0-.41-.91-.08-2-1-1.8.1-.5,1.18,0,.77-1-.65-.12-.73-.82-1-1.29-.45.16,0,1.23-.52,1.29-.43-.43.17-1.88-.77-1.8C113.54,122.67,115,123.93,116.13,125.79ZM82,121.92c1-1,2.78-1,3.62-2.07C84.33,120.26,82,121,82,121.92Zm14,2.84c-1.42,2.54-2.66,5-4.13,7.49A41.44,41.44,0,0,1,89,136.39c-1.21.43-2.55.72-2.84,2.06.6,1.5,3.26,3,4.39,1,.35-1.12-1-.54-.78-1.54.7-.35.86-1.21,1.55-1.55,2.49-5.22,7.1-9.57,8-15.5.6.08,1.31.55.78-.26C97.92,120.79,97.08,122.79,96,124.76Zm34.62-2.32c1.06.4,2.12,1.54,3.35,1.55.88,1.27,3.1,2.58,4.65,2.32-3.25-1.57-5.8-3.84-9.81-4.65C128.68,122.92,130,122.2,130.6,122.44Zm-49.08.77a4.75,4.75,0,0,0,2.32-1.29A4.18,4.18,0,0,0,81.52,123.21Zm35.39.52c0-.82,0-1.56-.52-1.81C116.08,122.26,116.13,123.7,116.91,123.73Zm16.27-1.55c-.48.25-.87-.78-1,0C132.3,122.25,133.14,122.82,133.18,122.18Zm-4.39,1.55c-.11-.52-.54-2-1-1.29C128.32,122.64,128.09,123.65,128.79,123.73Zm5.68-.78c.41-.72-1.12-.71-1-.26C133.79,122.78,133.93,123.06,134.47,123Zm-55,.78a.93.93,0,0,0,1.29-.78C80.14,123,79.63,123.22,79.45,123.73Zm40,2.32c-.15-1.14.45-3-.78-3.1C118.89,124.07,118.68,125.57,119.49,126.05Zm10.85-1.55c-.53-.07-.51-.7-1-.77C129.19,124.3,130.08,125.15,130.34,124.5Zm19.37-.26h.52v-.51h-.52Zm-17.57.78c-.17-.2-1.44-.58-1.54,0C131.26,124.74,131.83,125.8,132.14,125Zm2.07,1c1.71.45-2.09-.66,0,0Zm4.65.78c1.88,1,.06-1.16,0,0Zm-63.8.51h.52v-.51h-.52Zm67.68.26c.71.72.2,1.23-.52,1.81-.21-.73.36-.67.26-1.29-1.64.82-2.44-1.55-3.62-.26,2,.27,2.68,1.8,3.62,3.1.23.75.33.89-.26,1.29.91-.1,1.3.86,2.84.78.45-1,.06-2.87.78-3.62a10.83,10.83,0,0,1-.26,3.88c1.72.12,3.25,1.38,4.65,1a28.94,28.94,0,0,0,6.2,3.36c1.56.72,2.82,2,4.39,2.84,1.34.72,2.78.89,4.13,1.55,3.37,1.63,6.47,4.39,10.33,4.65-10.74-5.28-20-12-30.22-17.83a16.43,16.43,0,0,1-.52,3.62c-.72-1.16.1-3,.26-4.13C144.06,128.33,143,127.27,142.74,127.6Zm-71,1.29c1,.42.09-1.11.78-1,.15,0,.3,0,.26-.26C71.92,127.57,71.85,128.27,71.7,128.89Zm-5.42,1c.07-.91,1,.65,1-.26-1.09-.95,1.35-.53.78-1.81C67.26,128.17,66.16,129.54,66.28,129.93Zm3.1-.52c0-.39.09-.95-.26-1C68.78,128.72,68.78,129.34,69.38,129.41Zm1.81,1.81a4.64,4.64,0,0,0-.52-2.84A3.46,3.46,0,0,0,71.19,131.22Zm1.8-2.58v.51c.64.4.76-.87.26-.77C73.24,128.54,73.21,128.68,73,128.64Zm-4.9,2.06c0-.34,0-1.87-.26-1C67.79,130,67.79,131.54,68.09,130.7Zm-5.17.52c.67,0,2-.76,1.29-1.29C64,130.61,63,130.47,62.92,131.22Zm43.14,4.65c-.79.19-.94-.27-1.55-.26,0,1,1.81.25,1.55,1.55-1.12,2-.9,3.94-1.3,7.49.47-3.65,3.68-11.76-.25-14.72-.15.48-.71,1.85-.26,2.06a1,1,0,0,1,1-1A36,36,0,0,1,106.06,135.87ZM65.5,132c1,.48-1.07,1.29-1.29.52-.1-1,1.1-.79,1.29-1.55-.85-.22-2.16,1.29-3.1,2.07-.56.47-1.92.72-1.29,1.55.19-.52,1.28-1.45,1.81-.78-1.07,2.14-4.19.62-5.17,2.84a13.31,13.31,0,0,0,5.94-2.32c-.45-.06-.58-.45-.51-1,1,.17,3.72-.51,3.36-1.55C66.47,132.64,65.39,131.27,65.5,132Zm3.62-1c-.21,1.56,1.18.17,0,0Zm-4.39,3.36c1.76-.43,3.72-1.27,5.42-1.81.64-.2,1.67.24,1.81-.77A17,17,0,0,0,64.73,134.32Zm39-1.81c-.76,1.67.35-.76,0,0Zm-42.36,4.13c2.69-.77,5.91-2.12,8.27-2.84,1.27-.38,2.4-.17,2.58-.77A39.58,39.58,0,0,0,61.37,136.64Zm43.14-2.58H105v-1h-.51Zm42.1.52a9.76,9.76,0,0,1-3.1-1C142.49,134.84,146,135,146.61,134.58Zm-3.62.51c.08-.67-.09-1.11-.77-1C142.18,134.71,142.62,134.87,143,135.09Zm7.75.78c-1.2-.18-2.7-1.42-3.87-.78C148.23,135.11,149.78,136.31,150.74,135.87Zm-2.32.26c-.65-.16-2.87-1.11-2.58-.52C146.46,135.81,149.48,136.7,148.42,136.13Zm-44.69.51c0-.18-.09-1.5-.26-.77C103.25,136.85,103.61,137.16,103.73,136.64Zm-43.39.52c0-.43.71-.14.77-.52C60.58,136.42,59.69,137.05,60.34,137.16Zm-7.75,2.07c1.49.28,1.94-1.54,3.1-.78,0-.64.4-.8.51-1.29A12.39,12.39,0,0,0,52.59,139.23Zm-1.29,1.55c-.54.26-2,.22-1.55,1,1.72-1,4-1.51,5.42-2.84A14.45,14.45,0,0,0,51.3,140.78Zm-5.17,2.58c.93-.27,2-.4,2.32-1.29A5.16,5.16,0,0,0,46.13,143.36Zm87.31.26c.46-.15,1.07-.14,1.29-.52C134.24,143.22,133.17,142.75,133.44,143.62Zm-2.33.77h.52v-.51h-.52Zm-26.6,2.84c-.79.87.95.79,0,0Zm20.92.52H126v-.52h-.52ZM108.9,161.44c-1.05.5-.28,2.82-.52,4.13,1.22,0,.12-2.29,1.29-2.32.07.45-.72,1.29,0,1.55a56.39,56.39,0,0,1,2.84-11.11c-1.76-.9-3.94-1.4-5.42-2.58a5.32,5.32,0,0,0-2.07-2.84c1.54,8.62,2,18.3,3.1,27.38a203,203,0,0,0-1.29-24c.26,0,.31-.21.52-.26C108.57,154.57,107.66,158.58,108.9,161.44ZM123.62,149c.66.28,1.47-.54.78-.77C124.5,148.89,123.22,148.12,123.62,149Zm-26.6.78c-1.66-.3-.57.79,0,0Zm11.62.26c-.48.24-.86-.78-1,0C108.06,150.3,108.41,150.94,108.64,150.08Zm13.17.25c.42.71.87-.37.26-.51C122.07,150.08,121.86,150.12,121.81,150.33Zm-1,1c-1.66-.3-.57.79,0,0Zm-.52,1.29c.59.07,1-.06,1-.52C120.71,152.07,120.33,152.2,120.26,152.66Zm1.81-.26c-.21,1.56,1.19.17,0,0ZM108.9,169.19c0-.74.72-2,0-2.58C109.21,167.62,108.11,168.55,108.9,169.19Z"/><path class="cls-1" d="M134.47,12.4h.77c-.51.34-.6,1.12-1.29,1.29v-.77C134.39,13,134.44,12.71,134.47,12.4Z"/><path class="cls-1" d="M65.24,37.2c-.62,2.7,1.14,6.59,1,8.78-1-.65-1-2.49-1.29-3.88a29,29,0,0,1-.78-7.49c2.08,2.66,4.2,5.28,5.43,8.79C68.12,42.42,67.13,38.67,65.24,37.2Z"/><path class="cls-1" d="M168.31,40.3c.23,1.48.73,2.65.26,3.61-1.44-.22-.22-1.81-.78-2.58-1.52.11-2.37.9-3.62,1.29C165.33,41.62,166.26,40.4,168.31,40.3Z"/><path class="cls-1" d="M39.41,46.24c2.11,2.16,3.32,5,5.17,7.49.36.48,1.32.65,1,1.55-1.81-1.23-2.85-3.56-4.39-5.69C40.33,48.36,39.23,47.92,39.41,46.24Z"/><path class="cls-1" d="M21.07,48.56a3.66,3.66,0,0,1,3.62,2.33C23.32,50.27,22.53,49.08,21.07,48.56Z"/><path class="cls-1" d="M132.4,157.82c-.76-1.54-1.49-3.8-.51-5.68,3.3.23,4.15,2.91,5.16,5.43.65-1.35-1.13-2.48-1-4.14.9.21,1-.38,1.81-.26.52,3.1.73,6.5,2.06,8.79.87.26.41-.81.52-1.29,2.37,2.36,3.64,5.83,6.46,7.74-.23,1.26.35,1.72.52,2.59-1.6-1.24-1.92-3.77-4.14-4.39,2.07,4.21,4.78,7.93,7.23,11.88,1,1.59,1.76,3.44,3.1,4.65.63,3.08,3,4.39,3.62,7.49a1.88,1.88,0,0,0,.78.52c-1.26.12-1.8-1-2.85-2.33a38.41,38.41,0,0,1-2.32-3.36c-.76-1.17-1.25-2-2.07-3.36a87.38,87.38,0,0,0-5.16-7.23,68.28,68.28,0,0,0-5.69-7.49c-.24,1.05.61,1.71.78,2.84s-.2,2.47,0,3.62c.09.56.85.95,1,1.55.05.15-.41.46-.26.77,1.16,2.36,3.34,4.42,3.62,7.24-.86-.17-1.26-.81-2.07-1-.18-.7.52-.52.52-1-1.27-2.51-2.77-4.81-3.87-7.49-.37-.84-1.72-.69-1.55-2.07,1-.22.91.63,1.55.78.18-3.07-1.77-6.17-3.1-8.53-1.32-.45-3.66-3.12-5.17-5.16-1.16-1.58-3.45-3.71-2.07-7a5.56,5.56,0,0,1,3.88-2.58c2.62-.21,3.49,1.35,4.39,3.36-2,1.1-3.29-.41-4.65-1.29-.46,0-.55.31-1,.26C130.24,153,130.88,156.78,132.4,157.82Zm1.55-7.23c.26,0,.31.21.52.26,0-.41,0-.9-.52-.77Zm1.81.78c-.86.43-.88-.17-1.81-.26C133.81,151.79,135.85,152.39,135.76,151.37Zm-3.62,2.84c.75.11-.22,1.95.52,2.06.17-1.18.44-2.84,1.81-2.06C134.33,152.91,132.62,153.68,132.14,154.21Zm1.81,2.06c.16.54-.32,1.7.26,1.81a3.91,3.91,0,0,1,1-2.06A1.69,1.69,0,0,0,134,156.27Zm.78,3.62c.92,0,.59-1.3,1.55-1.29.05.38.62.24,1,.26a3,3,0,0,0,.78,2.06c0-1-.52-1.55-.52-2.58-1,.2-1.24-.31-2.07-.26C135.29,158.73,134.8,159.1,134.73,159.89Zm-.52,0c-.8-.23-.85-1.22-1.55-1.55C132.92,159,133.6,160.48,134.21,159.89Zm1.29,1.55c-.08,1,1.95.42,1.81-.26C136.47,161,136.11,161.36,135.5,161.44Zm1.81,1.55a.72.72,0,0,0,.78-.52C137.68,162.5,137.19,162.44,137.31,163Zm1.55,1.81c-.61-.08-.58-.8-1-1C137.82,164.32,138.43,165.54,138.86,164.8Zm1.55,0h.52c.4-.64-.88-.76-.78-.26C140.31,164.55,140.46,164.58,140.41,164.8Zm-1.29.26c.41,0,.9,0,.77-.52h-.51C139.38,164.8,139.17,164.85,139.12,165.06Zm2.07,1.8a3.15,3.15,0,0,0-1.3-1.55C139.59,166.57,140.64,166.46,141.19,166.86Zm1.55.52c-.78-.37-.88.21-1.55-.26C140.82,168,142.73,167.78,142.74,167.38Zm0,1.55c-.27,0-.53-1.11-.78-.26C142.33,168.54,142.59,169.68,142.74,168.93Zm1.8,2.58c-.61-.42-.73-1.33-1.29-1.8C143.24,170.59,144.15,171.89,144.54,171.51Z"/><path class="cls-1" d="M35.8,153.43c0,.86-.84.72-1.29,1-1.66,1.13-3.23,2.58-4.91,3.87s-3.16,3.2-5.17,3.1a90.5,90.5,0,0,1,9.3-7C34.34,154.08,35,153.31,35.8,153.43Z"/><path class="cls-1" d="M23.66,157.82c-1.35.9-1.85,2.64-4.14,2.59-.18-.67.45-.35.78-.52C21.4,159.31,22.37,158.24,23.66,157.82Z"/><path class="cls-1" d="M122.33,177.46c1.08.66,1.3-.2,2.07-.52.72.8-.22,1.5-1.3,1.29-.24,1.66,1.19,3.54,1.3,5.68C122.84,182.25,122.84,179.62,122.33,177.46Z"/><path class="cls-1" d="M131.63,184.43c1.69.74,1.58,2.77,2.06,4.39.64,2.11,1.7,4.42,1.55,7-.81.13-.68-.69-1.29-.77.32-2.91-1-7-1.81-9.3,0,0,.25,0,.26,0C132.17,185.21,131,185.21,131.63,184.43Z"/><path class="cls-1" d="M97.53,202.25c.85.05-1.18,3.25,0,4.39-.28.75-.32,1.75-1.29,1.81C96.27,206,96.27,203.49,97.53,202.25Z"/><path class="cls-1" d="M21.59,41.59a11.14,11.14,0,0,1-4.13,2.06c.65.87.34,1.18-.78.78.28,3.81-1.41,5.65-1,9.56.11.92,1.5.56,1.55,1.55H14.87c-.2.54-.79,1-.77,1.29.17,2,3.77,1.91,4.13,4.13-1.14.33-1.06-1.24-1.81-.52.07,1.31,2,.76,2.59,1.55.72-.84,1.26-.74,2.32-.26,0,.68-.78,1.2-1.55,1.55-1.23.57-3.77,1.13-4.39.52.15-1,2-.45,2.58-1-.72-.4-1.95-.28-1.8-1.55H14.62c-.46-1.27-1.55-1.9-2.07-3.1,0-1.08.89-1.28.26-2.33,2.58-2.09,2.9-7.44,2.58-11.62C17.33,43.33,19.24,41.16,21.59,41.59ZM15.13,59.93a.71.71,0,0,0-.51-.78A.72.72,0,0,0,15.13,59.93Z"/></g></g></svg>