<svg xmlns="http://www.w3.org/2000/svg" viewBox="0 0 355 188.48"><defs><style>.cls-1{fill:#58595b;fill-rule:evenodd;}</style></defs><title>ornamenta02</title><g id="Capa_2"><g id="flourish"><path class="cls-1" d="M354.16,1.53c-1.45.69-.9,3.39-1.9,4.53a7.19,7.19,0,0,0-8.35-3.82c-1.46.36-2.48,2-3.58,2.63-.47,1.19.1,3.43-1.19,3.81-2.62-4.53-7.5-6.8-12.87-8.58-1.87,1.23-5,.82-6.92,1.67a38.12,38.12,0,0,0-4.29,2.14c-3.52,2.23-5.29,5.35-8.59,7.63-2.39-2.08-6-5.2-9.06-6.43-2.77-1.13-5-2.15-8.58-2.39A26.8,26.8,0,0,0,274,5.82a4.46,4.46,0,0,0-4.29-.71C269,6,269,7.66,269,9.4c-2.1.53-3.42,1.83-6.44,1.43-2.37-1.16-1.52-5.19-4.29-5.49A2.68,2.68,0,0,0,255.68,7c-.92,3.41,3.51,8.06,7.4,7.16-3.38,5.21-5.67,11.5-5.49,20.27-2.27-2.17-2.91-5.26-4.77-7.63-2.26-2.9-5.33-5.23-7.87-7.87a30.37,30.37,0,0,0-4-3.82,23.56,23.56,0,0,1-4.53-3.58c3.48.12,5.95.1,8.34-.95s4.64-2.4,4.77-5.48c.08-1.79-1.11-4.31-2.14-4.77-2.05-.91-5.75.13-6.2,1.67s1,1.79.47,3.81c-2.33,3.89-8,2.87-12.16,1.43-1-2.29-3.61-5.18-6.43-2.86A74,74,0,0,0,211.09.58c-3-.66-6.08.3-9.54.47a43.23,43.23,0,0,0-6.67.72A32.54,32.54,0,0,0,188,3.68c-2.78,1.11-5.72,4.34-8.1,4.53-.74,0-1.67-.47-2.63-.48a5.28,5.28,0,0,0-2.86.71c-1.43-.43-2.38-1.38-3.81-1.9-1.14-.41-2.58-.3-3.82-.72-2.07-.69-4-2.28-6.44-2.86-.35-.08-.73.29-1.19.24s-.84-.45-1.19-.48c-2.44-.18-5.22.25-7.87.24-2,0-4.05-.51-6.2-.24-2.67.33-5.18,1.63-7.63,2.62-1.25-1.76-4.2-.68-4.77,1-7,1.55-17,6.46-20.27-1.19-.61-1.44-.36-2.87-1.43-3.82-3.54-3.15-6.47,2-6.2,5.48a13.47,13.47,0,0,0,9.78,6.44c2.09.24,4.25-.44,6-.71-.76,1.64-2.51,1.84-3.82,2.86-3.61,2.82-6.2,6.89-9.77,9.78a24.49,24.49,0,0,1-2.39,4.05c-.83,1.31-1.38,2.86-2.62,3.81V30.38c-1-1.93-.7-4-1.19-6a33.68,33.68,0,0,0-5.25-10.73c-.81-1.17-1.78-2.2-1.91-3.1,4.88.61,9.47-1,9.3-6.2a4.91,4.91,0,0,0-2.86-1.67c-2.34.73-2.29,3.94-4.77,4.53C90.76,8,88.15,6,85.19,5.34c-.33-1.28-1.31-3.56-3.1-3.81-1.14-.16-2.18.77-3.34,1a19.57,19.57,0,0,1-4,0,34.23,34.23,0,0,0-9.3.24C62,3.48,58.35,5.37,55.62,6.3a10,10,0,0,1-4,3.1C47.91,6.56,45.05,2.61,39.17,2,36.74,1.76,35,2,33,1.77c-1.73-.21-3.09-.57-4.29-.24a20.1,20.1,0,0,0-6.44,3.34c-1.6,1.25-2.53,3.3-4.29,4.05C17.6,2.79,12,1.27,6,1.53c-1.51.87-2.76,2-4.29,2.86C1.09,7.18-.31,9.62.06,12.5c.41,3.14,3.25,5.33,4.53,7.39,3.34.86,5.92,2.23,10,1.19a74.24,74.24,0,0,0,2.62,9.3c2.65,2.61,3.89,4.95,8.59,5a17.54,17.54,0,0,0,9.77-3.1c1.6-1.26,2.11-3.46,3.82-3.58-1,6,.06,13.27.71,18.13-1.38-1.35-5.86-5.08-7.87-2.39a3.7,3.7,0,0,0-.47,1.67c.12,2.89,4.54,2.29,7.15,3.82,2.35,1.37,2.77,3.14,4,4.76-.2.68-.77,1-.71,1.91.42.54.57,1.34.95,1.91,2,.78,2.58,2.72,3.82,4.29,2.4,3,6.05,5.16,8.11,8.59,3.31.81,4.5,3.76,8.58,3.81,3.71,2.52,10,3.54,15.26,3.82.85,0,2-.47,2.62.23-2,1.91-4.59,4.11-5,7.64a10.62,10.62,0,0,0,.23,3.57c1.85,1.28,4.55,2.18,6.44.48,1.06-2.6-.88-5-.71-8.11,1.32-1.35,2.54-2.56,4.77-2.86,1.73-.24,3,.6,4.29-.24,1.12-.71.8-1.83,1.91-2.86.88-.08,1.92-1.24,2.86-.48-.16,1.81-1.82,2.37-1,4.53.43.85,1.76.79,2.15,1.67,1.8,4.4,3.32,11.48-.72,14.31-2.1,1.48-4.88.91-7.63,2.15-2.95,3-.29,6.77,2.63,7.15,1.79.24,5.17-.89,6.67-1.91s3.55-5.3,3.82-7.87a46.43,46.43,0,0,0-.24-5c3.23,4.39,6,9.29,9.78,13.11-.94,1.63-2.14,2.83-2.86,4.77a12,12,0,0,0-.48,7.87c.79,3.92,1,5.13,2.86,8.11a16.57,16.57,0,0,0,10.49,7.63c2.35.65,9,.31,11.45-.48,3.13-1,4.56-3.74,7.63-4.29a36.8,36.8,0,0,1,4.53,5c1.3,1.87,3,4.91,2.62,7.16a7,7,0,0,1-2.14,3.1c-1.64,1.48-4,2-4.3,4.29s1.89,4,3.82,4.29c5.33.73,6.76-4.75,6.68-8.58-.1-4.26-2.1-7.07-3.58-9.54-.42-.7-.76-1.26-1.19-1.91s-1.21-1.26-1.2-2.14c11.38,4.91,22.16,10.42,30.29,18.6-2.36,3-4.77,6-5.25,11-2.48-1.39-4.54-3.55-8.82-2.62a16.75,16.75,0,0,0-4.77,2.86c-1.71,1.91-1.45,5-.72,7.39,1.31,4.19,4.63,8.1,9.3,8.59a27.41,27.41,0,0,0,4.53,0c2.08-.17,3.69-1.63,6-1.67.43,3.44-2.85,4.83-3.58,6.68-1.16,2.93-.42,6.31,1.67,7.39,1.84.95,4.15.18,6.67.24,1.7-2,1.63-5.82.48-8.11-.43-.86-1.45-1.48-1.91-2.38a12.71,12.71,0,0,1-.47-1.67c-.21-.6-.78-1.13-.24-1.67,3,1.29,5.76,2.43,9.3,2.38,3.17,0,7.15-1.69,8.82-4a22.74,22.74,0,0,0,2.15-6c.37-3-1.06-7-3.1-8.59-1.67-1.27-5.18-2.17-7.39-1.43-1.79.6-3,2.57-4.54,2.86-1.07-2.49-1-5.13-2.14-7.39-.66-1.34-2.16-2.18-2.15-3.81a32.69,32.69,0,0,1,5.25-3.82c1.8-1.13,3.43-2.67,5.24-3.81,1.47-.94,3.18-1.52,4.77-2.39,4.66-2.54,9.1-5.79,14.31-7.39-1,1.42-3.22,3-4.29,4.53-.29.41-.73.85-1,1.19-2.54,3.86-1.61,11.94,1.2,14.55a7.56,7.56,0,0,0,4.77,1.9,4.39,4.39,0,0,0,3.57-4.53c-.25-2-2.7-2.09-3.81-3.57a25.29,25.29,0,0,1-1.19-2.39c-1.08-2-1.4-3-.48-5,1.22-2.66,3.41-4.33,5-6.2,2.51-1,3.82-3.17,6.2-4.3a18,18,0,0,0,6.43,4.06,18.69,18.69,0,0,0,11.21-.48c.51-.23.84-.87,1.43-1.19,1.87-1,1.88-.76,3.1-1.91.39-.36.87-.65,1.19-1,2.1-2,1.9-2.84,2.87-5.73.35-1,1-2,1.19-2.86a12.88,12.88,0,0,0-2.86-11.2c3.3-3.29,5.83-7.78,8.1-12.17.73-1.39,1.68-3.49,2.87-3.57-.1,3.63,1.21,8,3.81,10.49a8.79,8.79,0,0,0,3.82,2.14c3.66.57,7.36-2.6,7.15-5.48-.11-1.46-2.32-4-4.29-4-1.7,0-3,1.91-5,1.67a4.23,4.23,0,0,1-2.39-1.67c-1.65-2.33-1-6.37.48-10,1.53-1,2.12-1,2.39-2.38.16-.88-.51-1.74-.48-2.63,0-1.19.76-3.2,1.67-3.81,2.52-1.67,4,1.38,5.48,1.67.92.18,1.74-.49,2.63-.48,3,.06,6.47,2.57,6.67,5,.24,2.94-2.06,3.57-2.14,5.48-.11,2.28,2.09,4,4.77,3.34,2-.49,3.58-3.71,3.33-6.44-.19-2.21-1.55-3.21-2.14-5.48a3.07,3.07,0,0,1-2.15-1.43c-.81-.39-2.37,0-2.38-1.19,2.45-.11,5.23.27,7.39-.24.86-.21,1.58-1,2.38-1.19,3-.88,5.88-1.11,8.35-2.39.13-.06.3-.37.48-.48a5.2,5.2,0,0,0,.71-.23c.37-.26.6-1,1-1.2s1-.24,1.43-.47.81-.7,1.19-1c1.58-1.09,3.1-2.27,4.77-3.34,1.52-2.66,4.21-4.4,5.72-7.15.78-1.41.94-3.09,2.39-4.05,1.68,0,3.05-.94,3.09-2.39,0-1.25-.66-1.39-1.19-2.38,1.18-1,1.78-2.52,3.34-3.34,1.72-.9,4.52-.54,4.53-3.34-.62-.58-.8-1.25-1.43-1.43-2-.56-3.74,2.06-5,1.91-.07-2.56.28-6.6,0-9.3-.14-1.39-1-2.82.24-3.58,1.77-1.08,2.45,1.5,3.82,2.62a22.43,22.43,0,0,0,4.29,2.87c3.06,1.18,5.74-.13,8.11-.72,1.4-.35,2.82-.31,3.81-.71,2.28-.93,2.89-2,4.29-3.58a13.39,13.39,0,0,0,3.82-10,11.71,11.71,0,0,0,8.11-4.29C355.35,12.93,355.58,7,354.16,1.53ZM15.09,17.74a13.1,13.1,0,0,1-3.34.72c-3-.18-7.52-3.5-8.35-6-.92-2.73.18-5.45,1.67-8.11.73-.17.7.41,1.43.24,2.51-2,9.07.52,9.3,3.81,0,.73-.44,1.39-.48,2.15-3.39.7-2.77-2.39-4.53-2.86-2.49-.67-3.95,2-3.81,4,.13,1.84,1.89,2.87,2.38,4.06,1,.07.65-1.11,1.43-1.2,1.86,0,4.41,0,5.25-1.67C16,14.15,16.17,16.57,15.09,17.74ZM206.32,144.36c1.1.16-.19,1.45,0,0Zm55.09-123c.69-1.92,1.27-4.07,2.86-5-1.14,4.66,1.9,9.49,4.53,10.26,3.43,1,5-3,2.62-5.25-1.27-1.19-3.86-1.19-4.29-3.58-.5-2.74,1.7-4.74,3.1-6.43,1.21-.05,2.43.16,3.34-.24,1.2-.53,1.08-2,2.14-3.1,2.15-2.16,8.7-2.89,12.4-2.39,1.15.16,2.07.76,3.1,1s1.91,0,2.63.23a20.85,20.85,0,0,1,3.57,1.67c3.25,1.54,6.66,2.86,8.35,6-4,6.29-5.22,15.44-7.87,23.13-.74-1-.06-2-.24-3.34a21.59,21.59,0,0,0-2.86-6.68c-1.84-2.41-8.32-6.39-12.88-3.58-1.08.67-3.15,1.19-4.05,2.15A10.35,10.35,0,0,0,276,29.67c-1.2,5.28,3.78,11.22,7.87,6.67-.56-4.13-.74-7.15,2.38-8.1,5.83-1.78,9.59,4,9.54,9.53a31.26,31.26,0,0,1-.47,4.3c-.51,3.14-2.25,5.64-3.58,7.63-4,3.31-12.78,7.5-18.84,3.57,4.18-.35,6.34.94,10.73-.23a22.73,22.73,0,0,0,7.16-4.54,11,11,0,0,0,2.62-8.1c-.53-3.4-5.24-5.4-6.92-1.67.48,4.05-.1,7.22-1.67,9.77-2.42,1-4,2.53-6.67,2.87-7.7,1-13.13-4.34-15.74-9.07.07-1.62,1.19-2.53.48-3.81s-1.94-.54-3.1-1.43A37.54,37.54,0,0,1,261.41,21.32Zm-81.08-6.91A50.27,50.27,0,0,1,198,34c-1.73,1.89-4.32,2.88-6.44,4.29-1.13.75-1.94,1.9-3.34,2.15a33.71,33.71,0,0,0-6.91,10c-1-.61-.85-2.84-.72-4.53a22.6,22.6,0,0,1,.72-4.53c.65-2,2.61-3.25,2.14-5.48,1.33-1.5,3.17-2.64,4.77-4.3.91-.93,1.94-1.3,1.67-3.1a2.2,2.2,0,0,0-1.67-1.9c-4.68-1.09-6.18,6.59-8.11,9.3-2.69-5.5,5-14.75-1.43-18.36-1.72,1.47-2.74,3.93-2.38,7.39.08.82.56,1.53.71,2.38.62,3.48-.09,7.48.48,10.73-2.28-4.25-2.5-11.79-9.54-10.49-3.85,3.3,3.91,5.95,5.49,8.11a25.25,25.25,0,0,1,2.14,4.29A30.68,30.68,0,0,1,177,48.27c-3.92-7.12-9.49-12.6-18.36-14.79,3-8.38,9-13.77,15-19.07C175.41,15.43,178.68,15.81,180.33,14.41Zm39.11,54.12c4.9,1.18,7.24-5.63,8.82-8.58.14-.77-.16-1.11-.24-1.67.91-.84.45-3.05,1.43-3.81.71,4.67,1.43,9.48,1,14.06s-2.24,10.6-5,14.07a20.83,20.83,0,0,1-4.77,4.53c-1.89,1-5.76,1.55-7.63.72-1.44-.64-1.5-2.46-3.58-2.62-1.12-.09-2.84.83-3.1,1.67-1.48,4.87,7.24,5.75,11,4.29-1.11,2.34-3.92,3.44-6.67,4.53a49.74,49.74,0,0,1-8.11,2.86c-.54.11-1.31-.12-2.15,0a20.61,20.61,0,0,1-5.72,0c-5.17-.67-9-.59-12.4-3.1,1.39-1.61,3.75-2.37,5.72-3.58.9-.55,1.7-1.25,2.63-1.9s2.06-1,2.86-1.67c3.64-2.87,4.92-7.59,7.87-11.21,7.47-2.25,14-11.86,8.82-19.79-1.2-1.86-3.38-2.94-4.53-4.77a32.52,32.52,0,0,0-1.91-10c-.83-2.34-2-4.45-2.62-6.91A28.9,28.9,0,0,1,216.34,38c.65,1.1.56,2.93,1.67,3.58.9.67,1.9-.21,3.1,0,2.56,2.51,5.39,6.36,5.24,10.73-.09,2.92-2.08,6.68-4.53,8.11-1.44.84-3.17.65-4.77,1.9C215.8,64.92,217.63,68.1,219.44,68.53ZM148.62,85a2.46,2.46,0,0,0-2.86-1.91c-2,.13-3.37,3-5,3.34-7.28.41-9.1-4.77-11.68-10.26a34.72,34.72,0,0,1-2.63-8.34c-.55-2.77-1-6.58,0-9.54,1.24,5.4,3,11.23,9.06,12.64,2.26.52,6.26,0,6.92-2.39a10.35,10.35,0,0,0-.48-4.29,3.85,3.85,0,0,0-1.43-1.43c-1.73-.68-3.74.54-6,.24-3.59-.49-5.36-4.91-5.25-9.3a17.23,17.23,0,0,1,4.77-11c2.06.31,2.76-.74,4.06-1.19a9.37,9.37,0,0,0,.24-3.1c4.48-2.1,11-4.24,16.93-3.34-1.69,5.64-3.76,12.12-3.34,19.08-.72,1.58-2.6,2.28-3.58,3.57A10.75,10.75,0,0,0,146,65.2c.34,3.11,2.63,7.54,4.76,9.3s5.35,2.39,7.87,3.33a48.92,48.92,0,0,0,14.55,15.5c1.4.19,2.7.49,3.1,1.67-.17,1.49-1.9,1.26-3.1,1.67a29.53,29.53,0,0,1-8.35,2.15,38.24,38.24,0,0,1-13.59-1.67c-1.1-.38-2.11-.78-3.1-1.19-4.17-1.75-7.53-3.33-9.77-6.92C142.71,90.32,149.18,88.62,148.62,85Zm23.84-33.86a5.26,5.26,0,0,0-1.9,6c.8,2.51,3.73,3.34,6.43,4.29a14.73,14.73,0,0,1-2.14,7.15c-2.81,4.39-7.36,8.22-15.26,7.16a10.1,10.1,0,0,1-2.86-3.82,30.56,30.56,0,0,1-3.1-9.3c-.28-1.56-.69-3.37,0-4.77a2.25,2.25,0,0,1,2.86,1.67c.24,1.47-1.22,2.35-1.19,4.06,0,2.18,1.18,3.94,4.29,3.34s5-6.25,1.9-10.26a28.87,28.87,0,0,0-4.76-2.86c-1.06.34-1.5-.11-2.87,0-.9-4.37,1.35-13.32,2.63-16.69a3.18,3.18,0,0,1,1.19-1.43c9.22,1.35,14.19,6.95,17.88,13.83C174.83,50.59,173.4,50.46,172.46,51.13ZM177,54.7c-.78.55-2.23.13-2.86-.23C173.15,51.15,177.44,51.4,177,54.7ZM156.49,75c-6.35-1.18-11.6-11.1-5-16A49.6,49.6,0,0,0,156.49,75Zm15.26,15.5a25.86,25.86,0,0,1-2.63-2.62c-2.69-2.8-6.36-6-8.1-10,6.48.54,11.09-4,14.54-6.43-.88,2.81-2,5.7-4.29,7.15-1.2.78-2.91.59-3.81,1.91-.06,2.29.76,3.62,2.38,3.81,2.57.31,4.19-2.37,5.25-4.29.35-.65.94-1.16,1.19-1.67.45-.92.27-2.35,1.19-2.62.85,2,.2,4.69-.24,7.63s-1.93,8,1.67,7.87A3.12,3.12,0,0,0,181.29,89c.91-3.71-2.32-9.22-1-13.83,1.93,2.8,2.52,9.35,6.92,9.06,1-.06,1.77-.93,2.62-1.67-.13-2.93-3.51-3.45-5-5.48-.72-1-1.25-3.46-2.14-5.72-.75-1.89-2.36-3.67-1.67-6.2.28,0,.42,0,.47.23,2.76,7,7.56,12,17.41,11.93-.29,2.13-1.89,3.76-3.1,5.24a36,36,0,0,1-13.59,10.73c-.94-.14-1.52-1.3-2.38-1.43-1.15-.16-2.07,1-3.34,1S172.86,91.3,171.75,90.47Zm31.71-16.69c-.08-1.64.75-3.26,1.19-5a51.6,51.6,0,0,0,1.44-9.3,1.14,1.14,0,0,0,.23-.71C212,60.64,208.57,72.52,203.46,73.78Zm-1-29.81a66.88,66.88,0,0,1,1.91,8.59c-5.32-.51-12.31,2.37-11.21,8.82.46,2.73,4.43,5.48,7.39,2.62.53-2.89.15-6.68,4.05-6.2.14,7-1.66,12-3.57,16.93a27,27,0,0,1-3.82,1c-9,.35-13.31-6.93-15-14.55.55-.88,1.84-1,2.86-1.43,1.44-2,3.08-4.66,1.43-7.15-.77-1.17-1.92-1.22-3.1-2.15a16.91,16.91,0,0,1,8.35-9.54c.82-1.63,3.42-3.33,5.72-4a4,4,0,0,1,1.67-.24C200.9,37.05,201.84,41.69,202.51,44Zm-20,9.3c.16-.18,1.33-.53,1.43,0C184.25,54,182.14,54,182.48,53.27ZM56.34,8.92a34,34,0,0,1,10-3.1,84.08,84.08,0,0,1,11.93-.48c.75.84.78,2.1,1.9,2.63s2.55-.13,3.58.24A6,6,0,0,1,87.1,12.5c.23,2-.76,2.11-1,4.05-1.06,1.07-3,1.56-2.86,3.34s2.45,2.28,4.29,1.67c3-1,2.73-5.57,2.39-9.3.54-.76,1.07.6,1.19.71A14.65,14.65,0,0,1,95,17.74a36.48,36.48,0,0,1,3.81,17.41A4,4,0,0,0,95.44,38c-.11,1.31,1.07,1.32,1,2.63-1.54,3.15-3.21,6.17-6,8.1-5,1.39-9,3-13.83,1.67-4.32-1.19-7.3-5.56-6.68-11.92.2-2,1.39-4.53-1-6-8.31.2-4.65,11.69-1.43,14.78-1.24.23-2.55-1.47-3.58-2.86-2-2.63-4.65-7.22-3.58-12.88.3-1.56,1.66-3.09,2.15-4.76a10.85,10.85,0,0,1,10.25-2.15c2.37.79,4.79,3.57,4.77,5.48,0,3-5.45,4.78-1.91,8.11,2.6.55,4.78.09,6-1.19,3.39-3.64.47-10.33-2.14-13.12C72.77,19,60.61,21,59.2,29.67c-.76-1.06-.65-2.42-1-3.58-.86-3.22-2.62-6.56-3.34-10.25-.62-1.38-2.49-2.19-2.39-3.82C52.61,10.67,54.6,9.73,56.34,8.92ZM39.17,22c-.26,2.05-2.65,2.56-1.43,5.48-2,2.15-3.66,4.57-7.39,5.25-.8.14-1.93.46-2.39.47-6.76.22-10.82-6.52-11.44-13.35a44.72,44.72,0,0,1,7.15-4.05c-.37,1.81-1.38,3-1.43,5-.08,2.84,2.06,5.86,4.05,6,1,.05,2.62-.76,2.86-1.91.49-2.29-2-3-2.86-4.53C24.68,10,40.1,14.71,39.17,22Zm.48-4.3C38.39,14.38,33.71,11.36,28.2,12c-4,.48-7.19,3.5-10.49,4.53.07-5.15,3.94-9,8.58-10.73,1.9-.69,3.83-1.78,5.25-1.91,3.48-.29,7.72.83,11,1.91a17.69,17.69,0,0,1,7.63,5c-1.4,2.15-3.38,3.8-5,5.72S42.6,20.81,41.08,23C39.56,21.91,40.35,19.64,39.65,17.74ZM88.29,75c-.51.3-.55.88-1.43,1a4.45,4.45,0,0,1-4.29-3.34c-.2-1.69,1.17-3,1-4.53-.45-3.12-4.28-2.62-5.48,0-.84,1.8-.15,4.06.95,5.72s3,2.18,3.82,3.58A53.59,53.59,0,0,1,68.26,74.5c-2.46-.86-5-1.66-6.68-3.34-2.55-.57-5.32-2.56-7.39-4.29a34.07,34.07,0,0,1-4.77-4.77C48.48,61,47.23,59.58,47,58.76c-.24-1,.24-2.29,0-3.1-.46-1.55-2.08-1.79-2.39-3.1-.51-2.16,1-4.14,2.15-5,2.27-1.67,5-1.46,2.86-4.77-4.09-1.3-5,2.41-7.15,3.82-1.69-3.15-2.48-7.88-2.39-11.93a17,17,0,0,1,1-5.72c.43-1,1.68-1.7,1.9-2.62s-.3-1.87-.23-2.62c.33-3.61,5.23-8.63,7.86-10.5h.48c4.12,6.06,6.65,13.7,7.16,23.37-2.36-.78-2.07-3.11-4.54-4.29-2.66-1.28-9.93.08-9.3,3.58.62,3.34,5.1.1,7.64.23,2.81.15,4.24,2.22,6,4.06.67.72,1.57,1.2,2.14,1.91s1,1.84,1.67,2.62a76.21,76.21,0,0,0,6,5.72c-2.47-1-4.92,0-7.15.72-1,.3-2,.19-2.62.47a11.09,11.09,0,0,0-4.3,3.82A8.9,8.9,0,0,0,53,60.19a3.67,3.67,0,0,0,3.1,2.14c1.21-.06,2.35-1.41,3.34-2.62.82-1,1.18-2.59,2.14-3.58a12.81,12.81,0,0,1,5.49-2.62c3.12-.36,7,.41,10.49.24a33.88,33.88,0,0,0,6-1c5-1.13,10.07-3.07,12.16-6.68.26,1.51-.92,2.8-1.19,4.29-1.4,7.65.32,16.75,1.43,24.09C92.6,76.81,91.36,73.19,88.29,75Zm8.82-1.43c-2.4-10.74-1.52-23.43,2.15-32.19,1.72-.69,2.46-.83,2.86-1.91.49-1.31-.51-2-.48-3.34.06-2.32,2.51-5.41,4.06-7.63a46.49,46.49,0,0,1,5.24-6.2c4.13-4.13,7.63-8.58,12.88-10.25-1.81,2.66-5.46,7.05-5.48,11.92,0,2.86,1.2,8.9,4.76,8.35,1-.16,3.59-3.58,3.58-4.77,0-1.38-1.65-2.15-2.62-3.58-1.53-2.24-1.52-3.75-.24-6.67a22.57,22.57,0,0,1,1.43-3.34c.62-.86,1.91-1.51,2.86-2.39,1.12-1,1.94-2.08,2.86-2.14,1.12-.08,1.72,1.06,3.34.95,2.18-.14,2-1.49,3.34-3.1,12.29-3.17,26.11-.85,36,3.1.32,3-2.51,4.2-4.54,6A39.94,39.94,0,0,0,162.93,23a40.59,40.59,0,0,0-5.73,9.78c-3.08-2-7.24-5.06-5.48-9.3.75-1.83,4.16-2.24,3.81-5.25-.18-1.59-2-2.62-4.05-2.15-4,.95-5.9,5.11-4.29,9.54.59,1.64,1.84,2.62,2.86,3.82s2.24,2.25,2.38,3.57c-5.63.65-11,1.59-14.78,4.06a5.26,5.26,0,0,0-4.77,1.19c-.1,1.43-.21,1.36-.24,2.86-3.26,3.65-6.27,7.56-11,9.78-.42-.14-1.4.29-1.43-.24a3,3,0,0,1-1.67,1.43c-2.34.4-3.68-.32-5.24-.71-.79-.2-1.53,0-2.15-.24-2.39-1-3.74-4.39-7.39-3.34-1.57.45-2.43,3-1.67,5.25s4.31,4.28,7.63,4.53c4.34.32,8.34-1.33,11.45-3.1a5.31,5.31,0,0,0-1.43,2.62c-2.84,2.19-5.17,4.83-7.87,7.15s-5.68,4.1-8.35,6.44C101.17,71.4,100,73.28,97.11,73.54ZM124.3,59.23c-.09.46-.31-.15-.24-.47S124.36,58.91,124.3,59.23Zm12.63,69.16a11.29,11.29,0,0,1-5.48,1.43c-.89.06-1.74.48-2.38.47-.93,0-2-.59-3.1-.71s-2.82.2-3.82,0c-2.12-.42-3.61-2.2-5.25-2.39a35.5,35.5,0,0,1-4.76-8.82c-.66-1.93-1.67-3.52-1.2-6.68.29-1.91,1.4-3.54,2.39-5.24,3.38,1.31,4.77,4.61,7.87,6.2.52,2.65,1.78,4.58,5,4.53A84.73,84.73,0,0,0,139.32,126C139.34,127.07,138,127.8,136.93,128.39ZM115.23,105c2.66-5.33,16.1-1.57,11.69,4q-3.93-.46-5.25,1.67C119.47,108.89,116.79,107.52,115.23,105Zm27,19.55c-5.08-2-10-4.17-13.59-7.63,1.45-2.72,4.68-3.41,4-7.87-.44-3.13-4-6.83-6.91-7.87-4.38-1.55-8.92-.09-12.4,1.67a39.66,39.66,0,0,1-9.54-12.64c2.27,1.36,7.58,3.78,12.4,3.58,3.78-.16,7.49-3.77,5.72-7.63a6.39,6.39,0,0,0-3.1-.72c-3.73.48-5.62,5.88-11.68,4.06a23.12,23.12,0,0,1-3.58-1.91c-.84-.6-3.71-3.63-3.81-5.25-.09-1.39,1.1-1.62,1-3.33s-1.55-1.67-2.39-3.1c0-1.64,1.77-1.5,2.63-1.91,8.6-4.13,14.52-11.34,21-17.89a3.17,3.17,0,0,0,.48-.71c.21.1.43.21.48.48-.1,1.63-1.25,2.79-2.15,4.29a37.81,37.81,0,0,1-2.15,4c-1,1.35-2.35,2.37-3.34,3.82-1.36,2-4.09,4.71-3.57,8.1.34,2.2,2.92,2.91,5,1.67,2.59-1.54,4.87-8.59,5.72-12.63.35-1.66,0-3.81,1.43-4.53.93.35.43,1.63.48,2.14.57,6,1.75,11.85,4,16.69,1.42,3,4,6.34,4.05,9.06.13,3.42-2.39,4.73-4.76,6.44.12,1.86,1.7,2.27,2.86,3.1,3.07-.9,4.32-3.63,4.76-7.15,3.52,1.76,4.11,6.73,7.4,8.82C146,106.13,148.44,119.58,142.18,124.57Zm31.48,48.17c-1.42-.48-2.35.78-3.58.95-3.19.45-5.92-1.28-8.35-2.14-1-.82-1.73-2.59-2.62-4.06-.35-.58-1.07-1-1.19-1.67-.59-3.22,1.78-4.29,4.05-5.72a17.84,17.84,0,0,0,1.91,1.67c-.06,1.53-1.49,1.68-1.67,3.1.72,1.9,2.3,2.95,4,3.81a5,5,0,0,0,5-3.81c1-.21.52,1.07.95,1.43C174.16,167.52,176.43,170.79,173.66,172.74Zm1-10.73c-2.4-.72-1.28-4.11-.72-6a19.61,19.61,0,0,1,2.87-5c1.32,1.22.64,4.44,1,6.68C175.59,158.06,174.51,159.44,174.61,162Zm15,7.39c3.21-.29,5.33-5.44,2.63-7.15-1.12-.71-2-.16-3.58-.24.57-3.85,5.13-2.79,6.91-.72,1.15,1.34,2,4.29,1.43,6-1,2.66-2.77,5.27-5.24,6a27.25,27.25,0,0,1-4.53.71c-2.42.12-5.58-.32-6.92-2.15.85-2.49,2.78-3.89,3.58-6.43C185.78,167.36,186.49,169.68,189.63,169.4Zm-7.39-4.77c-.53.75-.75,1.8-1.67,2.15C179.84,165.73,181.13,163.84,182.24,164.63Zm.24-6.2c.16,1.14.6,2.86-.48,3.34-.89,0-.69-1.06-.71-1.91-.56-.87-1.63-1.24-2.15-2.14.89-1.53-.94-4.65-.24-6.68.28,0,.43.05.48.24C181,152.37,182.07,155.52,182.48,158.43Zm22.65-35.05c-1.27-.9-2.06-2.6-3.58-2.62a2.52,2.52,0,0,0-2.62,2.14c-.4,3.8,6.92,6.43,11.21,6-5.55,3.89-12.34,5.68-18.12,9.06-4.56,2.67-8.28,6.25-12.64,8.83a10.8,10.8,0,0,0-.48-2.63c0-1.33,1.82-.88,1.67-2.38-.08-.92-1-1.12-1.19-2.15-.2-1.22.49-2.35,1-3.34,1.75-.77,3.07-.14,4.53.48,3.25-.69,3-4.6-.71-4.77-1.9-.08-3.59,1.58-4.77,1.43.47-3.39,2.42-4.54,5.72-4.29,1.76.13,3.13,1.34,4.77,1a3.51,3.51,0,0,0,2.39-2.86c0-1.7-2.34-2.52-3.58-2.62a11.76,11.76,0,0,0-9.3,3.82c1.27-5.54,4.59-9.56,10.25-8.83.85.11,1.75,1,2.63,1a4.68,4.68,0,0,0,3.09-1.67,4.22,4.22,0,0,0-1.9-4.29c-5.48,0-9.14,2-11.69,5-.81,1-1.15,2.72-2.62,3.1-.18-2.22.67-3.23,1.43-4.53.91-1.54,1.53-3.77,2.86-5,2.17-2,11.47-2.22,8.11-6.91-2.66-1.06-5.76.12-7.63,1.67-2.37,2-3.17,5.28-5.25,7.15a33.57,33.57,0,0,1,1.2-6.44c.5-1.37,1.55-2.29,1.66-3.57.21-2.18-.73-5.3-3.33-4.53-.84.24-1.73,1.76-1.91,2.62-.76,3.5,1.66,9.55.71,12.16-2.25-3.74-5-9.94-8.82-11.21-2.16-.71-4.73.1-4.29,3.1.38,2.63,3.63,2.33,6,3.58,1.76.94,3.19,2.92,4.29,4.77a12.74,12.74,0,0,1,2.39,7.87c-.57-.79-1.05-2-1.91-3.1a15.24,15.24,0,0,0-3.58-3.82c-2.63-1.66-12.09-4.14-11.68,1.43.11,1.51,1.29,1.89,2.14,3.1,4,.47,6.64-2.37,9.78-.95,3,1.35,4.1,5.42,5.25,8.82-1.44-2.41-4-5-7.63-4.77A9,9,0,0,0,164.6,126c-.12,1.71.79,2.39,1.66,3.1,4.15-.41,9.32-.84,9.54,3.34-1.14-1.42-5.24-2.25-6.44-.24-.1,3.17,3.28,1.85,5.25,2.62s2.19,2.68,2.86,4.77c.09,1.21-1.72.5-1.91,1.43.2,2.27,2.62,2.31,2.15,5.25-2.53-1.21-4.67-3.15-6.92-4.77A94.76,94.76,0,0,0,152,131.25c-1.22-.52-2.72-1-3.58-2.15,5.15,1,11.62-.94,11-5.72a2.81,2.81,0,0,0-2.86-2.39c-2.44.05-2.82,2.56-4.53,3.82-2.43,1.12-5.53,2.21-7.87.48A21.21,21.21,0,0,0,147.9,110c-.7-6.17-4.84-11.21-6.67-15.73a33.49,33.49,0,0,0,24.8,6.2c3.6-.56,6.8-2.07,10-3.1,1.61.58,4.29,1.24,5.72,0,10.93,6.34,27.84,3.34,35.29-3.82.24,0,.19.29.24.48-1.84,4.85-6.2,10.19-6.2,16.69a20.6,20.6,0,0,0,3.34,10.49c.78,1.22,2.16,2.06,2.39,3.58A12.66,12.66,0,0,1,205.13,123.38Zm39.11-5.72c-.18.65-.69,1.19-1,1.9-.8,2.11-1.08,4.18-2.86,5.49-.61.44-3.3,1.27-4.77,1.91-.48.21-.82.82-1.19,1-4.36,1.48-10.24.48-13.11-1.91,2.16-2.46,5.22-3.76,7.87-5.72s5.06-4,7.63-6c1.85-2,3.9-3.73,5.72-5.73.38-.06.41.23.71.24A13.78,13.78,0,0,1,244.24,117.66Zm-14.55-7.87c-2-5.19,9.84-6.52,11.69-2.39-1.78,2-3.46,4.18-6,5.49C235.67,109.29,232.58,109,229.69,109.79Zm30.05-31.48a9.7,9.7,0,0,0-3.34,2.39c0,1.29.76,1.78.71,3.1-2.64,2.66-6.31,6.36-11.92,4.53A13.72,13.72,0,0,1,243.52,85c-.89-2.66-.22-6.74-4.05-6.2-4.47.62-2.23,7.34,0,10.25a11,11,0,0,0,2.62,2.62c4,2.08,8.17.2,11.69-1.9-.2,1.69-1.53,3-2.39,4.29-2.48,3.79-4.68,8.07-8.11,11.21-1.86-.48-3.25-2-5.48-2.63-3.94-1.09-9.89,1.31-11.68,3.82-2.66,3.7-1,9.92,4.29,10.25-.94,2.09-3.33,3.19-5.25,4.29a56.94,56.94,0,0,1-6.44,3.1c-5-4.87-6.73-12.85-4.29-20.5a30.61,30.61,0,0,1,1.67-4.06c1.32-2.68,2.55-5.39,4.29-6.91-.1,2.72-.78,6.49,1.19,9.06a4.32,4.32,0,0,0,3.34,1.91,2.79,2.79,0,0,0,2.63-2.63c-.06-1.76-3.33-3.21-4.06-4.77-1.49-3.21.38-5.82,1.91-8.58,2.34-4.22,5.74-9.78,6.44-15.74.59-5.1-.38-10.16-.24-16.21,2.24,1.92,2.65,5.39,3.81,9.06.82,2.57,1.82,7.86,4.77,7.87,1.73,0,3.24-2.17,3.1-4.06-.15-2.08-3.7-6.08-5-7.86-2.16-3-4.52-5.51-5.49-8.35,9.15,7.47,16,17.24,27.9,21.94C260.57,75.81,259.84,76.74,259.74,78.31Zm1.43-5.72c-6.26-2-11.12-6.55-15.74-10.49a110.12,110.12,0,0,1-11.68-11.21c-.34-.39-1.17-1-1-1.67,4.77.63,10.22,1.56,14.07-.72a8.22,8.22,0,0,0,3.34-3.57c.81-2.2,0-5.64-2.62-5.73-2.85-.09-4.08,3.07-5.49,5-2.41,1.69-4.28,3.58-8.58,2.63-1.64-.37-4.47-2.12-6.2-3.1a17.79,17.79,0,0,1-5-3.82c-.3-1.61-.71-3.1-1.91-3.82s-2,.16-3.1.24c-3.68-2-8.49-2.79-13.83-3.1,1.5-2.63,4.53-6,4.53-10,0-3.09-1.53-6.14-3.81-7.39a8.7,8.7,0,0,0-4.77.71c-1,2.52-.44,4.64,1.43,5.49,1.36.61,2.55.85,3.1,2.38.35,2.79-2.17,8.54-4.29,8.35-1.13-.11-2.47-3.34-3.34-4.77A65.48,65.48,0,0,0,185.1,14.88c-1.46-1.17-5.49-1.63-4.77-4.29.32-1.16,3.56-1.69,5.25-2.38,1.22-.5,2.69-1.64,4.29-2.15s3.33-.38,5.25-.72c1.32-.23,2.68-.71,4-1a51.59,51.59,0,0,1,12.64-.71c2.64.22,4.67,1.27,6.91,1.9,1.09.31,2.23,0,3.1.48,1.34.65,2,2.7,3.34,3.1s1.87-.22,2.86,0c1.51.34,4.87,3.53,5.25,5.48a8,8,0,0,1-.48,4.3c-1.72,3.76-7.21,3-7.39,6-.1,1.72,2.11,3.8,4,3.81,2.42,0,3.9-2.21,5.25-4.05a19.32,19.32,0,0,0,1.91-2.39,12,12,0,0,0,.24-5.72c-.22-1.11-.89-2-1.2-3.1,3.74,2,6.54,5,9.54,8.11,3.2,3.32,5.93,6,8.59,10a57.35,57.35,0,0,1,3.57,6.2c-.33,1.29-1.64,2-1.43,3.58.24,1.73,1.52,2,3.82,1.67C263.42,50,263.85,64.05,261.17,72.59Zm52.7-30.05c-1.38-.34-1.3-2-1.91-2.62s-3.54-2.34-4.06-.24c-.72,2.94,5.94,4.89,4.77,8.35-.37,1.11-2.11.9-2.62,1.91-.69,1.36-.19,1.4.24,3.33-2.12,2.27-3.33,5.7-5.72,8.11-.44.44-1.15.48-1.67.95s-.51,1.05-1,1.44c-.79.69-2,1.25-2.86,1.9a47.4,47.4,0,0,1-8.34,5c-3.38,1.63-8.3,4.28-13.6,3.82.69-2.35,4-2.65,5.49-4.77a24.26,24.26,0,0,0,1.91-4.3c.28-1.89-.31-4.63-1.67-5.24-1.64-.73-3.8.81-4.53,2.62-.68,1.66-.25,3.59-.48,5-.17,1-.75.69-.72,2.14a10.29,10.29,0,0,1-6.2,3.34c-1.35-.52-1.32-1.39-2.62-1.43-1.81,0-2.78,2.85-5,1.43-.62-3.13.88-6.39,1.2-9.77a44,44,0,0,0-.24-8.83c-.3-2.66-1.2-5.2-1.19-7.63,3.27,3.41,7.08,8.29,13.35,9.06,4.42.55,9.42-.1,13.83-.71,2.34,1.32,3.54.29,5.48,1.67s2.47,5.32,4.77,5.72c2.06.36,3.45-1.37,3.34-3.58-.14-2.89-2.86-4.64-6-5.72-2.49-.87-3.85-.88-7.15-.71.1-1.41,1.32-1.7,2.14-2.39,7.07-9,8.79-23.32,14.07-34.1,1.34,0,1.87,1.72,2.62,2.86,1,1.58,2.64,3.14,2.87,5.49s-.63,4.64,1.43,6C314.39,33.92,314.78,39.33,313.87,42.54Zm23.36-11.92a28.66,28.66,0,0,1-7.87,3.1c-1.82.35-5.34.48-6.67,0-1.91-.69-3-3.44-4.77-4.53.51-3.51-1.33-3.65-.95-6.44.71-5.22,10.91-8.44,11.2-2.38.11,2.21-1.31,2.17-1.19,4.77,2.36,2.42,5.26,0,5.48-2.87.13-1.58-.95-2.93-.47-4.53,3.35.71,6.15,2,9.3,2.87C341.4,24,339.87,28.63,337.23,30.62ZM341.76,18c-5-.3-11.13-4.28-17.88-3.1a9.34,9.34,0,0,0-2.62,1.19c-2.52,1.29-4.1,2.2-5.25,5-.37.92-.14,2.4-1.19,3.1-2.09-.29-2.47-3.32-3.34-5-1-1.87-2.24-3.52-3.1-5.24,1.9-3.75,6.59-6.84,11.45-8.59A18.31,18.31,0,0,1,327,3.91c1.2.08,2.28.86,3.58.48,1.28,1.25,3.36,1.54,4.77,2.62.41.33.61,1.09,1.19,1.67s1.28.73,1.67,1.2a32.13,32.13,0,0,1,3.1,4.76A6.51,6.51,0,0,1,341.76,18Zm1.91.24c-.2-1.21-1.18-2.71-.71-3.81,2.41.79,5,.26,6-1.67-.4-1.2.1-3.29-.72-4.06-1.55.52-3,1.14-4.53,1.67-1.47-.62-1.63-2.4-.95-4,1.38-.77,2.42-1.66,4-1.43s2.69,2.08,3.82,2.62C352.49,13.1,349,17.64,343.67,18.22Z"/></g></g></svg>