<svg xmlns="http://www.w3.org/2000/svg" viewBox="0 0 477.45 206"><defs><style>.cls-1{stroke:#000;stroke-miterlimit:10;}</style></defs><title>palindromo01_3</title><g id="Capa_2"><g id="Capa_1-2" ><path d="M17.81,181l0,14.84c0,3.13.45,5.15,1.33,6.08a5.59,5.59,0,0,0,4,1.46,6.66,6.66,0,0,1,2.26.29,1,1,0,0,1,.47,1c0,.68-.76,1-2.27,1-.67,0-2.25-.08-4.72-.24q-5-.27-7-.27-2.19,0-6,.27c-2.11.16-3.65.24-4.61.24S0,205.24,0,204.51c0-.57.72-1,2.15-1.17a6,6,0,0,0,3.05-1.11,5.08,5.08,0,0,0,1.3-2.81A77.77,77.77,0,0,0,7,188.69Q7,180,7,173.33L7,161a6.18,6.18,0,0,0-1.21-4c-.81-1-2.22-1.5-4.26-1.5-.91,0-1.36-.37-1.36-1.09s.8-1.29,2.42-1.29l1,0c1.46.07,3.16.11,5.08.11l15.94-.23q12.1,0,16.89,3.63a11.94,11.94,0,0,1,4.79,10.1,12.41,12.41,0,0,1-5.14,10.39q-5.13,3.93-16.77,3.93C22.54,181.12,20.36,181.06,17.81,181Zm0-2.77c1.49.13,2.63.19,3.44.19q6.21,0,9.3-3.74a13.65,13.65,0,0,0,3.08-8.93c0-3.28-.94-5.73-2.83-7.37a10.26,10.26,0,0,0-7-2.46,38.39,38.39,0,0,0-6,.66Z"/><path d="M72.44,201.39a18.59,18.59,0,0,1-4.89,3.46,11.7,11.7,0,0,1-5,1.15,7.85,7.85,0,0,1-6.15-2.41,8.44,8.44,0,0,1-2.17-5.85A8.78,8.78,0,0,1,55.58,193a9.65,9.65,0,0,1,3.23-3.25A40.3,40.3,0,0,1,65.19,187a33.21,33.21,0,0,0,5-2.09,6.24,6.24,0,0,0,2.12-2.23,7.47,7.47,0,0,0,.86-3.8,6.21,6.21,0,0,0-1.28-4.1,4.39,4.39,0,0,0-3.54-1.54,3.41,3.41,0,0,0-2.76,1,7.43,7.43,0,0,0-1.25,3.22q-.9,4.44-4.8,4.44a4.2,4.2,0,0,1-2.74-.94,3.32,3.32,0,0,1-1.13-2.7c0-2.5,1.36-4.36,4.08-5.6a23.36,23.36,0,0,1,9.75-1.86,18.33,18.33,0,0,1,7.95,1.49c2,1,3.35,2.13,3.92,3.44a15.9,15.9,0,0,1,.86,6.09L82.16,191a54.09,54.09,0,0,0,.49,9.37c.33,1.38,1,2.07,2.09,2.07a5.55,5.55,0,0,0,.63,0c.52-.05.87-.07,1-.07,1.07,0,1.6.29,1.6.89a1.18,1.18,0,0,1-.66,1,16.64,16.64,0,0,1-4,1,32.9,32.9,0,0,1-6,.63c-1.8,0-3-.34-3.69-1A5.57,5.57,0,0,1,72.44,201.39ZM73,185.72a16.53,16.53,0,0,1-4.5,3,15.09,15.09,0,0,0-4.33,3,6.25,6.25,0,0,0-1.1,4,6.5,6.5,0,0,0,1.16,4.17A3.5,3.5,0,0,0,67,201.35a5.74,5.74,0,0,0,4.22-2.1q2-2.08,2-7.38Q73.18,190.24,73,185.72Z"/><path d="M113.76,151.7l.12,32.77q0,15.71.82,17.15a3.42,3.42,0,0,0,3.12,1.57c1.82.07,2.73.44,2.73,1.09,0,.81-.56,1.21-1.67,1.21-.32,0-.77,0-1.37-.08q-3.8-.32-7.35-.31-5.77,0-8.55.3a12.41,12.41,0,0,1-1.41.09c-1.17,0-1.75-.35-1.75-1.05s.66-1.06,2-1.14a6.47,6.47,0,0,0,3.14-.78,2.68,2.68,0,0,0,1.21-1.86,40.72,40.72,0,0,0,.22-5.57l-.16-15.36.12-12.2c0-5.06-.24-8.12-.72-9.21s-1.91-1.81-4.28-2.2c-1.43-.21-2.15-.63-2.15-1.25a.8.8,0,0,1,.49-.81,10.26,10.26,0,0,1,2.4-.37A77.39,77.39,0,0,0,113.76,151.7Z"/><path d="M150.25,170.76q.15,5.48.16,19.5l-.12,8.39c0,1.7.28,2.83.84,3.4a4.72,4.72,0,0,0,2.75,1.14c1.46.18,2.19.6,2.19,1.25s-.57,1.05-1.72,1.05q-.82,0-2.85-.12c-2.87-.18-5.7-.27-8.52-.27a40.27,40.27,0,0,0-4.21.22,17.39,17.39,0,0,1-1.76.17c-1.15,0-1.72-.35-1.72-1.05s.75-1.08,2.26-1.22q3-.27,3.36-2a43.18,43.18,0,0,0,.36-7.05q0-6.87-.22-12.63c-.14-3.85-.41-6-.8-6.59s-1.41-.91-3.05-1.09c-1.27-.13-1.91-.51-1.91-1.13s.65-1,2-1.1l.82-.08Zm1.12-18.86a3.27,3.27,0,0,1,2.35,1,3.09,3.09,0,0,1,1,2.25c0,1.59-1.37,3.38-4.11,5.39q-3.21,2.34-6.07,4.69c-1.91,1.56-3.17,2.34-3.8,2.34a1.6,1.6,0,0,1-1-.47,1.28,1.28,0,0,1-.53-.9q0-.42,3.51-5.64a53.33,53.33,0,0,1,5.21-6.93A4.88,4.88,0,0,1,151.37,151.9Z"/><path d="M184.05,178.38a19.69,19.69,0,0,1,5.76-5.62,12.67,12.67,0,0,1,6.66-1.88,10.16,10.16,0,0,1,5.43,1.52,8,8,0,0,1,3.34,3.64,16,16,0,0,1,.88,6l-.35,15.59a10.15,10.15,0,0,0,.58,4.26,3.19,3.19,0,0,0,2.46,1.36c1.05.19,1.57.6,1.57,1.25s-.51,1-1.53,1c-.86,0-2.74-.1-5.66-.31-1-.06-1.84-.08-2.46-.08s-2.32.13-5.16.39h-1.91c-1.07,0-1.6-.35-1.6-1.05s.48-.95,1.44-1.14a4.83,4.83,0,0,0,2.11-.9q.78-.61,1-6.14t.25-10.95q0-6-1-8.25a3.6,3.6,0,0,0-3.65-2.23q-3.31,0-6.15,4.86t-2.83,14.94a29,29,0,0,0,.39,5.66,4.15,4.15,0,0,0,1,2.21,5.81,5.81,0,0,0,2.41.76c.73.13,1.09.51,1.09,1.14s-.53,1.09-1.6,1.09c-.52,0-1.09,0-1.72-.07-2.5-.21-3.85-.32-4.06-.32a88.47,88.47,0,0,0-9.22.39,7.88,7.88,0,0,1-.94.08c-1,0-1.44-.38-1.44-1.13s.43-1,1.29-1.14a4,4,0,0,0,2.69-1.09c.47-.58.81-2.37,1-5.38s.33-6.6.33-10.78q0-8-.59-9.87a4.32,4.32,0,0,0-2.81-2.76c-1.07-.42-1.6-.82-1.6-1.21,0-.63.77-.94,2.3-.94a87,87,0,0,0,10.51-.51A22.06,22.06,0,0,1,184.05,178.38Z"/><path d="M247.56,174.51q0-11.28-.12-15.06t-.63-4.41c-.33-.43-1.26-.77-2.77-1-1-.16-1.52-.52-1.52-1.1a.78.78,0,0,1,.52-.84,17.17,17.17,0,0,1,3.38-.17h10.32l-.08,27.73-.2,17.23q0,4,.69,5c.45.7,1.5,1.16,3.14,1.36,1,.11,1.45.47,1.45,1.1s-.51,1-1.53,1H247.56V200a11.91,11.91,0,0,1-4.1,4.49,10.59,10.59,0,0,1-5.63,1.49,14.2,14.2,0,0,1-10.49-4.65,16.43,16.43,0,0,1-4.51-12A17.91,17.91,0,0,1,228,176.17q5.14-5.17,11.48-5.17a10.84,10.84,0,0,1,4.4.88A11.36,11.36,0,0,1,247.56,174.51Zm-14.18,13.73q0,7.45,2,10.91c1.31,2.3,3,3.45,5,3.45s3.63-1.1,5-3.3,2.09-6.17,2.09-11.91q0-7-1.76-10.54a5.65,5.65,0,0,0-5.31-3.51c-2.35,0-4.1,1.24-5.28,3.73S233.38,183.28,233.38,188.24Z"/><path d="M288.52,178.65a16.49,16.49,0,0,1,4.5-5.89,9,9,0,0,1,5.66-2,6.58,6.58,0,0,1,4.75,1.72,5.75,5.75,0,0,1,1.77,4.3,5,5,0,0,1-1.27,3.46,4,4,0,0,1-3.1,1.42,3.57,3.57,0,0,1-2.27-.7,8.57,8.57,0,0,1-1.91-2.5q-1.41-2.58-2.46-2.58c-1,0-2.06,1-3.28,2.92s-1.84,5.74-1.84,11.36q0,10.65.72,11.84c.48.79,1.55,1.18,3.19,1.18,1.43,0,2.15.4,2.15,1.18s-.71,1.09-2.11,1.09c-.79,0-1.92-.07-3.4-.21s-2.63-.18-3.83-.18q-3.87,0-7.66.27c-1.07.08-1.69.12-1.87.12-1.1,0-1.64-.41-1.64-1.23s.63-1.1,1.91-1.15a3.72,3.72,0,0,0,2.62-.88c.49-.53.74-1.7.74-3.49l.16-9.75q0-3-.24-7.38a46.46,46.46,0,0,0-.43-5.24,2.82,2.82,0,0,0-1-1.51,3.89,3.89,0,0,0-2.17-.78,5.42,5.42,0,0,1-1.78-.37.92.92,0,0,1-.37-.88c0-.7.65-1.06,1.95-1.09q3.6,0,12.23-.94Z"/><path d="M352.3,187.44a18.66,18.66,0,0,1-18.94,18.36,18.23,18.23,0,0,1-12.73-4.68q-5.16-4.69-5.16-12.5a16.47,16.47,0,0,1,5.45-12.84,19.15,19.15,0,0,1,13.26-4.9q7.94,0,13,4.63A15.37,15.37,0,0,1,352.3,187.44Zm-10.78,2.68a30.3,30.3,0,0,0-2.13-11.6c-1.42-3.45-3.45-5.18-6.11-5.18q-3.51,0-5.43,3.62t-1.91,10.15a27.18,27.18,0,0,0,2.17,11.68c1.44,3,3.43,4.55,5.95,4.55a6,6,0,0,0,5.59-3.64A21,21,0,0,0,341.52,190.12Z"/><path d="M379.91,176.86a21.56,21.56,0,0,1,5.69-4.55,12.43,12.43,0,0,1,5.85-1.51,13.07,13.07,0,0,1,4.46.86,13.78,13.78,0,0,1,5.12,4,20.92,20.92,0,0,1,5.77-3.7,15.78,15.78,0,0,1,6.09-1.23c3.57,0,6.18,1,7.85,2.9s2.46,4.85,2.46,8.68l-.2,13.22q0,5.59.54,6.43c.36.56,1.35,1,2.95,1.2q1.35.23,1.35,1.05c0,.81-.53,1.21-1.59,1.21-.19,0-.45,0-.78,0q-3.29-.32-7.14-.31c-1.4,0-3.09.07-5.07.22-1.22.09-1.92.13-2.1.13-1.3,0-2-.36-2-1.09s.43-1,1.29-1.14a6,6,0,0,0,2.73-.78c.34-.31.6-1.52.79-3.61s.27-5.64.27-10.63a82.7,82.7,0,0,0-.35-9.38,7,7,0,0,0-1.6-3.89,4.1,4.1,0,0,0-3.13-1.35,5.79,5.79,0,0,0-3.42,1.27,16.45,16.45,0,0,0-3.57,3.84A94.5,94.5,0,0,0,401,196.1q0,4.82.7,5.83c.47.68,1.54,1.11,3.2,1.29,1,.11,1.49.45,1.49,1,0,.81-.63,1.21-1.88,1.21-.28,0-1.29-.06-3-.17-2.37-.15-4-.22-5-.22-1.7,0-3.7.1-6,.3-.6.06-1,.09-1.37.09-1.14,0-1.71-.38-1.71-1.13s.55-1.06,1.67-1.13a3,3,0,0,0,2.82-2.49q.58-2.32.58-16.29,0-5.74-1-7.92a3.44,3.44,0,0,0-3.32-2.17c-2.66,0-4.76,1.4-6.29,4.22s-2.31,8.25-2.31,16.31q0,5.67.73,7a3.08,3.08,0,0,0,2.71,1.39c1,.05,1.49.39,1.49,1,0,.84-.54,1.25-1.61,1.25a7.28,7.28,0,0,1-1.09-.13,63.8,63.8,0,0,0-6.95-.26,57.77,57.77,0,0,0-6.76.3c-.63.06-1.09.09-1.41.09-.86,0-1.29-.38-1.29-1.13s.49-1.08,1.45-1.13c1.56-.08,2.52-.36,2.89-.83s.64-1.78.82-3.93.27-6.2.27-12.14q0-7-.17-8.72a3.86,3.86,0,0,0-1.29-2.7,4.72,4.72,0,0,0-3.07-1c-1.07,0-1.6-.38-1.6-1.06s.53-1,1.6-1.09c1.38-.08,3.43-.25,6.14-.53s5.05-.41,7-.41a10.79,10.79,0,0,1,.47,3.75C379.88,175,379.89,175.76,379.91,176.86Z"/><path d="M477.45,187.44A18.68,18.68,0,0,1,458.5,205.8a18.23,18.23,0,0,1-12.73-4.68q-5.16-4.69-5.16-12.5a16.47,16.47,0,0,1,5.45-12.84,19.15,19.15,0,0,1,13.26-4.9q7.94,0,13,4.63A15.38,15.38,0,0,1,477.45,187.44Zm-10.79,2.68a30.49,30.49,0,0,0-2.12-11.6q-2.13-5.18-6.12-5.18-3.51,0-5.43,3.62t-1.91,10.15a27.18,27.18,0,0,0,2.17,11.68c1.44,3,3.43,4.55,5.95,4.55a6,6,0,0,0,5.59-3.64A21,21,0,0,0,466.66,190.12Z"/><rect class="cls-1" x="218.86" y="65.6" width="39.72" height="39.72" transform="translate(9.49 193.83) rotate(-45)"/><polygon class="cls-1" points="294.72 113.54 266.64 85.46 294.72 57.37 294.72 113.54"/><rect class="cls-1" x="218.86" y="9.43" width="39.72" height="39.72" transform="translate(49.21 177.38) rotate(-45)"/><polygon class="cls-1" points="210.81 29.29 182.72 57.37 182.72 1.21 210.81 29.29"/></g></g></svg>